M48
; DRILL file {KiCad 8.0.8} date 2025-06-07T08:47:10+0800
; FORMAT={-:-/ absolute / metric / decimal}
; #@! TF.CreationDate,2025-06-07T08:47:10+08:00
; #@! TF.GenerationSoftware,Kicad,Pcbnew,8.0.8
; #@! TF.FileFunction,NonPlated,1,2,NPTH
FMAT,2
METRIC
; #@! TA.AperFunction,NonPlated,NPTH,ComponentDrill
T1C1.900
; #@! TA.AperFunction,NonPlated,NPTH,ComponentDrill
T2C3.050
; #@! TA.AperFunction,NonPlated,NPTH,ComponentDrill
T3C3.450
%
G90
G05
T1
X4.025Y-76.2
X4.025Y-152.4
X8.5Y-57.15
X8.5Y-95.25
X11.169Y-114.3
X15.025Y-76.2
X15.025Y-152.4
X19.5Y-57.15
X19.5Y-95.25
X20.694Y-133.35
X22.169Y-114.3
X23.075Y-76.2
X23.075Y-152.4
X31.694Y-133.35
X32.312Y-95.25
X32.38Y-57.15
X34.075Y-76.2
X34.075Y-152.4
X37.487Y-114.4
X42.125Y-76.2
X42.125Y-152.4
X43.312Y-95.25
X43.38Y-57.15
X48.487Y-114.4
X51.362Y-95.25
X51.43Y-57.15
X53.125Y-76.2
X53.125Y-152.4
X56.412Y-133.35
X56.537Y-114.3
X61.175Y-76.2
X61.175Y-152.4
X62.362Y-95.25
X62.43Y-57.15
X67.412Y-133.35
X67.537Y-114.3
X70.412Y-95.25
X70.48Y-57.15
X72.175Y-76.2
X72.175Y-152.4
X75.462Y-133.35
X75.587Y-114.3
X80.225Y-76.2
X81.412Y-95.25
X81.48Y-57.15
X86.462Y-133.35
X86.587Y-114.3
X89.462Y-95.25
X89.53Y-57.15
X91.225Y-76.2
X94.512Y-133.35
X94.637Y-114.3
X99.275Y-76.2
X100.462Y-95.25
X100.53Y-57.15
X105.512Y-133.35
X105.637Y-114.3
X108.512Y-95.25
X108.58Y-57.15
X110.275Y-76.2
X113.562Y-133.35
X113.688Y-114.3
X118.325Y-76.2
X119.512Y-95.25
X119.58Y-57.15
X124.562Y-133.35
X124.688Y-114.3
X127.562Y-95.25
X127.63Y-57.15
X127.85Y-152.4
X129.325Y-76.2
X132.612Y-133.35
X132.737Y-114.3
X137.375Y-76.2
X138.562Y-95.25
X138.63Y-57.15
X138.85Y-152.4
X143.612Y-133.35
X143.737Y-114.3
X146.612Y-95.25
X146.68Y-57.15
X148.375Y-76.2
X151.662Y-133.35
X151.787Y-114.3
X156.425Y-76.2
X157.612Y-95.25
X157.68Y-57.15
X162.662Y-133.35
X162.787Y-114.3
X165.662Y-95.25
X165.73Y-57.15
X167.425Y-76.2
X170.713Y-133.35
X170.838Y-114.3
X175.475Y-76.2
X176.662Y-95.25
X176.73Y-57.15
X181.713Y-133.35
X181.838Y-114.3
X184.713Y-95.25
X184.78Y-57.15
X186.475Y-76.2
X189.762Y-133.35
X189.887Y-114.3
X194.525Y-76.2
X194.525Y-152.4
X195.712Y-95.25
X195.78Y-57.15
X200.762Y-133.35
X200.887Y-114.3
X203.762Y-95.25
X203.83Y-57.15
X205.525Y-76.2
X205.525Y-152.4
X208.812Y-133.35
X208.938Y-114.3
X213.575Y-76.2
X213.575Y-152.4
X214.762Y-95.25
X214.83Y-57.15
X219.812Y-133.35
X219.938Y-114.3
X222.812Y-95.25
X222.88Y-57.15
X224.575Y-76.2
X224.575Y-152.4
X227.862Y-133.35
X227.987Y-114.3
X232.625Y-76.2
X232.625Y-152.4
X233.812Y-95.25
X233.88Y-57.15
X238.862Y-133.35
X238.987Y-114.3
X241.862Y-95.25
X241.93Y-57.15
X243.625Y-76.2
X243.625Y-152.4
X251.675Y-152.4
X252.862Y-95.25
X252.93Y-57.15
X258.819Y-133.35
X258.944Y-114.3
X260.812Y-76.2
X262.675Y-152.4
X265.743Y-57.15
X265.743Y-95.25
X269.819Y-133.35
X269.944Y-114.3
X270.725Y-152.4
X271.812Y-76.2
X276.743Y-57.15
X276.743Y-95.25
X281.725Y-152.4
T2
X9.525Y-70.3
X9.525Y-146.5
X14.0Y-51.25
X14.0Y-89.35
X14.525Y-72.4
X14.525Y-148.6
X16.669Y-108.4
X19.0Y-53.35
X19.0Y-91.45
X21.669Y-110.5
X26.194Y-127.45
X28.575Y-70.3
X28.575Y-146.5
X31.194Y-129.55
X33.575Y-72.4
X33.575Y-148.6
X37.812Y-89.35
X37.88Y-51.25
X42.812Y-91.45
X42.88Y-53.35
X42.987Y-108.5
X47.625Y-70.3
X47.625Y-146.5
X47.987Y-110.6
X52.625Y-72.4
X52.625Y-148.6
X56.862Y-89.35
X56.93Y-51.25
X61.862Y-91.45
X61.912Y-127.45
X61.93Y-53.35
X62.037Y-108.4
X66.675Y-70.3
X66.675Y-146.5
X66.912Y-129.55
X67.037Y-110.5
X71.675Y-72.4
X71.675Y-148.6
X75.912Y-89.35
X75.98Y-51.25
X80.912Y-91.45
X80.962Y-127.45
X80.98Y-53.35
X81.087Y-108.4
X85.725Y-70.3
X85.962Y-129.55
X86.087Y-110.5
X90.725Y-72.4
X94.962Y-89.35
X95.03Y-51.25
X99.962Y-91.45
X100.012Y-127.45
X100.03Y-53.35
X100.137Y-108.4
X104.775Y-70.3
X105.012Y-129.55
X105.137Y-110.5
X109.775Y-72.4
X114.012Y-89.35
X114.08Y-51.25
X119.012Y-91.45
X119.062Y-127.45
X119.08Y-53.35
X119.188Y-108.4
X123.825Y-70.3
X124.062Y-129.55
X124.188Y-110.5
X128.825Y-72.4
X133.062Y-89.35
X133.13Y-51.25
X133.35Y-146.5
X138.062Y-91.45
X138.112Y-127.45
X138.13Y-53.35
X138.237Y-108.4
X138.35Y-148.6
X142.875Y-70.3
X143.112Y-129.55
X143.237Y-110.5
X147.875Y-72.4
X152.112Y-89.35
X152.18Y-51.25
X157.112Y-91.45
X157.162Y-127.45
X157.18Y-53.35
X157.287Y-108.4
X161.925Y-70.3
X162.162Y-129.55
X162.287Y-110.5
X166.925Y-72.4
X171.162Y-89.35
X171.23Y-51.25
X176.162Y-91.45
X176.213Y-127.45
X176.23Y-53.35
X176.338Y-108.4
X180.975Y-70.3
X181.213Y-129.55
X181.338Y-110.5
X185.975Y-72.4
X190.212Y-89.35
X190.28Y-51.25
X195.212Y-91.45
X195.262Y-127.45
X195.28Y-53.35
X195.387Y-108.4
X200.025Y-70.3
X200.025Y-146.5
X200.262Y-129.55
X200.387Y-110.5
X205.025Y-72.4
X205.025Y-148.6
X209.262Y-89.35
X209.33Y-51.25
X214.262Y-91.45
X214.312Y-127.45
X214.33Y-53.35
X214.438Y-108.4
X219.075Y-70.3
X219.075Y-146.5
X219.312Y-129.55
X219.438Y-110.5
X224.075Y-72.4
X224.075Y-148.6
X228.312Y-89.35
X228.38Y-51.25
X233.312Y-91.45
X233.362Y-127.45
X233.38Y-53.35
X233.487Y-108.4
X238.125Y-70.3
X238.125Y-146.5
X238.362Y-129.55
X238.487Y-110.5
X243.125Y-72.4
X243.125Y-148.6
X247.362Y-89.35
X247.43Y-51.25
X252.362Y-91.45
X252.43Y-53.35
X257.175Y-146.5
X262.175Y-148.6
X264.319Y-127.45
X264.444Y-108.4
X266.312Y-70.3
X269.319Y-129.55
X269.444Y-110.5
X271.243Y-51.25
X271.243Y-89.35
X271.312Y-72.4
X276.225Y-146.5
X276.243Y-53.35
X276.243Y-91.45
X281.225Y-148.6
T3
X9.525Y-76.2
X9.525Y-152.4
X14.0Y-57.15
X14.0Y-95.25
X16.669Y-114.3
X26.194Y-133.35
X28.575Y-76.2
X28.575Y-152.4
X37.812Y-95.25
X37.88Y-57.15
X42.987Y-114.4
X47.625Y-76.2
X47.625Y-152.4
X56.862Y-95.25
X56.93Y-57.15
X61.912Y-133.35
X62.037Y-114.3
X66.675Y-76.2
X66.675Y-152.4
X75.912Y-95.25
X75.98Y-57.15
X80.962Y-133.35
X81.087Y-114.3
X85.725Y-76.2
X94.962Y-95.25
X95.03Y-57.15
X100.012Y-133.35
X100.137Y-114.3
X104.775Y-76.2
X114.012Y-95.25
X114.08Y-57.15
X119.062Y-133.35
X119.188Y-114.3
X123.825Y-76.2
X133.062Y-95.25
X133.13Y-57.15
X133.35Y-152.4
X138.112Y-133.35
X138.237Y-114.3
X142.875Y-76.2
X152.112Y-95.25
X152.18Y-57.15
X157.162Y-133.35
X157.287Y-114.3
X161.925Y-76.2
X171.162Y-95.25
X171.23Y-57.15
X176.213Y-133.35
X176.338Y-114.3
X180.975Y-76.2
X190.212Y-95.25
X190.28Y-57.15
X195.262Y-133.35
X195.387Y-114.3
X200.025Y-76.2
X200.025Y-152.4
X209.262Y-95.25
X209.33Y-57.15
X214.312Y-133.35
X214.438Y-114.3
X219.075Y-76.2
X219.075Y-152.4
X228.312Y-95.25
X228.38Y-57.15
X233.362Y-133.35
X233.487Y-114.3
X238.125Y-76.2
X238.125Y-152.4
X247.362Y-95.25
X247.43Y-57.15
X257.175Y-152.4
X264.319Y-133.35
X264.444Y-114.3
X266.312Y-76.2
X271.243Y-57.15
X271.243Y-95.25
X276.225Y-152.4
M30
