G04 #@! TF.GenerationSoftware,KiCad,Pcbnew,8.0.8*
G04 #@! TF.CreationDate,2025-06-07T08:47:10+08:00*
G04 #@! TF.ProjectId,magic-keys,6d616769-632d-46b6-9579-732e6b696361,rev?*
G04 #@! TF.SameCoordinates,Original*
G04 #@! TF.FileFunction,Soldermask,Top*
G04 #@! TF.FilePolarity,Negative*
%FSLAX46Y46*%
G04 Gerber Fmt 4.6, Leading zero omitted, Abs format (unit mm)*
G04 Created by KiCad (PCBNEW 8.0.8) date 2025-06-07 08:47:10*
%MOMM*%
%LPD*%
G01*
G04 APERTURE LIST*
%ADD10C,3.050000*%
%ADD11C,3.450000*%
%ADD12C,1.900000*%
%ADD13O,1.700000X1.700000*%
%ADD14R,1.700000X3.500000*%
%ADD15R,1.700000X1.700000*%
%ADD16R,3.500000X1.700000*%
%ADD17R,1.600000X1.600000*%
%ADD18O,1.600000X1.600000*%
G04 APERTURE END LIST*
D10*
G04 #@! TO.C,`~1*
X9525000Y-70300000D03*
X14525000Y-72400000D03*
D11*
X9525000Y-76200000D03*
D12*
X4025000Y-76200000D03*
X15025000Y-76200000D03*
G04 #@! TD*
D10*
G04 #@! TO.C,]}1*
X247362500Y-89350000D03*
X252362500Y-91450000D03*
D11*
X247362500Y-95250000D03*
D12*
X241862500Y-95250000D03*
X252862500Y-95250000D03*
G04 #@! TD*
D10*
G04 #@! TO.C,\u005C|1*
X271242500Y-89350000D03*
X276242500Y-91450000D03*
D11*
X271242500Y-95250000D03*
D12*
X265742500Y-95250000D03*
X276742500Y-95250000D03*
G04 #@! TD*
D10*
G04 #@! TO.C,[{1*
X228312500Y-89350000D03*
X233312500Y-91450000D03*
D11*
X228312500Y-95250000D03*
D12*
X222812500Y-95250000D03*
X233812500Y-95250000D03*
G04 #@! TD*
D10*
G04 #@! TO.C,Z1*
X61912500Y-127450000D03*
X66912500Y-129550000D03*
D11*
X61912500Y-133350000D03*
D12*
X56412500Y-133350000D03*
X67412500Y-133350000D03*
G04 #@! TD*
D10*
G04 #@! TO.C,Y1*
X133062500Y-89350000D03*
X138062500Y-91450000D03*
D11*
X133062500Y-95250000D03*
D12*
X127562500Y-95250000D03*
X138562500Y-95250000D03*
G04 #@! TD*
D10*
G04 #@! TO.C,X1*
X80962500Y-127450000D03*
X85962500Y-129550000D03*
D11*
X80962500Y-133350000D03*
D12*
X75462500Y-133350000D03*
X86462500Y-133350000D03*
G04 #@! TD*
D10*
G04 #@! TO.C,W1*
X56862500Y-89350000D03*
X61862500Y-91450000D03*
D11*
X56862500Y-95250000D03*
D12*
X51362500Y-95250000D03*
X62362500Y-95250000D03*
G04 #@! TD*
D10*
G04 #@! TO.C,V1*
X119062500Y-127450000D03*
X124062500Y-129550000D03*
D11*
X119062500Y-133350000D03*
D12*
X113562500Y-133350000D03*
X124562500Y-133350000D03*
G04 #@! TD*
D10*
G04 #@! TO.C,Up1*
X257175000Y-146500000D03*
X262175000Y-148600000D03*
D11*
X257175000Y-152400000D03*
D12*
X251675000Y-152400000D03*
X262675000Y-152400000D03*
G04 #@! TD*
D10*
G04 #@! TO.C,U2*
X152112500Y-89350000D03*
X157112500Y-91450000D03*
D11*
X152112500Y-95250000D03*
D12*
X146612500Y-95250000D03*
X157612500Y-95250000D03*
G04 #@! TD*
D10*
G04 #@! TO.C,Tab1*
X14000000Y-89350000D03*
X19000000Y-91450000D03*
D11*
X14000000Y-95250000D03*
D12*
X8500000Y-95250000D03*
X19500000Y-95250000D03*
G04 #@! TD*
D10*
G04 #@! TO.C,T1*
X114012500Y-89350000D03*
X119012500Y-91450000D03*
D11*
X114012500Y-95250000D03*
D12*
X108512500Y-95250000D03*
X119512500Y-95250000D03*
G04 #@! TD*
D10*
G04 #@! TO.C,Space1*
X133350000Y-146500000D03*
X138350000Y-148600000D03*
D11*
X133350000Y-152400000D03*
D12*
X127850000Y-152400000D03*
X138850000Y-152400000D03*
G04 #@! TD*
D10*
G04 #@! TO.C,Shift2*
X264318750Y-127450000D03*
X269318750Y-129550000D03*
D11*
X264318750Y-133350000D03*
D12*
X258818750Y-133350000D03*
X269818750Y-133350000D03*
G04 #@! TD*
D10*
G04 #@! TO.C,Shift1*
X26193750Y-127450000D03*
X31193750Y-129550000D03*
D11*
X26193750Y-133350000D03*
D12*
X20693750Y-133350000D03*
X31693750Y-133350000D03*
G04 #@! TD*
D10*
G04 #@! TO.C,S1*
X62037500Y-108400000D03*
X67037500Y-110500000D03*
D11*
X62037500Y-114300000D03*
D12*
X56537500Y-114300000D03*
X67537500Y-114300000D03*
G04 #@! TD*
D10*
G04 #@! TO.C,Right1*
X276225000Y-146500000D03*
X281225000Y-148600000D03*
D11*
X276225000Y-152400000D03*
D12*
X270725000Y-152400000D03*
X281725000Y-152400000D03*
G04 #@! TD*
D10*
G04 #@! TO.C,R1*
X94962500Y-89350000D03*
X99962500Y-91450000D03*
D11*
X94962500Y-95250000D03*
D12*
X89462500Y-95250000D03*
X100462500Y-95250000D03*
G04 #@! TD*
D10*
G04 #@! TO.C,Q1*
X37812500Y-89350000D03*
X42812500Y-91450000D03*
D11*
X37812500Y-95250000D03*
D12*
X32312500Y-95250000D03*
X43312500Y-95250000D03*
G04 #@! TD*
D10*
G04 #@! TO.C,P1*
X209262500Y-89350000D03*
X214262500Y-91450000D03*
D11*
X209262500Y-95250000D03*
D12*
X203762500Y-95250000D03*
X214762500Y-95250000D03*
G04 #@! TD*
D10*
G04 #@! TO.C,Option1*
X47625000Y-146500000D03*
X52625000Y-148600000D03*
D11*
X47625000Y-152400000D03*
D12*
X42125000Y-152400000D03*
X53125000Y-152400000D03*
G04 #@! TD*
D10*
G04 #@! TO.C,O1*
X190212500Y-89350000D03*
X195212500Y-91450000D03*
D11*
X190212500Y-95250000D03*
D12*
X184712500Y-95250000D03*
X195712500Y-95250000D03*
G04 #@! TD*
D10*
G04 #@! TO.C,N1*
X157162500Y-127450000D03*
X162162500Y-129550000D03*
D11*
X157162500Y-133350000D03*
D12*
X151662500Y-133350000D03*
X162662500Y-133350000D03*
G04 #@! TD*
D10*
G04 #@! TO.C,M1*
X176212500Y-127450000D03*
X181212500Y-129550000D03*
D11*
X176212500Y-133350000D03*
D12*
X170712500Y-133350000D03*
X181712500Y-133350000D03*
G04 #@! TD*
D10*
G04 #@! TO.C,Left1*
X219075000Y-146500000D03*
X224075000Y-148600000D03*
D11*
X219075000Y-152400000D03*
D12*
X213575000Y-152400000D03*
X224575000Y-152400000D03*
G04 #@! TD*
D10*
G04 #@! TO.C,L1*
X195387500Y-108400000D03*
X200387500Y-110500000D03*
D11*
X195387500Y-114300000D03*
D12*
X189887500Y-114300000D03*
X200887500Y-114300000D03*
G04 #@! TD*
D10*
G04 #@! TO.C,K1*
X176337500Y-108400000D03*
X181337500Y-110500000D03*
D11*
X176337500Y-114300000D03*
D12*
X170837500Y-114300000D03*
X181837500Y-114300000D03*
G04 #@! TD*
D10*
G04 #@! TO.C,J1*
X157287500Y-108400000D03*
X162287500Y-110500000D03*
D11*
X157287500Y-114300000D03*
D12*
X151787500Y-114300000D03*
X162787500Y-114300000D03*
G04 #@! TD*
D10*
G04 #@! TO.C,I1*
X171162500Y-89350000D03*
X176162500Y-91450000D03*
D11*
X171162500Y-95250000D03*
D12*
X165662500Y-95250000D03*
X176662500Y-95250000D03*
G04 #@! TD*
D10*
G04 #@! TO.C,H1*
X138237500Y-108400000D03*
X143237500Y-110500000D03*
D11*
X138237500Y-114300000D03*
D12*
X132737500Y-114300000D03*
X143737500Y-114300000D03*
G04 #@! TD*
D10*
G04 #@! TO.C,G1*
X119187500Y-108400000D03*
X124187500Y-110500000D03*
D11*
X119187500Y-114300000D03*
D12*
X113687500Y-114300000D03*
X124687500Y-114300000D03*
G04 #@! TD*
D10*
G04 #@! TO.C,Fn1*
X9525000Y-146500000D03*
X14525000Y-148600000D03*
D11*
X9525000Y-152400000D03*
D12*
X4025000Y-152400000D03*
X15025000Y-152400000D03*
G04 #@! TD*
D10*
G04 #@! TO.C,F13*
X100137500Y-108400000D03*
X105137500Y-110500000D03*
D11*
X100137500Y-114300000D03*
D12*
X94637500Y-114300000D03*
X105637500Y-114300000D03*
G04 #@! TD*
D10*
G04 #@! TO.C,F12*
X247430000Y-51250000D03*
X252430000Y-53350000D03*
D11*
X247430000Y-57150000D03*
D12*
X241930000Y-57150000D03*
X252930000Y-57150000D03*
G04 #@! TD*
D10*
G04 #@! TO.C,F11*
X228380000Y-51250000D03*
X233380000Y-53350000D03*
D11*
X228380000Y-57150000D03*
D12*
X222880000Y-57150000D03*
X233880000Y-57150000D03*
G04 #@! TD*
D10*
G04 #@! TO.C,F10*
X209330000Y-51250000D03*
X214330000Y-53350000D03*
D11*
X209330000Y-57150000D03*
D12*
X203830000Y-57150000D03*
X214830000Y-57150000D03*
G04 #@! TD*
D10*
G04 #@! TO.C,F9*
X190280000Y-51250000D03*
X195280000Y-53350000D03*
D11*
X190280000Y-57150000D03*
D12*
X184780000Y-57150000D03*
X195780000Y-57150000D03*
G04 #@! TD*
D10*
G04 #@! TO.C,F8*
X171230000Y-51250000D03*
X176230000Y-53350000D03*
D11*
X171230000Y-57150000D03*
D12*
X165730000Y-57150000D03*
X176730000Y-57150000D03*
G04 #@! TD*
D10*
G04 #@! TO.C,F7*
X152180000Y-51250000D03*
X157180000Y-53350000D03*
D11*
X152180000Y-57150000D03*
D12*
X146680000Y-57150000D03*
X157680000Y-57150000D03*
G04 #@! TD*
D10*
G04 #@! TO.C,F6*
X133130000Y-51250000D03*
X138130000Y-53350000D03*
D11*
X133130000Y-57150000D03*
D12*
X127630000Y-57150000D03*
X138630000Y-57150000D03*
G04 #@! TD*
D10*
G04 #@! TO.C,F5*
X114080000Y-51250000D03*
X119080000Y-53350000D03*
D11*
X114080000Y-57150000D03*
D12*
X108580000Y-57150000D03*
X119580000Y-57150000D03*
G04 #@! TD*
D10*
G04 #@! TO.C,F4*
X95030000Y-51250000D03*
X100030000Y-53350000D03*
D11*
X95030000Y-57150000D03*
D12*
X89530000Y-57150000D03*
X100530000Y-57150000D03*
G04 #@! TD*
D10*
G04 #@! TO.C,F3*
X75980000Y-51250000D03*
X80980000Y-53350000D03*
D11*
X75980000Y-57150000D03*
D12*
X70480000Y-57150000D03*
X81480000Y-57150000D03*
G04 #@! TD*
D10*
G04 #@! TO.C,F2*
X56930000Y-51250000D03*
X61930000Y-53350000D03*
D11*
X56930000Y-57150000D03*
D12*
X51430000Y-57150000D03*
X62430000Y-57150000D03*
G04 #@! TD*
D10*
G04 #@! TO.C,F1*
X37880000Y-51250000D03*
X42880000Y-53350000D03*
D11*
X37880000Y-57150000D03*
D12*
X32380000Y-57150000D03*
X43380000Y-57150000D03*
G04 #@! TD*
D10*
G04 #@! TO.C,Esc1*
X14000000Y-51250000D03*
X19000000Y-53350000D03*
D11*
X14000000Y-57150000D03*
D12*
X8500000Y-57150000D03*
X19500000Y-57150000D03*
G04 #@! TD*
D10*
G04 #@! TO.C,Enter1*
X264443750Y-108400000D03*
X269443750Y-110500000D03*
D11*
X264443750Y-114300000D03*
D12*
X258943750Y-114300000D03*
X269943750Y-114300000D03*
G04 #@! TD*
D10*
G04 #@! TO.C,E1*
X75912500Y-89350000D03*
X80912500Y-91450000D03*
D11*
X75912500Y-95250000D03*
D12*
X70412500Y-95250000D03*
X81412500Y-95250000D03*
G04 #@! TD*
D10*
G04 #@! TO.C,Down1*
X238125000Y-146500000D03*
X243125000Y-148600000D03*
D11*
X238125000Y-152400000D03*
D12*
X232625000Y-152400000D03*
X243625000Y-152400000D03*
G04 #@! TD*
D10*
G04 #@! TO.C,Del1*
X271242500Y-51250000D03*
X276242500Y-53350000D03*
D11*
X271242500Y-57150000D03*
D12*
X265742500Y-57150000D03*
X276742500Y-57150000D03*
G04 #@! TD*
D10*
G04 #@! TO.C,D1*
X81087500Y-108400000D03*
X86087500Y-110500000D03*
D11*
X81087500Y-114300000D03*
D12*
X75587500Y-114300000D03*
X86587500Y-114300000D03*
G04 #@! TD*
D10*
G04 #@! TO.C,Control1*
X28575000Y-146500000D03*
X33575000Y-148600000D03*
D11*
X28575000Y-152400000D03*
D12*
X23075000Y-152400000D03*
X34075000Y-152400000D03*
G04 #@! TD*
D10*
G04 #@! TO.C,Cmd2*
X200025000Y-146500000D03*
X205025000Y-148600000D03*
D11*
X200025000Y-152400000D03*
D12*
X194525000Y-152400000D03*
X205525000Y-152400000D03*
G04 #@! TD*
D10*
G04 #@! TO.C,Cmd1*
X66675000Y-146500000D03*
X71675000Y-148600000D03*
D11*
X66675000Y-152400000D03*
D12*
X61175000Y-152400000D03*
X72175000Y-152400000D03*
G04 #@! TD*
D10*
G04 #@! TO.C,CapsLock1*
X16668750Y-108400000D03*
X21668750Y-110500000D03*
D11*
X16668750Y-114300000D03*
D12*
X11168750Y-114300000D03*
X22168750Y-114300000D03*
G04 #@! TD*
D10*
G04 #@! TO.C,C1*
X100012500Y-127450000D03*
X105012500Y-129550000D03*
D11*
X100012500Y-133350000D03*
D12*
X94512500Y-133350000D03*
X105512500Y-133350000D03*
G04 #@! TD*
D10*
G04 #@! TO.C,Backspace1*
X266312500Y-70300000D03*
X271312500Y-72400000D03*
D11*
X266312500Y-76200000D03*
D12*
X260812500Y-76200000D03*
X271812500Y-76200000D03*
G04 #@! TD*
D10*
G04 #@! TO.C,B1*
X138112500Y-127450000D03*
X143112500Y-129550000D03*
D11*
X138112500Y-133350000D03*
D12*
X132612500Y-133350000D03*
X143612500Y-133350000D03*
G04 #@! TD*
D10*
G04 #@! TO.C,A1*
X42987500Y-108500000D03*
X47987500Y-110600000D03*
D11*
X42987500Y-114400000D03*
D12*
X37487500Y-114400000D03*
X48487500Y-114400000D03*
G04 #@! TD*
D10*
G04 #@! TO.C,>.1*
X214312500Y-127450000D03*
X219312500Y-129550000D03*
D11*
X214312500Y-133350000D03*
D12*
X208812500Y-133350000D03*
X219812500Y-133350000D03*
G04 #@! TD*
D10*
G04 #@! TO.C,=+1*
X238125000Y-70300000D03*
X243125000Y-72400000D03*
D11*
X238125000Y-76200000D03*
D12*
X232625000Y-76200000D03*
X243625000Y-76200000D03*
G04 #@! TD*
D10*
G04 #@! TO.C,<\u002C1*
X195262500Y-127450000D03*
X200262500Y-129550000D03*
D11*
X195262500Y-133350000D03*
D12*
X189762500Y-133350000D03*
X200762500Y-133350000D03*
G04 #@! TD*
D10*
G04 #@! TO.C,;:1*
X214437500Y-108400000D03*
X219437500Y-110500000D03*
D11*
X214437500Y-114300000D03*
D12*
X208937500Y-114300000D03*
X219937500Y-114300000D03*
G04 #@! TD*
D10*
G04 #@! TO.C,9(1*
X180975000Y-70300000D03*
X185975000Y-72400000D03*
D11*
X180975000Y-76200000D03*
D12*
X175475000Y-76200000D03*
X186475000Y-76200000D03*
G04 #@! TD*
D10*
G04 #@! TO.C,8\u002A1*
X161925000Y-70300000D03*
X166925000Y-72400000D03*
D11*
X161925000Y-76200000D03*
D12*
X156425000Y-76200000D03*
X167425000Y-76200000D03*
G04 #@! TD*
D10*
G04 #@! TO.C,7&1*
X142875000Y-70300000D03*
X147875000Y-72400000D03*
D11*
X142875000Y-76200000D03*
D12*
X137375000Y-76200000D03*
X148375000Y-76200000D03*
G04 #@! TD*
D10*
G04 #@! TO.C,6^1*
X123825000Y-70300000D03*
X128825000Y-72400000D03*
D11*
X123825000Y-76200000D03*
D12*
X118325000Y-76200000D03*
X129325000Y-76200000D03*
G04 #@! TD*
D10*
G04 #@! TO.C,5\u00251*
X104775000Y-70300000D03*
X109775000Y-72400000D03*
D11*
X104775000Y-76200000D03*
D12*
X99275000Y-76200000D03*
X110275000Y-76200000D03*
G04 #@! TD*
D10*
G04 #@! TO.C,4$1*
X85725000Y-70300000D03*
X90725000Y-72400000D03*
D11*
X85725000Y-76200000D03*
D12*
X80225000Y-76200000D03*
X91225000Y-76200000D03*
G04 #@! TD*
D10*
G04 #@! TO.C,3#1*
X66675000Y-70300000D03*
X71675000Y-72400000D03*
D11*
X66675000Y-76200000D03*
D12*
X61175000Y-76200000D03*
X72175000Y-76200000D03*
G04 #@! TD*
D10*
G04 #@! TO.C,2@1*
X47625000Y-70300000D03*
X52625000Y-72400000D03*
D11*
X47625000Y-76200000D03*
D12*
X42125000Y-76200000D03*
X53125000Y-76200000D03*
G04 #@! TD*
D10*
G04 #@! TO.C,1!1*
X28575000Y-70300000D03*
X33575000Y-72400000D03*
D11*
X28575000Y-76200000D03*
D12*
X23075000Y-76200000D03*
X34075000Y-76200000D03*
G04 #@! TD*
D10*
G04 #@! TO.C,0)1*
X200025000Y-70300000D03*
X205025000Y-72400000D03*
D11*
X200025000Y-76200000D03*
D12*
X194525000Y-76200000D03*
X205525000Y-76200000D03*
G04 #@! TD*
D10*
G04 #@! TO.C,/1*
X233362500Y-127450000D03*
X238362500Y-129550000D03*
D11*
X233362500Y-133350000D03*
D12*
X227862500Y-133350000D03*
X238862500Y-133350000D03*
G04 #@! TD*
D10*
G04 #@! TO.C,-_1*
X219075000Y-70300000D03*
X224075000Y-72400000D03*
D11*
X219075000Y-76200000D03*
D12*
X213575000Y-76200000D03*
X224575000Y-76200000D03*
G04 #@! TD*
D10*
G04 #@! TO.C,'"1*
X233487500Y-108400000D03*
X238487500Y-110500000D03*
D11*
X233487500Y-114300000D03*
D12*
X227987500Y-114300000D03*
X238987500Y-114300000D03*
G04 #@! TD*
D13*
G04 #@! TO.C,U1*
X283755000Y-20320000D03*
D14*
X283755000Y-19420000D03*
D13*
X281215000Y-20320000D03*
D14*
X281215000Y-19420000D03*
D15*
X278675000Y-20320000D03*
D14*
X278675000Y-19420000D03*
D13*
X276135000Y-20320000D03*
D14*
X276135000Y-19420000D03*
D13*
X273595000Y-20320000D03*
D14*
X273595000Y-19420000D03*
D13*
X271055000Y-20320000D03*
D14*
X271055000Y-19420000D03*
D13*
X268515000Y-20320000D03*
D14*
X268515000Y-19420000D03*
D15*
X265975000Y-20320000D03*
D14*
X265975000Y-19420000D03*
D13*
X263435000Y-20320000D03*
D14*
X263435000Y-19420000D03*
D13*
X260895000Y-20320000D03*
D14*
X260895000Y-19420000D03*
D13*
X258355000Y-20320000D03*
D14*
X258355000Y-19420000D03*
D13*
X255815000Y-20320000D03*
D14*
X255815000Y-19420000D03*
D15*
X253275000Y-20320000D03*
D14*
X253275000Y-19420000D03*
D13*
X250735000Y-20320000D03*
D14*
X250735000Y-19420000D03*
D13*
X248195000Y-20320000D03*
D14*
X248195000Y-19420000D03*
D13*
X245655000Y-20320000D03*
D14*
X245655000Y-19420000D03*
D13*
X243115000Y-20320000D03*
D14*
X243115000Y-19420000D03*
D15*
X240575000Y-20320000D03*
D14*
X240575000Y-19420000D03*
D13*
X238035000Y-20320000D03*
D14*
X238035000Y-19420000D03*
D13*
X235495000Y-20320000D03*
D14*
X235495000Y-19420000D03*
D13*
X235495000Y-38100000D03*
D14*
X235495000Y-39000000D03*
D13*
X238035000Y-38100000D03*
D14*
X238035000Y-39000000D03*
D15*
X240575000Y-38100000D03*
D14*
X240575000Y-39000000D03*
D13*
X243115000Y-38100000D03*
D14*
X243115000Y-39000000D03*
D13*
X245655000Y-38100000D03*
D14*
X245655000Y-39000000D03*
D13*
X248195000Y-38100000D03*
D14*
X248195000Y-39000000D03*
D13*
X250735000Y-38100000D03*
D14*
X250735000Y-39000000D03*
D15*
X253275000Y-38100000D03*
D14*
X253275000Y-39000000D03*
D13*
X255815000Y-38100000D03*
D14*
X255815000Y-39000000D03*
D13*
X258355000Y-38100000D03*
D14*
X258355000Y-39000000D03*
D13*
X260895000Y-38100000D03*
D14*
X260895000Y-39000000D03*
D13*
X263435000Y-38100000D03*
D14*
X263435000Y-39000000D03*
D15*
X265975000Y-38100000D03*
D14*
X265975000Y-39000000D03*
D13*
X268515000Y-38100000D03*
D14*
X268515000Y-39000000D03*
D13*
X271055000Y-38100000D03*
D14*
X271055000Y-39000000D03*
D13*
X273595000Y-38100000D03*
D14*
X273595000Y-39000000D03*
D13*
X276135000Y-38100000D03*
D14*
X276135000Y-39000000D03*
D15*
X278675000Y-38100000D03*
D14*
X278675000Y-39000000D03*
D13*
X281215000Y-38100000D03*
D14*
X281215000Y-39000000D03*
D13*
X283755000Y-38100000D03*
D14*
X283755000Y-39000000D03*
D13*
X235725000Y-26670000D03*
D16*
X234825000Y-26670000D03*
D15*
X235725000Y-29210000D03*
D16*
X234825000Y-29210000D03*
D13*
X235725000Y-31750000D03*
D16*
X234825000Y-31750000D03*
G04 #@! TD*
D17*
G04 #@! TO.C,IDiode1*
X-83452500Y-34375000D03*
D18*
X-91072500Y-34375000D03*
G04 #@! TD*
D17*
G04 #@! TO.C,>.Diode1*
X-72682500Y18875000D03*
D18*
X-80302500Y18875000D03*
G04 #@! TD*
D17*
G04 #@! TO.C,[{Diode1*
X-104992500Y-16625000D03*
D18*
X-112612500Y-16625000D03*
G04 #@! TD*
D17*
G04 #@! TO.C,`~Diode1*
X-104992500Y-27275000D03*
D18*
X-112612500Y-27275000D03*
G04 #@! TD*
D17*
G04 #@! TO.C,NDiode1*
X-94222500Y1125000D03*
D18*
X-101842500Y1125000D03*
G04 #@! TD*
D17*
G04 #@! TO.C,=+Diode1*
X-61912500Y-34375000D03*
D18*
X-69532500Y-34375000D03*
G04 #@! TD*
D17*
G04 #@! TO.C,UDiode1*
X-104992500Y8225000D03*
D18*
X-112612500Y8225000D03*
G04 #@! TD*
D17*
G04 #@! TO.C,SpaceDiode1*
X-104992500Y18875000D03*
D18*
X-112612500Y18875000D03*
G04 #@! TD*
D17*
G04 #@! TO.C,QDiode1*
X-94222500Y-16625000D03*
D18*
X-101842500Y-16625000D03*
G04 #@! TD*
D17*
G04 #@! TO.C,1!Diode1*
X-61912500Y4675000D03*
D18*
X-69532500Y4675000D03*
G04 #@! TD*
D17*
G04 #@! TO.C,0)Diode1*
X-61912500Y8225000D03*
D18*
X-69532500Y8225000D03*
G04 #@! TD*
D17*
G04 #@! TO.C,PDiode1*
X-94222500Y-13075000D03*
D18*
X-101842500Y-13075000D03*
G04 #@! TD*
D17*
G04 #@! TO.C,5\u0025Diode1*
X-61912500Y-9525000D03*
D18*
X-69532500Y-9525000D03*
G04 #@! TD*
D17*
G04 #@! TO.C,SDiode1*
X-94222500Y-27275000D03*
D18*
X-101842500Y-27275000D03*
G04 #@! TD*
D17*
G04 #@! TO.C,EnterDiode1*
X-72682500Y-27275000D03*
D18*
X-80302500Y-27275000D03*
G04 #@! TD*
D17*
G04 #@! TO.C,BackspaceDiode1*
X-72682500Y8225000D03*
D18*
X-80302500Y8225000D03*
G04 #@! TD*
D17*
G04 #@! TO.C,F9Diode1*
X-83452500Y-16625000D03*
D18*
X-91072500Y-16625000D03*
G04 #@! TD*
D17*
G04 #@! TO.C,EDiode1*
X-72682500Y-23725000D03*
D18*
X-80302500Y-23725000D03*
G04 #@! TD*
D17*
G04 #@! TO.C,ControlDiode1*
X-72682500Y-9525000D03*
D18*
X-80302500Y-9525000D03*
G04 #@! TD*
D17*
G04 #@! TO.C,ShiftDiode2*
X-94222500Y-34375000D03*
D18*
X-101842500Y-34375000D03*
G04 #@! TD*
D17*
G04 #@! TO.C,F10Diode1*
X-72682500Y-34375000D03*
D18*
X-80302500Y-34375000D03*
G04 #@! TD*
D17*
G04 #@! TO.C,F3Diode1*
X-83452500Y4675000D03*
D18*
X-91072500Y4675000D03*
G04 #@! TD*
D17*
G04 #@! TO.C,EscDiode1*
X-72682500Y-30825000D03*
D18*
X-80302500Y-30825000D03*
G04 #@! TD*
D17*
G04 #@! TO.C,HDiode1*
X-83452500Y-30825000D03*
D18*
X-91072500Y-30825000D03*
G04 #@! TD*
D17*
G04 #@! TO.C,LDiode1*
X-94222500Y11775000D03*
D18*
X-101842500Y11775000D03*
G04 #@! TD*
D17*
G04 #@! TO.C,VDiode1*
X-104992500Y1125000D03*
D18*
X-112612500Y1125000D03*
G04 #@! TD*
D17*
G04 #@! TO.C,F6Diode1*
X-83452500Y-5975000D03*
D18*
X-91072500Y-5975000D03*
G04 #@! TD*
D17*
G04 #@! TO.C,KDiode1*
X-94222500Y15325000D03*
D18*
X-101842500Y15325000D03*
G04 #@! TD*
D17*
G04 #@! TO.C,TDiode1*
X-104992500Y15325000D03*
D18*
X-112612500Y15325000D03*
G04 #@! TD*
D17*
G04 #@! TO.C,MDiode1*
X-94222500Y4675000D03*
D18*
X-101842500Y4675000D03*
G04 #@! TD*
D17*
G04 #@! TO.C,F1Diode1*
X-83452500Y11775000D03*
D18*
X-91072500Y11775000D03*
G04 #@! TD*
D17*
G04 #@! TO.C,FnDiode1*
X-83452500Y-23725000D03*
D18*
X-91072500Y-23725000D03*
G04 #@! TD*
D17*
G04 #@! TO.C,F7Diode1*
X-83452500Y-9525000D03*
D18*
X-91072500Y-9525000D03*
G04 #@! TD*
D17*
G04 #@! TO.C,XDiode1*
X-104992500Y-5975000D03*
D18*
X-112612500Y-5975000D03*
G04 #@! TD*
D17*
G04 #@! TO.C,WDiode1*
X-104992500Y-2425000D03*
D18*
X-112612500Y-2425000D03*
G04 #@! TD*
D17*
G04 #@! TO.C,DDiode1*
X-72682500Y-13075000D03*
D18*
X-80302500Y-13075000D03*
G04 #@! TD*
D17*
G04 #@! TO.C,9(Diode1*
X-61912500Y-23725000D03*
D18*
X-69532500Y-23725000D03*
G04 #@! TD*
D17*
G04 #@! TO.C,3#Diode1*
X-61912500Y-2425000D03*
D18*
X-69532500Y-2425000D03*
G04 #@! TD*
D17*
G04 #@! TO.C,6^Diode1*
X-61912500Y-13075000D03*
D18*
X-69532500Y-13075000D03*
G04 #@! TD*
D17*
G04 #@! TO.C,2@Diode1*
X-61912500Y1125000D03*
D18*
X-69532500Y1125000D03*
G04 #@! TD*
D17*
G04 #@! TO.C,F4Diode1*
X-83452500Y1125000D03*
D18*
X-91072500Y1125000D03*
G04 #@! TD*
D17*
G04 #@! TO.C,F12Diode1*
X-83452500Y15325000D03*
D18*
X-91072500Y15325000D03*
G04 #@! TD*
D17*
G04 #@! TO.C,F5Diode1*
X-83452500Y-2425000D03*
D18*
X-91072500Y-2425000D03*
G04 #@! TD*
D17*
G04 #@! TO.C,8\u002ADiode1*
X-61912500Y-20175000D03*
D18*
X-69532500Y-20175000D03*
G04 #@! TD*
D17*
G04 #@! TO.C,/?Diode1*
X-61912500Y11775000D03*
D18*
X-69532500Y11775000D03*
G04 #@! TD*
D17*
G04 #@! TO.C,CmdDiode1*
X-72682500Y-2425000D03*
D18*
X-80302500Y-2425000D03*
G04 #@! TD*
D17*
G04 #@! TO.C,CapsLockDiode1*
X-72682500Y1125000D03*
D18*
X-80302500Y1125000D03*
G04 #@! TD*
D17*
G04 #@! TO.C,DownDiode1*
X-72682500Y-20175000D03*
D18*
X-80302500Y-20175000D03*
G04 #@! TD*
D17*
G04 #@! TO.C,LeftDiode1*
X-94222500Y8225000D03*
D18*
X-101842500Y8225000D03*
G04 #@! TD*
D17*
G04 #@! TO.C,F11Diode1*
X-83452500Y18875000D03*
D18*
X-91072500Y18875000D03*
G04 #@! TD*
D17*
G04 #@! TO.C,UpDiode1*
X-104992500Y4675000D03*
D18*
X-112612500Y4675000D03*
G04 #@! TD*
D17*
G04 #@! TO.C,DelDiode1*
X-72682500Y-16625000D03*
D18*
X-80302500Y-16625000D03*
G04 #@! TD*
D17*
G04 #@! TO.C,OptionDiode1*
X-94222500Y-5975000D03*
D18*
X-101842500Y-5975000D03*
G04 #@! TD*
D17*
G04 #@! TO.C,ODiode1*
X-94222500Y-2425000D03*
D18*
X-101842500Y-2425000D03*
G04 #@! TD*
D17*
G04 #@! TO.C,TabDiode1*
X-104992500Y11775000D03*
D18*
X-112612500Y11775000D03*
G04 #@! TD*
D17*
G04 #@! TO.C,ADiode1*
X-72682500Y15325000D03*
D18*
X-80302500Y15325000D03*
G04 #@! TD*
D17*
G04 #@! TO.C,4$Diode1*
X-61912500Y-5975000D03*
D18*
X-69532500Y-5975000D03*
G04 #@! TD*
D17*
G04 #@! TO.C,F2Diode1*
X-83452500Y8225000D03*
D18*
X-91072500Y8225000D03*
G04 #@! TD*
D17*
G04 #@! TO.C,RDiode1*
X-94222500Y-20175000D03*
D18*
X-101842500Y-20175000D03*
G04 #@! TD*
D17*
G04 #@! TO.C,'"Diode1*
X-61912500Y18875000D03*
D18*
X-69532500Y18875000D03*
G04 #@! TD*
D17*
G04 #@! TO.C,YDiode1*
X-104992500Y-9525000D03*
D18*
X-112612500Y-9525000D03*
G04 #@! TD*
D17*
G04 #@! TO.C,GDiode1*
X-83452500Y-27275000D03*
D18*
X-91072500Y-27275000D03*
G04 #@! TD*
D17*
G04 #@! TO.C,<\u002CDiode1*
X-61912500Y-30825000D03*
D18*
X-69532500Y-30825000D03*
G04 #@! TD*
D17*
G04 #@! TO.C,ZDiode1*
X-104992500Y-13075000D03*
D18*
X-112612500Y-13075000D03*
G04 #@! TD*
D17*
G04 #@! TO.C,JDiode1*
X-94222500Y18875000D03*
D18*
X-101842500Y18875000D03*
G04 #@! TD*
D17*
G04 #@! TO.C,F8Diode1*
X-83452500Y-13075000D03*
D18*
X-91072500Y-13075000D03*
G04 #@! TD*
D17*
G04 #@! TO.C,ShiftDiode1*
X-94222500Y-30825000D03*
D18*
X-101842500Y-30825000D03*
G04 #@! TD*
D17*
G04 #@! TO.C,7&Diode1*
X-61912500Y-16625000D03*
D18*
X-69532500Y-16625000D03*
G04 #@! TD*
D17*
G04 #@! TO.C,RightDiode1*
X-94222500Y-23725000D03*
D18*
X-101842500Y-23725000D03*
G04 #@! TD*
D17*
G04 #@! TO.C,]}Diode1*
X-104992500Y-23725000D03*
D18*
X-112612500Y-23725000D03*
G04 #@! TD*
D17*
G04 #@! TO.C,FDiode1*
X-83452500Y-20175000D03*
D18*
X-91072500Y-20175000D03*
G04 #@! TD*
D17*
G04 #@! TO.C,;:Diode1*
X-61912500Y-27275000D03*
D18*
X-69532500Y-27275000D03*
G04 #@! TD*
D17*
G04 #@! TO.C,CmdDiode2*
X-72682500Y-5975000D03*
D18*
X-80302500Y-5975000D03*
G04 #@! TD*
D17*
G04 #@! TO.C,OptionDiode2*
X-94222500Y-9525000D03*
D18*
X-101842500Y-9525000D03*
G04 #@! TD*
D17*
G04 #@! TO.C,-_Diode1*
X-61912500Y15325000D03*
D18*
X-69532500Y15325000D03*
G04 #@! TD*
D17*
G04 #@! TO.C,BDiode1*
X-72682500Y11775000D03*
D18*
X-80302500Y11775000D03*
G04 #@! TD*
D17*
G04 #@! TO.C,CDiode1*
X-72682500Y4675000D03*
D18*
X-80302500Y4675000D03*
G04 #@! TD*
D17*
G04 #@! TO.C,\u005C|Diode1*
X-104992500Y-20175000D03*
D18*
X-112612500Y-20175000D03*
G04 #@! TD*
M02*
