G04 #@! TF.GenerationSoftware,KiCad,Pcbnew,8.0.8*
G04 #@! TF.CreationDate,2025-06-07T08:47:10+08:00*
G04 #@! TF.ProjectId,magic-keys,6d616769-632d-46b6-9579-732e6b696361,rev?*
G04 #@! TF.SameCoordinates,Original*
G04 #@! TF.FileFunction,Copper,L1,Top*
G04 #@! TF.FilePolarity,Positive*
%FSLAX46Y46*%
G04 Gerber Fmt 4.6, Leading zero omitted, Abs format (unit mm)*
G04 Created by KiCad (PCBNEW 8.0.8) date 2025-06-07 08:47:10*
%MOMM*%
%LPD*%
G01*
G04 APERTURE LIST*
G04 #@! TA.AperFunction,ComponentPad*
%ADD10O,1.700000X1.700000*%
G04 #@! TD*
G04 #@! TA.AperFunction,SMDPad,CuDef*
%ADD11R,1.700000X3.500000*%
G04 #@! TD*
G04 #@! TA.AperFunction,ComponentPad*
%ADD12R,1.700000X1.700000*%
G04 #@! TD*
G04 #@! TA.AperFunction,SMDPad,CuDef*
%ADD13R,3.500000X1.700000*%
G04 #@! TD*
G04 #@! TA.AperFunction,ComponentPad*
%ADD14R,1.600000X1.600000*%
G04 #@! TD*
G04 #@! TA.AperFunction,ComponentPad*
%ADD15O,1.600000X1.600000*%
G04 #@! TD*
G04 APERTURE END LIST*
D10*
G04 #@! TO.P,U1,1,GPIO0*
G04 #@! TO.N,Column 0*
X283755000Y-20320000D03*
D11*
X283755000Y-19420000D03*
D10*
G04 #@! TO.P,U1,2,GPIO1*
G04 #@! TO.N,Column 1*
X281215000Y-20320000D03*
D11*
X281215000Y-19420000D03*
D12*
G04 #@! TO.P,U1,3,GND*
G04 #@! TO.N,unconnected-(U1-GND-Pad3)*
X278675000Y-20320000D03*
D11*
X278675000Y-19420000D03*
D10*
G04 #@! TO.P,U1,4,GPIO2*
G04 #@! TO.N,Column 2*
X276135000Y-20320000D03*
D11*
X276135000Y-19420000D03*
D10*
G04 #@! TO.P,U1,5,GPIO3*
G04 #@! TO.N,Column 3*
X273595000Y-20320000D03*
D11*
X273595000Y-19420000D03*
D10*
G04 #@! TO.P,U1,6,GPIO4*
G04 #@! TO.N,Column 4*
X271055000Y-20320000D03*
D11*
X271055000Y-19420000D03*
D10*
G04 #@! TO.P,U1,7,GPIO5*
G04 #@! TO.N,Column 5*
X268515000Y-20320000D03*
D11*
X268515000Y-19420000D03*
D12*
G04 #@! TO.P,U1,8,GND*
G04 #@! TO.N,unconnected-(U1-GND-Pad8)*
X265975000Y-20320000D03*
D11*
X265975000Y-19420000D03*
D10*
G04 #@! TO.P,U1,9,GPIO6*
G04 #@! TO.N,Column 6*
X263435000Y-20320000D03*
D11*
X263435000Y-19420000D03*
D10*
G04 #@! TO.P,U1,10,GPIO7*
G04 #@! TO.N,Column 7*
X260895000Y-20320000D03*
D11*
X260895000Y-19420000D03*
D10*
G04 #@! TO.P,U1,11,GPIO8*
G04 #@! TO.N,Column 8*
X258355000Y-20320000D03*
D11*
X258355000Y-19420000D03*
D10*
G04 #@! TO.P,U1,12,GPIO9*
G04 #@! TO.N,Column 9*
X255815000Y-20320000D03*
D11*
X255815000Y-19420000D03*
D12*
G04 #@! TO.P,U1,13,GND*
G04 #@! TO.N,unconnected-(U1-GND-Pad13)*
X253275000Y-20320000D03*
D11*
X253275000Y-19420000D03*
D10*
G04 #@! TO.P,U1,14,GPIO10*
G04 #@! TO.N,Column 10*
X250735000Y-20320000D03*
D11*
X250735000Y-19420000D03*
D10*
G04 #@! TO.P,U1,15,GPIO11*
G04 #@! TO.N,Column 11*
X248195000Y-20320000D03*
D11*
X248195000Y-19420000D03*
D10*
G04 #@! TO.P,U1,16,GPIO12*
G04 #@! TO.N,Column 12*
X245655000Y-20320000D03*
D11*
X245655000Y-19420000D03*
D10*
G04 #@! TO.P,U1,17,GPIO13*
G04 #@! TO.N,Column 13*
X243115000Y-20320000D03*
D11*
X243115000Y-19420000D03*
D12*
G04 #@! TO.P,U1,18,GND*
G04 #@! TO.N,unconnected-(U1-GND-Pad18)*
X240575000Y-20320000D03*
D11*
X240575000Y-19420000D03*
D10*
G04 #@! TO.P,U1,19,GPIO14*
G04 #@! TO.N,Row 0*
X238035000Y-20320000D03*
D11*
X238035000Y-19420000D03*
D10*
G04 #@! TO.P,U1,20,GPIO15*
G04 #@! TO.N,Row 1*
X235495000Y-20320000D03*
D11*
X235495000Y-19420000D03*
D10*
G04 #@! TO.P,U1,21,GPIO16*
G04 #@! TO.N,Row 2*
X235495000Y-38100000D03*
D11*
X235495000Y-39000000D03*
D10*
G04 #@! TO.P,U1,22,GPIO17*
G04 #@! TO.N,Row 3*
X238035000Y-38100000D03*
D11*
X238035000Y-39000000D03*
D12*
G04 #@! TO.P,U1,23,GND*
G04 #@! TO.N,unconnected-(U1-GND-Pad23)*
X240575000Y-38100000D03*
D11*
X240575000Y-39000000D03*
D10*
G04 #@! TO.P,U1,24,GPIO18*
G04 #@! TO.N,Column 6*
X243115000Y-38100000D03*
D11*
X243115000Y-39000000D03*
D10*
G04 #@! TO.P,U1,25,GPIO19*
G04 #@! TO.N,Row 5*
X245655000Y-38100000D03*
D11*
X245655000Y-39000000D03*
D10*
G04 #@! TO.P,U1,26,GPIO20*
G04 #@! TO.N,unconnected-(U1-GPIO20-Pad26)*
X248195000Y-38100000D03*
D11*
X248195000Y-39000000D03*
D10*
G04 #@! TO.P,U1,27,GPIO21*
G04 #@! TO.N,unconnected-(U1-GPIO21-Pad27)*
X250735000Y-38100000D03*
D11*
X250735000Y-39000000D03*
D12*
G04 #@! TO.P,U1,28,GND*
G04 #@! TO.N,unconnected-(U1-GND-Pad28)*
X253275000Y-38100000D03*
D11*
X253275000Y-39000000D03*
D10*
G04 #@! TO.P,U1,29,GPIO22*
G04 #@! TO.N,unconnected-(U1-GPIO22-Pad29)*
X255815000Y-38100000D03*
D11*
X255815000Y-39000000D03*
D10*
G04 #@! TO.P,U1,30,RUN*
G04 #@! TO.N,unconnected-(U1-RUN-Pad30)*
X258355000Y-38100000D03*
D11*
X258355000Y-39000000D03*
D10*
G04 #@! TO.P,U1,31,GPIO26_ADC0*
G04 #@! TO.N,unconnected-(U1-GPIO26_ADC0-Pad31)*
X260895000Y-38100000D03*
D11*
X260895000Y-39000000D03*
D10*
G04 #@! TO.P,U1,32,GPIO27_ADC1*
G04 #@! TO.N,unconnected-(U1-GPIO27_ADC1-Pad32)*
X263435000Y-38100000D03*
D11*
X263435000Y-39000000D03*
D12*
G04 #@! TO.P,U1,33,AGND*
G04 #@! TO.N,unconnected-(U1-AGND-Pad33)*
X265975000Y-38100000D03*
D11*
X265975000Y-39000000D03*
D10*
G04 #@! TO.P,U1,34,GPIO28_ADC2*
G04 #@! TO.N,unconnected-(U1-GPIO28_ADC2-Pad34)*
X268515000Y-38100000D03*
D11*
X268515000Y-39000000D03*
D10*
G04 #@! TO.P,U1,35,ADC_VREF*
G04 #@! TO.N,unconnected-(U1-ADC_VREF-Pad35)*
X271055000Y-38100000D03*
D11*
X271055000Y-39000000D03*
D10*
G04 #@! TO.P,U1,36,3V3*
G04 #@! TO.N,unconnected-(U1-3V3-Pad36)*
X273595000Y-38100000D03*
D11*
X273595000Y-39000000D03*
D10*
G04 #@! TO.P,U1,37,3V3_EN*
G04 #@! TO.N,unconnected-(U1-3V3_EN-Pad37)*
X276135000Y-38100000D03*
D11*
X276135000Y-39000000D03*
D12*
G04 #@! TO.P,U1,38,GND*
G04 #@! TO.N,unconnected-(U1-GND-Pad38)*
X278675000Y-38100000D03*
D11*
X278675000Y-39000000D03*
D10*
G04 #@! TO.P,U1,39,VSYS*
G04 #@! TO.N,unconnected-(U1-VSYS-Pad39)*
X281215000Y-38100000D03*
D11*
X281215000Y-39000000D03*
D10*
G04 #@! TO.P,U1,40,VBUS*
G04 #@! TO.N,unconnected-(U1-VBUS-Pad40)*
X283755000Y-38100000D03*
D11*
X283755000Y-39000000D03*
D10*
G04 #@! TO.P,U1,41,SWCLK*
G04 #@! TO.N,unconnected-(U1-SWCLK-Pad41)*
X235725000Y-26670000D03*
D13*
X234825000Y-26670000D03*
D12*
G04 #@! TO.P,U1,42,GND*
G04 #@! TO.N,unconnected-(U1-GND-Pad42)*
X235725000Y-29210000D03*
D13*
X234825000Y-29210000D03*
D10*
G04 #@! TO.P,U1,43,SWDIO*
G04 #@! TO.N,unconnected-(U1-SWDIO-Pad43)*
X235725000Y-31750000D03*
D13*
X234825000Y-31750000D03*
G04 #@! TD*
D14*
G04 #@! TO.P,IDiode1,1,K*
G04 #@! TO.N,Row 2*
X-83452500Y-34375000D03*
D15*
G04 #@! TO.P,IDiode1,2,A*
G04 #@! TO.N,Net-(IDiode1-A)*
X-91072500Y-34375000D03*
G04 #@! TD*
D14*
G04 #@! TO.P,>.Diode1,1,K*
G04 #@! TO.N,Column 6*
X-72682500Y18875000D03*
D15*
G04 #@! TO.P,>.Diode1,2,A*
G04 #@! TO.N,Net-(>.Diode1-A)*
X-80302500Y18875000D03*
G04 #@! TD*
D14*
G04 #@! TO.P,[{Diode1,1,K*
G04 #@! TO.N,Row 2*
X-104992500Y-16625000D03*
D15*
G04 #@! TO.P,[{Diode1,2,A*
G04 #@! TO.N,Net-([{Diode1-A)*
X-112612500Y-16625000D03*
G04 #@! TD*
D14*
G04 #@! TO.P,`~Diode1,1,K*
G04 #@! TO.N,Row 1*
X-104992500Y-27275000D03*
D15*
G04 #@! TO.P,`~Diode1,2,A*
G04 #@! TO.N,Net-(`~Diode1-A)*
X-112612500Y-27275000D03*
G04 #@! TD*
D14*
G04 #@! TO.P,NDiode1,1,K*
G04 #@! TO.N,Column 6*
X-94222500Y1125000D03*
D15*
G04 #@! TO.P,NDiode1,2,A*
G04 #@! TO.N,Net-(NDiode1-A)*
X-101842500Y1125000D03*
G04 #@! TD*
D14*
G04 #@! TO.P,=+Diode1,1,K*
G04 #@! TO.N,Row 1*
X-61912500Y-34375000D03*
D15*
G04 #@! TO.P,=+Diode1,2,A*
G04 #@! TO.N,Net-(=+Diode1-A)*
X-69532500Y-34375000D03*
G04 #@! TD*
D14*
G04 #@! TO.P,UDiode1,1,K*
G04 #@! TO.N,Row 2*
X-104992500Y8225000D03*
D15*
G04 #@! TO.P,UDiode1,2,A*
G04 #@! TO.N,Net-(UDiode1-A)*
X-112612500Y8225000D03*
G04 #@! TD*
D14*
G04 #@! TO.P,SpaceDiode1,1,K*
G04 #@! TO.N,Row 5*
X-104992500Y18875000D03*
D15*
G04 #@! TO.P,SpaceDiode1,2,A*
G04 #@! TO.N,Net-(SpaceDiode1-A)*
X-112612500Y18875000D03*
G04 #@! TD*
D14*
G04 #@! TO.P,QDiode1,1,K*
G04 #@! TO.N,Row 2*
X-94222500Y-16625000D03*
D15*
G04 #@! TO.P,QDiode1,2,A*
G04 #@! TO.N,Net-(QDiode1-A)*
X-101842500Y-16625000D03*
G04 #@! TD*
D14*
G04 #@! TO.P,1!Diode1,1,K*
G04 #@! TO.N,Row 1*
X-61912500Y4675000D03*
D15*
G04 #@! TO.P,1!Diode1,2,A*
G04 #@! TO.N,Net-(1!Diode1-A)*
X-69532500Y4675000D03*
G04 #@! TD*
D14*
G04 #@! TO.P,0)Diode1,1,K*
G04 #@! TO.N,Row 1*
X-61912500Y8225000D03*
D15*
G04 #@! TO.P,0)Diode1,2,A*
G04 #@! TO.N,Net-(0)Diode1-A)*
X-69532500Y8225000D03*
G04 #@! TD*
D14*
G04 #@! TO.P,PDiode1,1,K*
G04 #@! TO.N,Row 2*
X-94222500Y-13075000D03*
D15*
G04 #@! TO.P,PDiode1,2,A*
G04 #@! TO.N,Net-(PDiode1-A)*
X-101842500Y-13075000D03*
G04 #@! TD*
D14*
G04 #@! TO.P,5\u0025Diode1,1,K*
G04 #@! TO.N,Row 1*
X-61912500Y-9525000D03*
D15*
G04 #@! TO.P,5\u0025Diode1,2,A*
G04 #@! TO.N,Net-(5\u0025Diode1-A)*
X-69532500Y-9525000D03*
G04 #@! TD*
D14*
G04 #@! TO.P,SDiode1,1,K*
G04 #@! TO.N,Row 3*
X-94222500Y-27275000D03*
D15*
G04 #@! TO.P,SDiode1,2,A*
G04 #@! TO.N,Net-(SDiode1-A)*
X-101842500Y-27275000D03*
G04 #@! TD*
D14*
G04 #@! TO.P,EnterDiode1,1,K*
G04 #@! TO.N,Row 3*
X-72682500Y-27275000D03*
D15*
G04 #@! TO.P,EnterDiode1,2,A*
G04 #@! TO.N,Net-(EnterDiode1-A)*
X-80302500Y-27275000D03*
G04 #@! TD*
D14*
G04 #@! TO.P,BackspaceDiode1,1,K*
G04 #@! TO.N,Row 1*
X-72682500Y8225000D03*
D15*
G04 #@! TO.P,BackspaceDiode1,2,A*
G04 #@! TO.N,Net-(BackspaceDiode1-A)*
X-80302500Y8225000D03*
G04 #@! TD*
D14*
G04 #@! TO.P,F9Diode1,1,K*
G04 #@! TO.N,Row 0*
X-83452500Y-16625000D03*
D15*
G04 #@! TO.P,F9Diode1,2,A*
G04 #@! TO.N,Net-(F9Diode1-A)*
X-91072500Y-16625000D03*
G04 #@! TD*
D14*
G04 #@! TO.P,EDiode1,1,K*
G04 #@! TO.N,Row 2*
X-72682500Y-23725000D03*
D15*
G04 #@! TO.P,EDiode1,2,A*
G04 #@! TO.N,Net-(EDiode1-A)*
X-80302500Y-23725000D03*
G04 #@! TD*
D14*
G04 #@! TO.P,ControlDiode1,1,K*
G04 #@! TO.N,Row 5*
X-72682500Y-9525000D03*
D15*
G04 #@! TO.P,ControlDiode1,2,A*
G04 #@! TO.N,Net-(ControlDiode1-A)*
X-80302500Y-9525000D03*
G04 #@! TD*
D14*
G04 #@! TO.P,ShiftDiode2,1,K*
G04 #@! TO.N,Column 6*
X-94222500Y-34375000D03*
D15*
G04 #@! TO.P,ShiftDiode2,2,A*
G04 #@! TO.N,Net-(ShiftDiode2-A)*
X-101842500Y-34375000D03*
G04 #@! TD*
D14*
G04 #@! TO.P,F10Diode1,1,K*
G04 #@! TO.N,Row 0*
X-72682500Y-34375000D03*
D15*
G04 #@! TO.P,F10Diode1,2,A*
G04 #@! TO.N,Net-(F10Diode1-A)*
X-80302500Y-34375000D03*
G04 #@! TD*
D14*
G04 #@! TO.P,F3Diode1,1,K*
G04 #@! TO.N,Row 0*
X-83452500Y4675000D03*
D15*
G04 #@! TO.P,F3Diode1,2,A*
G04 #@! TO.N,Net-(F3Diode1-A)*
X-91072500Y4675000D03*
G04 #@! TD*
D14*
G04 #@! TO.P,EscDiode1,1,K*
G04 #@! TO.N,Row 0*
X-72682500Y-30825000D03*
D15*
G04 #@! TO.P,EscDiode1,2,A*
G04 #@! TO.N,Net-(EscDiode1-A)*
X-80302500Y-30825000D03*
G04 #@! TD*
D14*
G04 #@! TO.P,HDiode1,1,K*
G04 #@! TO.N,Row 3*
X-83452500Y-30825000D03*
D15*
G04 #@! TO.P,HDiode1,2,A*
G04 #@! TO.N,Net-(HDiode1-A)*
X-91072500Y-30825000D03*
G04 #@! TD*
D14*
G04 #@! TO.P,LDiode1,1,K*
G04 #@! TO.N,Row 3*
X-94222500Y11775000D03*
D15*
G04 #@! TO.P,LDiode1,2,A*
G04 #@! TO.N,Net-(LDiode1-A)*
X-101842500Y11775000D03*
G04 #@! TD*
D14*
G04 #@! TO.P,VDiode1,1,K*
G04 #@! TO.N,Column 6*
X-104992500Y1125000D03*
D15*
G04 #@! TO.P,VDiode1,2,A*
G04 #@! TO.N,Net-(VDiode1-A)*
X-112612500Y1125000D03*
G04 #@! TD*
D14*
G04 #@! TO.P,F6Diode1,1,K*
G04 #@! TO.N,Row 0*
X-83452500Y-5975000D03*
D15*
G04 #@! TO.P,F6Diode1,2,A*
G04 #@! TO.N,Net-(F6Diode1-A)*
X-91072500Y-5975000D03*
G04 #@! TD*
D14*
G04 #@! TO.P,KDiode1,1,K*
G04 #@! TO.N,Row 3*
X-94222500Y15325000D03*
D15*
G04 #@! TO.P,KDiode1,2,A*
G04 #@! TO.N,Net-(KDiode1-A)*
X-101842500Y15325000D03*
G04 #@! TD*
D14*
G04 #@! TO.P,TDiode1,1,K*
G04 #@! TO.N,Row 2*
X-104992500Y15325000D03*
D15*
G04 #@! TO.P,TDiode1,2,A*
G04 #@! TO.N,Net-(TDiode1-A)*
X-112612500Y15325000D03*
G04 #@! TD*
D14*
G04 #@! TO.P,MDiode1,1,K*
G04 #@! TO.N,Column 6*
X-94222500Y4675000D03*
D15*
G04 #@! TO.P,MDiode1,2,A*
G04 #@! TO.N,Net-(MDiode1-A)*
X-101842500Y4675000D03*
G04 #@! TD*
D14*
G04 #@! TO.P,F1Diode1,1,K*
G04 #@! TO.N,Row 0*
X-83452500Y11775000D03*
D15*
G04 #@! TO.P,F1Diode1,2,A*
G04 #@! TO.N,Net-(F1Diode1-A)*
X-91072500Y11775000D03*
G04 #@! TD*
D14*
G04 #@! TO.P,FnDiode1,1,K*
G04 #@! TO.N,Row 5*
X-83452500Y-23725000D03*
D15*
G04 #@! TO.P,FnDiode1,2,A*
G04 #@! TO.N,Net-(FnDiode1-A)*
X-91072500Y-23725000D03*
G04 #@! TD*
D14*
G04 #@! TO.P,F7Diode1,1,K*
G04 #@! TO.N,Row 0*
X-83452500Y-9525000D03*
D15*
G04 #@! TO.P,F7Diode1,2,A*
G04 #@! TO.N,Net-(F7Diode1-A)*
X-91072500Y-9525000D03*
G04 #@! TD*
D14*
G04 #@! TO.P,XDiode1,1,K*
G04 #@! TO.N,Column 6*
X-104992500Y-5975000D03*
D15*
G04 #@! TO.P,XDiode1,2,A*
G04 #@! TO.N,Net-(XDiode1-A)*
X-112612500Y-5975000D03*
G04 #@! TD*
D14*
G04 #@! TO.P,WDiode1,1,K*
G04 #@! TO.N,Row 2*
X-104992500Y-2425000D03*
D15*
G04 #@! TO.P,WDiode1,2,A*
G04 #@! TO.N,Net-(WDiode1-A)*
X-112612500Y-2425000D03*
G04 #@! TD*
D14*
G04 #@! TO.P,DDiode1,1,K*
G04 #@! TO.N,Row 3*
X-72682500Y-13075000D03*
D15*
G04 #@! TO.P,DDiode1,2,A*
G04 #@! TO.N,Net-(DDiode1-A)*
X-80302500Y-13075000D03*
G04 #@! TD*
D14*
G04 #@! TO.P,9(Diode1,1,K*
G04 #@! TO.N,Row 1*
X-61912500Y-23725000D03*
D15*
G04 #@! TO.P,9(Diode1,2,A*
G04 #@! TO.N,Net-(9(Diode1-A)*
X-69532500Y-23725000D03*
G04 #@! TD*
D14*
G04 #@! TO.P,3#Diode1,1,K*
G04 #@! TO.N,Row 1*
X-61912500Y-2425000D03*
D15*
G04 #@! TO.P,3#Diode1,2,A*
G04 #@! TO.N,Net-(3#Diode1-A)*
X-69532500Y-2425000D03*
G04 #@! TD*
D14*
G04 #@! TO.P,6^Diode1,1,K*
G04 #@! TO.N,Row 1*
X-61912500Y-13075000D03*
D15*
G04 #@! TO.P,6^Diode1,2,A*
G04 #@! TO.N,Net-(6^Diode1-A)*
X-69532500Y-13075000D03*
G04 #@! TD*
D14*
G04 #@! TO.P,2@Diode1,1,K*
G04 #@! TO.N,Row 1*
X-61912500Y1125000D03*
D15*
G04 #@! TO.P,2@Diode1,2,A*
G04 #@! TO.N,Net-(2@Diode1-A)*
X-69532500Y1125000D03*
G04 #@! TD*
D14*
G04 #@! TO.P,F4Diode1,1,K*
G04 #@! TO.N,Row 0*
X-83452500Y1125000D03*
D15*
G04 #@! TO.P,F4Diode1,2,A*
G04 #@! TO.N,Net-(F4Diode1-A)*
X-91072500Y1125000D03*
G04 #@! TD*
D14*
G04 #@! TO.P,F12Diode1,1,K*
G04 #@! TO.N,Row 0*
X-83452500Y15325000D03*
D15*
G04 #@! TO.P,F12Diode1,2,A*
G04 #@! TO.N,Net-(F12Diode1-A)*
X-91072500Y15325000D03*
G04 #@! TD*
D14*
G04 #@! TO.P,F5Diode1,1,K*
G04 #@! TO.N,Row 0*
X-83452500Y-2425000D03*
D15*
G04 #@! TO.P,F5Diode1,2,A*
G04 #@! TO.N,Net-(F5Diode1-A)*
X-91072500Y-2425000D03*
G04 #@! TD*
D14*
G04 #@! TO.P,8\u002ADiode1,1,K*
G04 #@! TO.N,Row 1*
X-61912500Y-20175000D03*
D15*
G04 #@! TO.P,8\u002ADiode1,2,A*
G04 #@! TO.N,Net-(8\u002ADiode1-A)*
X-69532500Y-20175000D03*
G04 #@! TD*
D14*
G04 #@! TO.P,/?Diode1,1,K*
G04 #@! TO.N,Column 6*
X-61912500Y11775000D03*
D15*
G04 #@! TO.P,/?Diode1,2,A*
G04 #@! TO.N,Net-(/?Diode1-A)*
X-69532500Y11775000D03*
G04 #@! TD*
D14*
G04 #@! TO.P,CmdDiode1,1,K*
G04 #@! TO.N,Row 5*
X-72682500Y-2425000D03*
D15*
G04 #@! TO.P,CmdDiode1,2,A*
G04 #@! TO.N,Net-(CmdDiode1-A)*
X-80302500Y-2425000D03*
G04 #@! TD*
D14*
G04 #@! TO.P,CapsLockDiode1,1,K*
G04 #@! TO.N,Row 3*
X-72682500Y1125000D03*
D15*
G04 #@! TO.P,CapsLockDiode1,2,A*
G04 #@! TO.N,Net-(CapsLockDiode1-A)*
X-80302500Y1125000D03*
G04 #@! TD*
D14*
G04 #@! TO.P,DownDiode1,1,K*
G04 #@! TO.N,Row 5*
X-72682500Y-20175000D03*
D15*
G04 #@! TO.P,DownDiode1,2,A*
G04 #@! TO.N,Net-(DownDiode1-A)*
X-80302500Y-20175000D03*
G04 #@! TD*
D14*
G04 #@! TO.P,LeftDiode1,1,K*
G04 #@! TO.N,Row 5*
X-94222500Y8225000D03*
D15*
G04 #@! TO.P,LeftDiode1,2,A*
G04 #@! TO.N,Net-(LeftDiode1-A)*
X-101842500Y8225000D03*
G04 #@! TD*
D14*
G04 #@! TO.P,F11Diode1,1,K*
G04 #@! TO.N,Row 0*
X-83452500Y18875000D03*
D15*
G04 #@! TO.P,F11Diode1,2,A*
G04 #@! TO.N,Net-(F11Diode1-A)*
X-91072500Y18875000D03*
G04 #@! TD*
D14*
G04 #@! TO.P,UpDiode1,1,K*
G04 #@! TO.N,Row 5*
X-104992500Y4675000D03*
D15*
G04 #@! TO.P,UpDiode1,2,A*
G04 #@! TO.N,Net-(UpDiode1-A)*
X-112612500Y4675000D03*
G04 #@! TD*
D14*
G04 #@! TO.P,DelDiode1,1,K*
G04 #@! TO.N,Row 0*
X-72682500Y-16625000D03*
D15*
G04 #@! TO.P,DelDiode1,2,A*
G04 #@! TO.N,Net-(DelDiode1-A)*
X-80302500Y-16625000D03*
G04 #@! TD*
D14*
G04 #@! TO.P,OptionDiode1,1,K*
G04 #@! TO.N,Row 5*
X-94222500Y-5975000D03*
D15*
G04 #@! TO.P,OptionDiode1,2,A*
G04 #@! TO.N,Net-(OptionDiode1-A)*
X-101842500Y-5975000D03*
G04 #@! TD*
D14*
G04 #@! TO.P,ODiode1,1,K*
G04 #@! TO.N,Row 2*
X-94222500Y-2425000D03*
D15*
G04 #@! TO.P,ODiode1,2,A*
G04 #@! TO.N,Net-(ODiode1-A)*
X-101842500Y-2425000D03*
G04 #@! TD*
D14*
G04 #@! TO.P,TabDiode1,1,K*
G04 #@! TO.N,Row 2*
X-104992500Y11775000D03*
D15*
G04 #@! TO.P,TabDiode1,2,A*
G04 #@! TO.N,Net-(TabDiode1-A)*
X-112612500Y11775000D03*
G04 #@! TD*
D14*
G04 #@! TO.P,ADiode1,1,K*
G04 #@! TO.N,Row 3*
X-72682500Y15325000D03*
D15*
G04 #@! TO.P,ADiode1,2,A*
G04 #@! TO.N,Net-(ADiode1-A)*
X-80302500Y15325000D03*
G04 #@! TD*
D14*
G04 #@! TO.P,4$Diode1,1,K*
G04 #@! TO.N,Row 1*
X-61912500Y-5975000D03*
D15*
G04 #@! TO.P,4$Diode1,2,A*
G04 #@! TO.N,Net-(4$Diode1-A)*
X-69532500Y-5975000D03*
G04 #@! TD*
D14*
G04 #@! TO.P,F2Diode1,1,K*
G04 #@! TO.N,Row 0*
X-83452500Y8225000D03*
D15*
G04 #@! TO.P,F2Diode1,2,A*
G04 #@! TO.N,Net-(F2Diode1-A)*
X-91072500Y8225000D03*
G04 #@! TD*
D14*
G04 #@! TO.P,RDiode1,1,K*
G04 #@! TO.N,Row 2*
X-94222500Y-20175000D03*
D15*
G04 #@! TO.P,RDiode1,2,A*
G04 #@! TO.N,Net-(RDiode1-A)*
X-101842500Y-20175000D03*
G04 #@! TD*
D14*
G04 #@! TO.P,'"Diode1,1,K*
G04 #@! TO.N,Row 3*
X-61912500Y18875000D03*
D15*
G04 #@! TO.P,'"Diode1,2,A*
G04 #@! TO.N,Net-('"Diode1-A)*
X-69532500Y18875000D03*
G04 #@! TD*
D14*
G04 #@! TO.P,YDiode1,1,K*
G04 #@! TO.N,Row 2*
X-104992500Y-9525000D03*
D15*
G04 #@! TO.P,YDiode1,2,A*
G04 #@! TO.N,Net-(YDiode1-A)*
X-112612500Y-9525000D03*
G04 #@! TD*
D14*
G04 #@! TO.P,GDiode1,1,K*
G04 #@! TO.N,Row 3*
X-83452500Y-27275000D03*
D15*
G04 #@! TO.P,GDiode1,2,A*
G04 #@! TO.N,Net-(GDiode1-A)*
X-91072500Y-27275000D03*
G04 #@! TD*
D14*
G04 #@! TO.P,<\u002CDiode1,1,K*
G04 #@! TO.N,Column 6*
X-61912500Y-30825000D03*
D15*
G04 #@! TO.P,<\u002CDiode1,2,A*
G04 #@! TO.N,Net-(<\u002CDiode1-A)*
X-69532500Y-30825000D03*
G04 #@! TD*
D14*
G04 #@! TO.P,ZDiode1,1,K*
G04 #@! TO.N,Column 6*
X-104992500Y-13075000D03*
D15*
G04 #@! TO.P,ZDiode1,2,A*
G04 #@! TO.N,Net-(ZDiode1-A)*
X-112612500Y-13075000D03*
G04 #@! TD*
D14*
G04 #@! TO.P,JDiode1,1,K*
G04 #@! TO.N,Row 3*
X-94222500Y18875000D03*
D15*
G04 #@! TO.P,JDiode1,2,A*
G04 #@! TO.N,Net-(JDiode1-A)*
X-101842500Y18875000D03*
G04 #@! TD*
D14*
G04 #@! TO.P,F8Diode1,1,K*
G04 #@! TO.N,Row 0*
X-83452500Y-13075000D03*
D15*
G04 #@! TO.P,F8Diode1,2,A*
G04 #@! TO.N,Net-(F8Diode1-A)*
X-91072500Y-13075000D03*
G04 #@! TD*
D14*
G04 #@! TO.P,ShiftDiode1,1,K*
G04 #@! TO.N,Column 6*
X-94222500Y-30825000D03*
D15*
G04 #@! TO.P,ShiftDiode1,2,A*
G04 #@! TO.N,Net-(ShiftDiode1-A)*
X-101842500Y-30825000D03*
G04 #@! TD*
D14*
G04 #@! TO.P,7&Diode1,1,K*
G04 #@! TO.N,Row 1*
X-61912500Y-16625000D03*
D15*
G04 #@! TO.P,7&Diode1,2,A*
G04 #@! TO.N,Net-(7&Diode1-A)*
X-69532500Y-16625000D03*
G04 #@! TD*
D14*
G04 #@! TO.P,RightDiode1,1,K*
G04 #@! TO.N,Row 5*
X-94222500Y-23725000D03*
D15*
G04 #@! TO.P,RightDiode1,2,A*
G04 #@! TO.N,Net-(RightDiode1-A)*
X-101842500Y-23725000D03*
G04 #@! TD*
D14*
G04 #@! TO.P,]}Diode1,1,K*
G04 #@! TO.N,Row 2*
X-104992500Y-23725000D03*
D15*
G04 #@! TO.P,]}Diode1,2,A*
G04 #@! TO.N,Net-(]}Diode1-A)*
X-112612500Y-23725000D03*
G04 #@! TD*
D14*
G04 #@! TO.P,FDiode1,1,K*
G04 #@! TO.N,Row 3*
X-83452500Y-20175000D03*
D15*
G04 #@! TO.P,FDiode1,2,A*
G04 #@! TO.N,Net-(FDiode1-A)*
X-91072500Y-20175000D03*
G04 #@! TD*
D14*
G04 #@! TO.P,;:Diode1,1,K*
G04 #@! TO.N,Row 3*
X-61912500Y-27275000D03*
D15*
G04 #@! TO.P,;:Diode1,2,A*
G04 #@! TO.N,Net-(;:Diode1-A)*
X-69532500Y-27275000D03*
G04 #@! TD*
D14*
G04 #@! TO.P,CmdDiode2,1,K*
G04 #@! TO.N,Row 5*
X-72682500Y-5975000D03*
D15*
G04 #@! TO.P,CmdDiode2,2,A*
G04 #@! TO.N,Net-(CmdDiode2-A)*
X-80302500Y-5975000D03*
G04 #@! TD*
D14*
G04 #@! TO.P,OptionDiode2,1,K*
G04 #@! TO.N,Row 5*
X-94222500Y-9525000D03*
D15*
G04 #@! TO.P,OptionDiode2,2,A*
G04 #@! TO.N,Net-(OptionDiode2-A)*
X-101842500Y-9525000D03*
G04 #@! TD*
D14*
G04 #@! TO.P,-_Diode1,1,K*
G04 #@! TO.N,Row 1*
X-61912500Y15325000D03*
D15*
G04 #@! TO.P,-_Diode1,2,A*
G04 #@! TO.N,Net-(-_Diode1-A)*
X-69532500Y15325000D03*
G04 #@! TD*
D14*
G04 #@! TO.P,BDiode1,1,K*
G04 #@! TO.N,Column 6*
X-72682500Y11775000D03*
D15*
G04 #@! TO.P,BDiode1,2,A*
G04 #@! TO.N,Net-(BDiode1-A)*
X-80302500Y11775000D03*
G04 #@! TD*
D14*
G04 #@! TO.P,CDiode1,1,K*
G04 #@! TO.N,Column 6*
X-72682500Y4675000D03*
D15*
G04 #@! TO.P,CDiode1,2,A*
G04 #@! TO.N,Net-(CDiode1-A)*
X-80302500Y4675000D03*
G04 #@! TD*
D14*
G04 #@! TO.P,\u005C|Diode1,1,K*
G04 #@! TO.N,Row 2*
X-104992500Y-20175000D03*
D15*
G04 #@! TO.P,\u005C|Diode1,2,A*
G04 #@! TO.N,Net-(\u005C|Diode1-A)*
X-112612500Y-20175000D03*
G04 #@! TD*
M02*
