%TF.GenerationSoftware,KiCad,Pcbnew,9.0.3*%
%TF.CreationDate,2025-07-30T21:50:27+08:00*%
%TF.ProjectId,magic-keys,6d616769-632d-46b6-9579-732e6b696361,3*%
%TF.SameCoordinates,Original*%
%TF.FileFunction,Soldermask,Bot*%
%TF.FilePolarity,Negative*%
%FSLAX46Y46*%
G04 Gerber Fmt 4.6, Leading zero omitted, Abs format (unit mm)*
G04 Created by KiCad (PCBNEW 9.0.3) date 2025-07-30 21:50:27*
%MOMM*%
%LPD*%
G01*
G04 APERTURE LIST*
G04 Aperture macros list*
%AMRoundRect*
0 Rectangle with rounded corners*
0 $1 Rounding radius*
0 $2 $3 $4 $5 $6 $7 $8 $9 X,Y pos of 4 corners*
0 Add a 4 corners polygon primitive as box body*
4,1,4,$2,$3,$4,$5,$6,$7,$8,$9,$2,$3,0*
0 Add four circle primitives for the rounded corners*
1,1,$1+$1,$2,$3*
1,1,$1+$1,$4,$5*
1,1,$1+$1,$6,$7*
1,1,$1+$1,$8,$9*
0 Add four rect primitives between the rounded corners*
20,1,$1+$1,$2,$3,$4,$5,0*
20,1,$1+$1,$4,$5,$6,$7,0*
20,1,$1+$1,$6,$7,$8,$9,0*
20,1,$1+$1,$8,$9,$2,$3,0*%
G04 Aperture macros list end*
%ADD10C,1.900000*%
%ADD11C,3.050000*%
%ADD12C,3.450000*%
%ADD13RoundRect,0.250000X-1.025000X-1.000000X1.025000X-1.000000X1.025000X1.000000X-1.025000X1.000000X0*%
%ADD14R,1.700000X1.700000*%
%ADD15O,1.700000X1.700000*%
%ADD16C,2.200000*%
%ADD17R,1.600000X1.600000*%
%ADD18O,1.600000X1.600000*%
G04 APERTURE END LIST*
D10*
%TO.C,Up Arrow*%
X251675000Y-152400000D03*
D11*
X257175000Y-146500000D03*
D12*
X257175000Y-152400000D03*
D11*
X262175000Y-148600000D03*
D10*
X262675000Y-152400000D03*
D13*
X253675000Y-146400000D03*
X265675000Y-148600000D03*
%TD*%
D10*
%TO.C,Super/Command*%
X61175000Y-152400000D03*
D11*
X66675000Y-146500000D03*
D12*
X66675000Y-152400000D03*
D11*
X71675000Y-148600000D03*
D10*
X72175000Y-152400000D03*
D13*
X63175000Y-146400000D03*
X75175000Y-148600000D03*
%TD*%
D10*
%TO.C,Blank Delete*%
X251675000Y-57150000D03*
D11*
X257175000Y-51250000D03*
D12*
X257175000Y-57150000D03*
D11*
X262175000Y-53350000D03*
D10*
X262675000Y-57150000D03*
D13*
X253675000Y-51150000D03*
X265675000Y-53350000D03*
%TD*%
D10*
%TO.C,Blank Backspace*%
X251675000Y-76200000D03*
D11*
X257175000Y-70300000D03*
D12*
X257175000Y-76200000D03*
D11*
X262175000Y-72400000D03*
D10*
X262675000Y-76200000D03*
D13*
X253675000Y-70200000D03*
X265675000Y-72400000D03*
%TD*%
D10*
%TO.C,Quotes*%
X227987500Y-114300000D03*
D11*
X233487500Y-108400000D03*
D12*
X233487500Y-114300000D03*
D11*
X238487500Y-110500000D03*
D10*
X238987500Y-114300000D03*
D13*
X229987500Y-108300000D03*
X241987500Y-110500000D03*
%TD*%
D14*
%TO.C,J2*%
X9390000Y-44790000D03*
D15*
X9390000Y-42250000D03*
X9390000Y-39710000D03*
X9390000Y-37170000D03*
%TD*%
D10*
%TO.C,Enter*%
X268468750Y-114300000D03*
D11*
X273968750Y-108400000D03*
D12*
X273968750Y-114300000D03*
D11*
X278968750Y-110500000D03*
D10*
X279468750Y-114300000D03*
D13*
X270468750Y-108300000D03*
X282468750Y-110500000D03*
%TD*%
D10*
%TO.C,Alt/Option*%
X42125000Y-152400000D03*
D11*
X47625000Y-146500000D03*
D12*
X47625000Y-152400000D03*
D11*
X52625000Y-148600000D03*
D10*
X53125000Y-152400000D03*
D13*
X44125000Y-146400000D03*
X56125000Y-148600000D03*
%TD*%
D10*
%TO.C,Q*%
X32312500Y-95250000D03*
D11*
X37812500Y-89350000D03*
D12*
X37812500Y-95250000D03*
D11*
X42812500Y-91450000D03*
D10*
X43312500Y-95250000D03*
D13*
X34312500Y-89250000D03*
X46312500Y-91450000D03*
%TD*%
D10*
%TO.C,Five*%
X99275000Y-76200000D03*
D11*
X104775000Y-70300000D03*
D12*
X104775000Y-76200000D03*
D11*
X109775000Y-72400000D03*
D10*
X110275000Y-76200000D03*
D13*
X101275000Y-70200000D03*
X113275000Y-72400000D03*
%TD*%
D10*
%TO.C,One*%
X23075000Y-76200000D03*
D11*
X28575000Y-70300000D03*
D12*
X28575000Y-76200000D03*
D11*
X33575000Y-72400000D03*
D10*
X34075000Y-76200000D03*
D13*
X25075000Y-70200000D03*
X37075000Y-72400000D03*
%TD*%
D10*
%TO.C,Slash*%
X227862500Y-133350000D03*
D11*
X233362500Y-127450000D03*
D12*
X233362500Y-133350000D03*
D11*
X238362500Y-129550000D03*
D10*
X238862500Y-133350000D03*
D13*
X229862500Y-127350000D03*
X241862500Y-129550000D03*
%TD*%
D10*
%TO.C,Dash*%
X213575000Y-76200000D03*
D11*
X219075000Y-70300000D03*
D12*
X219075000Y-76200000D03*
D11*
X224075000Y-72400000D03*
D10*
X224575000Y-76200000D03*
D13*
X215575000Y-70200000D03*
X227575000Y-72400000D03*
%TD*%
D10*
%TO.C,F*%
X94637500Y-114300000D03*
D11*
X100137500Y-108400000D03*
D12*
X100137500Y-114300000D03*
D11*
X105137500Y-110500000D03*
D10*
X105637500Y-114300000D03*
D13*
X96637500Y-108300000D03*
X108637500Y-110500000D03*
%TD*%
D10*
%TO.C,Control*%
X23075000Y-152400000D03*
D11*
X28575000Y-146500000D03*
D12*
X28575000Y-152400000D03*
D11*
X33575000Y-148600000D03*
D10*
X34075000Y-152400000D03*
D13*
X25075000Y-146400000D03*
X37075000Y-148600000D03*
%TD*%
D10*
%TO.C,S*%
X56537500Y-114300000D03*
D11*
X62037500Y-108400000D03*
D12*
X62037500Y-114300000D03*
D11*
X67037500Y-110500000D03*
D10*
X67537500Y-114300000D03*
D13*
X58537500Y-108300000D03*
X70537500Y-110500000D03*
%TD*%
D10*
%TO.C,F5*%
X99275000Y-57150000D03*
D11*
X104775000Y-51250000D03*
D12*
X104775000Y-57150000D03*
D11*
X109775000Y-53350000D03*
D10*
X110275000Y-57150000D03*
D13*
X101275000Y-51150000D03*
X113275000Y-53350000D03*
%TD*%
D10*
%TO.C,U*%
X146612500Y-95250000D03*
D11*
X152112500Y-89350000D03*
D12*
X152112500Y-95250000D03*
D11*
X157112500Y-91450000D03*
D10*
X157612500Y-95250000D03*
D13*
X148612500Y-89250000D03*
X160612500Y-91450000D03*
%TD*%
D10*
%TO.C,Six*%
X118325000Y-76200000D03*
D11*
X123825000Y-70300000D03*
D12*
X123825000Y-76200000D03*
D11*
X128825000Y-72400000D03*
D10*
X129325000Y-76200000D03*
D13*
X120325000Y-70200000D03*
X132325000Y-72400000D03*
%TD*%
D10*
%TO.C,Super/Command*%
X194525000Y-152400000D03*
D11*
X200025000Y-146500000D03*
D12*
X200025000Y-152400000D03*
D11*
X205025000Y-148600000D03*
D10*
X205525000Y-152400000D03*
D13*
X196525000Y-146400000D03*
X208525000Y-148600000D03*
%TD*%
D10*
%TO.C,H*%
X132737500Y-114300000D03*
D11*
X138237500Y-108400000D03*
D12*
X138237500Y-114300000D03*
D11*
X143237500Y-110500000D03*
D10*
X143737500Y-114300000D03*
D13*
X134737500Y-108300000D03*
X146737500Y-110500000D03*
%TD*%
D16*
%TO.C,REF\u002A\u002A*%
X3500000Y-165500000D03*
%TD*%
D10*
%TO.C,L*%
X189887500Y-114300000D03*
D11*
X195387500Y-108400000D03*
D12*
X195387500Y-114300000D03*
D11*
X200387500Y-110500000D03*
D10*
X200887500Y-114300000D03*
D13*
X191887500Y-108300000D03*
X203887500Y-110500000D03*
%TD*%
D10*
%TO.C,E*%
X70412500Y-95250000D03*
D11*
X75912500Y-89350000D03*
D12*
X75912500Y-95250000D03*
D11*
X80912500Y-91450000D03*
D10*
X81412500Y-95250000D03*
D13*
X72412500Y-89250000D03*
X84412500Y-91450000D03*
%TD*%
D15*
%TO.C,U1*%
X282380000Y-20040000D03*
X279840000Y-20040000D03*
D14*
X277300000Y-20040000D03*
D15*
X274760000Y-20040000D03*
X272220000Y-20040000D03*
X269680000Y-20040000D03*
X267140000Y-20040000D03*
D14*
X264600000Y-20040000D03*
D15*
X262060000Y-20040000D03*
X259520000Y-20040000D03*
X256980000Y-20040000D03*
X254440000Y-20040000D03*
D14*
X251900000Y-20040000D03*
D15*
X249360000Y-20040000D03*
X246820000Y-20040000D03*
X244280000Y-20040000D03*
X241740000Y-20040000D03*
D14*
X239200000Y-20040000D03*
D15*
X236660000Y-20040000D03*
X234120000Y-20040000D03*
X234120000Y-37820000D03*
X236660000Y-37820000D03*
D14*
X239200000Y-37820000D03*
D15*
X241740000Y-37820000D03*
X244280000Y-37820000D03*
X246820000Y-37820000D03*
X249360000Y-37820000D03*
D14*
X251900000Y-37820000D03*
D15*
X254440000Y-37820000D03*
X256980000Y-37820000D03*
X259520000Y-37820000D03*
X262060000Y-37820000D03*
D14*
X264600000Y-37820000D03*
D15*
X267140000Y-37820000D03*
X269680000Y-37820000D03*
X272220000Y-37820000D03*
X274760000Y-37820000D03*
D14*
X277300000Y-37820000D03*
D15*
X279840000Y-37820000D03*
X282380000Y-37820000D03*
X234350000Y-26390000D03*
D14*
X234350000Y-28930000D03*
D15*
X234350000Y-31470000D03*
%TD*%
D10*
%TO.C,F6*%
X118325000Y-57150000D03*
D11*
X123825000Y-51250000D03*
D12*
X123825000Y-57150000D03*
D11*
X128825000Y-53350000D03*
D10*
X129325000Y-57150000D03*
D13*
X120325000Y-51150000D03*
X132325000Y-53350000D03*
%TD*%
D10*
%TO.C,B*%
X132612500Y-133350000D03*
D11*
X138112500Y-127450000D03*
D12*
X138112500Y-133350000D03*
D11*
X143112500Y-129550000D03*
D10*
X143612500Y-133350000D03*
D13*
X134612500Y-127350000D03*
X146612500Y-129550000D03*
%TD*%
D10*
%TO.C,Blank Enter*%
X247037500Y-114300000D03*
D11*
X252537500Y-108400000D03*
D12*
X252537500Y-114300000D03*
D11*
X257537500Y-110500000D03*
D10*
X258037500Y-114300000D03*
D13*
X249037500Y-108300000D03*
X261037500Y-110500000D03*
%TD*%
D10*
%TO.C,Left Arrow*%
X213575000Y-152400000D03*
D11*
X219075000Y-146500000D03*
D12*
X219075000Y-152400000D03*
D11*
X224075000Y-148600000D03*
D10*
X224575000Y-152400000D03*
D13*
X215575000Y-146400000D03*
X227575000Y-148600000D03*
%TD*%
D10*
%TO.C,Shift*%
X6300000Y-132900000D03*
D11*
X11800000Y-127000000D03*
D12*
X11800000Y-132900000D03*
D11*
X16800000Y-129100000D03*
D10*
X17300000Y-132900000D03*
D13*
X8300000Y-126900000D03*
X20300000Y-129100000D03*
%TD*%
D10*
%TO.C,M*%
X170712500Y-133350000D03*
D11*
X176212500Y-127450000D03*
D12*
X176212500Y-133350000D03*
D11*
X181212500Y-129550000D03*
D10*
X181712500Y-133350000D03*
D13*
X172712500Y-127350000D03*
X184712500Y-129550000D03*
%TD*%
D10*
%TO.C,Semi-Colon*%
X208937500Y-114300000D03*
D11*
X214437500Y-108400000D03*
D12*
X214437500Y-114300000D03*
D11*
X219437500Y-110500000D03*
D10*
X219937500Y-114300000D03*
D13*
X210937500Y-108300000D03*
X222937500Y-110500000D03*
%TD*%
D10*
%TO.C,N*%
X151662500Y-133350000D03*
D11*
X157162500Y-127450000D03*
D12*
X157162500Y-133350000D03*
D11*
X162162500Y-129550000D03*
D10*
X162662500Y-133350000D03*
D13*
X153662500Y-127350000D03*
X165662500Y-129550000D03*
%TD*%
D10*
%TO.C,Space*%
X142137500Y-152400000D03*
D11*
X147637500Y-146500000D03*
D12*
X147637500Y-152400000D03*
D11*
X152637500Y-148600000D03*
D10*
X153137500Y-152400000D03*
D13*
X144137500Y-146400000D03*
X156137500Y-148600000D03*
%TD*%
D10*
%TO.C,F10*%
X194525000Y-57150000D03*
D11*
X200025000Y-51250000D03*
D12*
X200025000Y-57150000D03*
D11*
X205025000Y-53350000D03*
D10*
X205525000Y-57150000D03*
D13*
X196525000Y-51150000D03*
X208525000Y-53350000D03*
%TD*%
D16*
%TO.C,REF\u002A\u002A*%
X221000000Y-14000000D03*
%TD*%
D10*
%TO.C,P*%
X203762500Y-95250000D03*
D11*
X209262500Y-89350000D03*
D12*
X209262500Y-95250000D03*
D11*
X214262500Y-91450000D03*
D10*
X214762500Y-95250000D03*
D13*
X205762500Y-89250000D03*
X217762500Y-91450000D03*
%TD*%
D10*
%TO.C,F1*%
X23075000Y-57150000D03*
D11*
X28575000Y-51250000D03*
D12*
X28575000Y-57150000D03*
D11*
X33575000Y-53350000D03*
D10*
X34075000Y-57150000D03*
D13*
X25075000Y-51150000D03*
X37075000Y-53350000D03*
%TD*%
D10*
%TO.C,K*%
X170837500Y-114300000D03*
D11*
X176337500Y-108400000D03*
D12*
X176337500Y-114300000D03*
D11*
X181337500Y-110500000D03*
D10*
X181837500Y-114300000D03*
D13*
X172837500Y-108300000D03*
X184837500Y-110500000D03*
%TD*%
D10*
%TO.C,Seven*%
X137375000Y-76200000D03*
D11*
X142875000Y-70300000D03*
D12*
X142875000Y-76200000D03*
D11*
X147875000Y-72400000D03*
D10*
X148375000Y-76200000D03*
D13*
X139375000Y-70200000D03*
X151375000Y-72400000D03*
%TD*%
D10*
%TO.C,Chevron*%
X189762500Y-133350000D03*
D11*
X195262500Y-127450000D03*
D12*
X195262500Y-133350000D03*
D11*
X200262500Y-129550000D03*
D10*
X200762500Y-133350000D03*
D13*
X191762500Y-127350000D03*
X203762500Y-129550000D03*
%TD*%
D10*
%TO.C,Tilde*%
X4025000Y-76200000D03*
D11*
X9525000Y-70300000D03*
D12*
X9525000Y-76200000D03*
D11*
X14525000Y-72400000D03*
D10*
X15025000Y-76200000D03*
D13*
X6025000Y-70200000D03*
X18025000Y-72400000D03*
%TD*%
D10*
%TO.C,Equals*%
X232625000Y-76200000D03*
D11*
X238125000Y-70300000D03*
D12*
X238125000Y-76200000D03*
D11*
X243125000Y-72400000D03*
D10*
X243625000Y-76200000D03*
D13*
X234625000Y-70200000D03*
X246625000Y-72400000D03*
%TD*%
D10*
%TO.C,F8*%
X156425000Y-57150000D03*
D11*
X161925000Y-51250000D03*
D12*
X161925000Y-57150000D03*
D11*
X166925000Y-53350000D03*
D10*
X167425000Y-57150000D03*
D13*
X158425000Y-51150000D03*
X170425000Y-53350000D03*
%TD*%
D10*
%TO.C,Two*%
X42125000Y-76200000D03*
D11*
X47625000Y-70300000D03*
D12*
X47625000Y-76200000D03*
D11*
X52625000Y-72400000D03*
D10*
X53125000Y-76200000D03*
D13*
X44125000Y-70200000D03*
X56125000Y-72400000D03*
%TD*%
D10*
%TO.C,Tab*%
X8500000Y-95250000D03*
D11*
X14000000Y-89350000D03*
D12*
X14000000Y-95250000D03*
D11*
X19000000Y-91450000D03*
D10*
X19500000Y-95250000D03*
D13*
X10500000Y-89250000D03*
X22500000Y-91450000D03*
%TD*%
D10*
%TO.C,Eight*%
X156425000Y-76200000D03*
D11*
X161925000Y-70300000D03*
D12*
X161925000Y-76200000D03*
D11*
X166925000Y-72400000D03*
D10*
X167425000Y-76200000D03*
D13*
X158425000Y-70200000D03*
X170425000Y-72400000D03*
%TD*%
D10*
%TO.C,Backspace*%
X270725000Y-76200000D03*
D11*
X276225000Y-70300000D03*
D12*
X276225000Y-76200000D03*
D11*
X281225000Y-72400000D03*
D10*
X281725000Y-76200000D03*
D13*
X272725000Y-70200000D03*
X284725000Y-72400000D03*
%TD*%
D10*
%TO.C,D*%
X75587500Y-114300000D03*
D11*
X81087500Y-108400000D03*
D12*
X81087500Y-114300000D03*
D11*
X86087500Y-110500000D03*
D10*
X86587500Y-114300000D03*
D13*
X77587500Y-108300000D03*
X89587500Y-110500000D03*
%TD*%
D10*
%TO.C,Caps Lock*%
X11168750Y-114300000D03*
D11*
X16668750Y-108400000D03*
D12*
X16668750Y-114300000D03*
D11*
X21668750Y-110500000D03*
D10*
X22168750Y-114300000D03*
D13*
X13168750Y-108300000D03*
X25168750Y-110500000D03*
%TD*%
D10*
%TO.C,Three*%
X61175000Y-76200000D03*
D11*
X66675000Y-70300000D03*
D12*
X66675000Y-76200000D03*
D11*
X71675000Y-72400000D03*
D10*
X72175000Y-76200000D03*
D13*
X63175000Y-70200000D03*
X75175000Y-72400000D03*
%TD*%
D10*
%TO.C,Escape*%
X4025000Y-57150000D03*
D11*
X9525000Y-51250000D03*
D12*
X9525000Y-57150000D03*
D11*
X14525000Y-53350000D03*
D10*
X15025000Y-57150000D03*
D13*
X6025000Y-51150000D03*
X18025000Y-53350000D03*
%TD*%
D10*
%TO.C,F2*%
X42125000Y-57150000D03*
D11*
X47625000Y-51250000D03*
D12*
X47625000Y-57150000D03*
D11*
X52625000Y-53350000D03*
D10*
X53125000Y-57150000D03*
D13*
X44125000Y-51150000D03*
X56125000Y-53350000D03*
%TD*%
D10*
%TO.C,Delete*%
X270725000Y-57150000D03*
D11*
X276225000Y-51250000D03*
D12*
X276225000Y-57150000D03*
D11*
X281225000Y-53350000D03*
D10*
X281725000Y-57150000D03*
D13*
X272725000Y-51150000D03*
X284725000Y-53350000D03*
%TD*%
D10*
%TO.C,T*%
X108512500Y-95250000D03*
D11*
X114012500Y-89350000D03*
D12*
X114012500Y-95250000D03*
D11*
X119012500Y-91450000D03*
D10*
X119512500Y-95250000D03*
D13*
X110512500Y-89250000D03*
X122512500Y-91450000D03*
%TD*%
D10*
%TO.C,G*%
X113687500Y-114300000D03*
D11*
X119187500Y-108400000D03*
D12*
X119187500Y-114300000D03*
D11*
X124187500Y-110500000D03*
D10*
X124687500Y-114300000D03*
D13*
X115687500Y-108300000D03*
X127687500Y-110500000D03*
%TD*%
D10*
%TO.C,Space*%
X170712500Y-152400000D03*
D11*
X176212500Y-146500000D03*
D12*
X176212500Y-152400000D03*
D11*
X181212500Y-148600000D03*
D10*
X181712500Y-152400000D03*
D13*
X172712500Y-146400000D03*
X184712500Y-148600000D03*
%TD*%
D10*
%TO.C,X*%
X75462500Y-133350000D03*
D11*
X80962500Y-127450000D03*
D12*
X80962500Y-133350000D03*
D11*
X85962500Y-129550000D03*
D10*
X86462500Y-133350000D03*
D13*
X77462500Y-127350000D03*
X89462500Y-129550000D03*
%TD*%
D10*
%TO.C,Zero*%
X194525000Y-76200000D03*
D11*
X200025000Y-70300000D03*
D12*
X200025000Y-76200000D03*
D11*
X205025000Y-72400000D03*
D10*
X205525000Y-76200000D03*
D13*
X196525000Y-70200000D03*
X208525000Y-72400000D03*
%TD*%
D10*
%TO.C,Blank Shift*%
X249293750Y-133350000D03*
D11*
X254793750Y-127450000D03*
D12*
X254793750Y-133350000D03*
D11*
X259793750Y-129550000D03*
D10*
X260293750Y-133350000D03*
D13*
X251293750Y-127350000D03*
X263293750Y-129550000D03*
%TD*%
D16*
%TO.C,REF\u002A\u002A*%
X221000000Y-38000000D03*
%TD*%
D10*
%TO.C,Space*%
X84987500Y-152420000D03*
D11*
X90487500Y-146520000D03*
D12*
X90487500Y-152420000D03*
D11*
X95487500Y-148620000D03*
D10*
X95987500Y-152420000D03*
D13*
X86987500Y-146420000D03*
X98987500Y-148620000D03*
%TD*%
D10*
%TO.C,Angle bracket*%
X208812500Y-133350000D03*
D11*
X214312500Y-127450000D03*
D12*
X214312500Y-133350000D03*
D11*
X219312500Y-129550000D03*
D10*
X219812500Y-133350000D03*
D13*
X210812500Y-127350000D03*
X222812500Y-129550000D03*
%TD*%
D10*
%TO.C,F4*%
X80225000Y-57150000D03*
D11*
X85725000Y-51250000D03*
D12*
X85725000Y-57150000D03*
D11*
X90725000Y-53350000D03*
D10*
X91225000Y-57150000D03*
D13*
X82225000Y-51150000D03*
X94225000Y-53350000D03*
%TD*%
D16*
%TO.C,REF\u002A\u002A*%
X4000000Y-38000000D03*
%TD*%
%TO.C,REF\u002A\u002A*%
X287500000Y-165000000D03*
%TD*%
D10*
%TO.C,F3*%
X61175000Y-57150000D03*
D11*
X66675000Y-51250000D03*
D12*
X66675000Y-57150000D03*
D11*
X71675000Y-53350000D03*
D10*
X72175000Y-57150000D03*
D13*
X63175000Y-51150000D03*
X75175000Y-53350000D03*
%TD*%
D10*
%TO.C,J*%
X151787500Y-114300000D03*
D11*
X157287500Y-108400000D03*
D12*
X157287500Y-114300000D03*
D11*
X162287500Y-110500000D03*
D10*
X162787500Y-114300000D03*
D13*
X153787500Y-108300000D03*
X165787500Y-110500000D03*
%TD*%
D10*
%TO.C,Down Arrow*%
X232625000Y-152400000D03*
D11*
X238125000Y-146500000D03*
D12*
X238125000Y-152400000D03*
D11*
X243125000Y-148600000D03*
D10*
X243625000Y-152400000D03*
D13*
X234625000Y-146400000D03*
X246625000Y-148600000D03*
%TD*%
D10*
%TO.C,O*%
X184712500Y-95250000D03*
D11*
X190212500Y-89350000D03*
D12*
X190212500Y-95250000D03*
D11*
X195212500Y-91450000D03*
D10*
X195712500Y-95250000D03*
D13*
X186712500Y-89250000D03*
X198712500Y-91450000D03*
%TD*%
D10*
%TO.C,W*%
X51362500Y-95250000D03*
D11*
X56862500Y-89350000D03*
D12*
X56862500Y-95250000D03*
D11*
X61862500Y-91450000D03*
D10*
X62362500Y-95250000D03*
D13*
X53362500Y-89250000D03*
X65362500Y-91450000D03*
%TD*%
D16*
%TO.C,REF\u002A\u002A*%
X143000000Y-165000000D03*
%TD*%
D10*
%TO.C,Nine*%
X175475000Y-76200000D03*
D11*
X180975000Y-70300000D03*
D12*
X180975000Y-76200000D03*
D11*
X185975000Y-72400000D03*
D10*
X186475000Y-76200000D03*
D13*
X177475000Y-70200000D03*
X189475000Y-72400000D03*
%TD*%
D10*
%TO.C,V*%
X113562500Y-133350000D03*
D11*
X119062500Y-127450000D03*
D12*
X119062500Y-133350000D03*
D11*
X124062500Y-129550000D03*
D10*
X124562500Y-133350000D03*
D13*
X115562500Y-127350000D03*
X127562500Y-129550000D03*
%TD*%
D10*
%TO.C,Backslash*%
X265742500Y-95250000D03*
D11*
X271242500Y-89350000D03*
D12*
X271242500Y-95250000D03*
D11*
X276242500Y-91450000D03*
D10*
X276742500Y-95250000D03*
D13*
X267742500Y-89250000D03*
X279742500Y-91450000D03*
%TD*%
D10*
%TO.C,F9*%
X175475000Y-57150000D03*
D11*
X180975000Y-51250000D03*
D12*
X180975000Y-57150000D03*
D11*
X185975000Y-53350000D03*
D10*
X186475000Y-57150000D03*
D13*
X177475000Y-51150000D03*
X189475000Y-53350000D03*
%TD*%
D10*
%TO.C,Space*%
X113562500Y-152400000D03*
D11*
X119062500Y-146500000D03*
D12*
X119062500Y-152400000D03*
D11*
X124062500Y-148600000D03*
D10*
X124562500Y-152400000D03*
D13*
X115562500Y-146400000D03*
X127562500Y-148600000D03*
%TD*%
D10*
%TO.C,C*%
X94512500Y-133350000D03*
D11*
X100012500Y-127450000D03*
D12*
X100012500Y-133350000D03*
D11*
X105012500Y-129550000D03*
D10*
X105512500Y-133350000D03*
D13*
X96512500Y-127350000D03*
X108512500Y-129550000D03*
%TD*%
D16*
%TO.C,REF\u002A\u002A*%
X125910000Y-38000000D03*
%TD*%
D10*
%TO.C,F7*%
X137375000Y-57150000D03*
D11*
X142875000Y-51250000D03*
D12*
X142875000Y-57150000D03*
D11*
X147875000Y-53350000D03*
D10*
X148375000Y-57150000D03*
D13*
X139375000Y-51150000D03*
X151375000Y-53350000D03*
%TD*%
D10*
%TO.C,A*%
X37487500Y-114400000D03*
D11*
X42987500Y-108500000D03*
D12*
X42987500Y-114400000D03*
D11*
X47987500Y-110600000D03*
D10*
X48487500Y-114400000D03*
D13*
X39487500Y-108400000D03*
X51487500Y-110600000D03*
%TD*%
D10*
%TO.C,Right*%
X270725000Y-152400000D03*
D11*
X276225000Y-146500000D03*
D12*
X276225000Y-152400000D03*
D11*
X281225000Y-148600000D03*
D10*
X281725000Y-152400000D03*
D13*
X272725000Y-146400000D03*
X284725000Y-148600000D03*
%TD*%
D10*
%TO.C,Blank Shift*%
X32493750Y-132920000D03*
D11*
X37993750Y-127020000D03*
D12*
X37993750Y-132920000D03*
D11*
X42993750Y-129120000D03*
D10*
X43493750Y-132920000D03*
D13*
X34493750Y-126920000D03*
X46493750Y-129120000D03*
%TD*%
D10*
%TO.C,Function*%
X4025000Y-152400000D03*
D11*
X9525000Y-146500000D03*
D12*
X9525000Y-152400000D03*
D11*
X14525000Y-148600000D03*
D10*
X15025000Y-152400000D03*
D13*
X6025000Y-146400000D03*
X18025000Y-148600000D03*
%TD*%
D10*
%TO.C,Open Sq. Bracket*%
X222812500Y-95250000D03*
D11*
X228312500Y-89350000D03*
D12*
X228312500Y-95250000D03*
D11*
X233312500Y-91450000D03*
D10*
X233812500Y-95250000D03*
D13*
X224812500Y-89250000D03*
X236812500Y-91450000D03*
%TD*%
D10*
%TO.C,I*%
X165662500Y-95250000D03*
D11*
X171162500Y-89350000D03*
D12*
X171162500Y-95250000D03*
D11*
X176162500Y-91450000D03*
D10*
X176662500Y-95250000D03*
D13*
X167662500Y-89250000D03*
X179662500Y-91450000D03*
%TD*%
D10*
%TO.C,F11*%
X213575000Y-57150000D03*
D11*
X219075000Y-51250000D03*
D12*
X219075000Y-57150000D03*
D11*
X224075000Y-53350000D03*
D10*
X224575000Y-57150000D03*
D13*
X215575000Y-51150000D03*
X227575000Y-53350000D03*
%TD*%
D10*
%TO.C,Y*%
X127562500Y-95250000D03*
D11*
X133062500Y-89350000D03*
D12*
X133062500Y-95250000D03*
D11*
X138062500Y-91450000D03*
D10*
X138562500Y-95250000D03*
D13*
X129562500Y-89250000D03*
X141562500Y-91450000D03*
%TD*%
D10*
%TO.C,R*%
X89462500Y-95250000D03*
D11*
X94962500Y-89350000D03*
D12*
X94962500Y-95250000D03*
D11*
X99962500Y-91450000D03*
D10*
X100462500Y-95250000D03*
D13*
X91462500Y-89250000D03*
X103462500Y-91450000D03*
%TD*%
D10*
%TO.C,Shift*%
X270725000Y-133350000D03*
D11*
X276225000Y-127450000D03*
D12*
X276225000Y-133350000D03*
D11*
X281225000Y-129550000D03*
D10*
X281725000Y-133350000D03*
D13*
X272725000Y-127350000D03*
X284725000Y-129550000D03*
%TD*%
D10*
%TO.C,F12*%
X232625000Y-57150000D03*
D11*
X238125000Y-51250000D03*
D12*
X238125000Y-57150000D03*
D11*
X243125000Y-53350000D03*
D10*
X243625000Y-57150000D03*
D13*
X234625000Y-51150000D03*
X246625000Y-53350000D03*
%TD*%
D10*
%TO.C,Z*%
X56412500Y-133350000D03*
D11*
X61912500Y-127450000D03*
D12*
X61912500Y-133350000D03*
D11*
X66912500Y-129550000D03*
D10*
X67412500Y-133350000D03*
D13*
X58412500Y-127350000D03*
X70412500Y-129550000D03*
%TD*%
D16*
%TO.C,REF\u002A\u002A*%
X282500000Y-14000000D03*
%TD*%
D10*
%TO.C,Closed Sq. Bracket*%
X241862500Y-95250000D03*
D11*
X247362500Y-89350000D03*
D12*
X247362500Y-95250000D03*
D11*
X252362500Y-91450000D03*
D10*
X252862500Y-95250000D03*
D13*
X243862500Y-89250000D03*
X255862500Y-91450000D03*
%TD*%
D10*
%TO.C,Four*%
X80225000Y-76200000D03*
D11*
X85725000Y-70300000D03*
D12*
X85725000Y-76200000D03*
D11*
X90725000Y-72400000D03*
D10*
X91225000Y-76200000D03*
D13*
X82225000Y-70200000D03*
X94225000Y-72400000D03*
%TD*%
D17*
%TO.C,IDiode1*%
X180825000Y-103182500D03*
D18*
X180825000Y-95562500D03*
%TD*%
D17*
%TO.C,>.Diode1*%
X223550000Y-140130000D03*
D18*
X223550000Y-132510000D03*
%TD*%
D17*
%TO.C,[{Diode1*%
X237975000Y-103182500D03*
D18*
X237975000Y-95562500D03*
%TD*%
D17*
%TO.C,`~Diode1*%
X19050000Y-83343750D03*
D18*
X19050000Y-75723750D03*
%TD*%
D17*
%TO.C,EnterDiode1*%
X261920000Y-121320000D03*
D18*
X261920000Y-113700000D03*
%TD*%
D17*
%TO.C,NDiode1*%
X166400000Y-140160000D03*
D18*
X166400000Y-132540000D03*
%TD*%
D17*
%TO.C,ShiftDiode3*%
X47625000Y-139541250D03*
D18*
X47625000Y-131921250D03*
%TD*%
D17*
%TO.C,=+Diode1*%
X247650000Y-83343750D03*
D18*
X247650000Y-75723750D03*
%TD*%
D17*
%TO.C,UDiode1*%
X161775000Y-103182500D03*
D18*
X161775000Y-95562500D03*
%TD*%
D17*
%TO.C,SpaceDiode1*%
X100012500Y-159543750D03*
D18*
X100012500Y-151923750D03*
%TD*%
D17*
%TO.C,QDiode1*%
X47475000Y-103182500D03*
D18*
X47475000Y-95562500D03*
%TD*%
D17*
%TO.C,1!Diode1*%
X38100000Y-83343750D03*
D18*
X38100000Y-75723750D03*
%TD*%
D17*
%TO.C,0)Diode1*%
X209550000Y-83343750D03*
D18*
X209550000Y-75723750D03*
%TD*%
D17*
%TO.C,PDiode1*%
X218925000Y-103182500D03*
D18*
X218925000Y-95562500D03*
%TD*%
D17*
%TO.C,DelDiode2*%
X285750000Y-65722500D03*
D18*
X285750000Y-58102500D03*
%TD*%
D17*
%TO.C,5\u0025Diode1*%
X114300000Y-83343750D03*
D18*
X114300000Y-75723750D03*
%TD*%
D17*
%TO.C,SDiode1*%
X71450000Y-121110000D03*
D18*
X71450000Y-113490000D03*
%TD*%
D17*
%TO.C,SpaceDiode4*%
X185737500Y-160972500D03*
D18*
X185737500Y-153352500D03*
%TD*%
D17*
%TO.C,BackspaceDiode1*%
X266700000Y-84296250D03*
D18*
X266700000Y-76676250D03*
%TD*%
D17*
%TO.C,F9Diode1*%
X190500000Y-64293750D03*
D18*
X190500000Y-56673750D03*
%TD*%
D17*
%TO.C,EDiode1*%
X85575000Y-103182500D03*
D18*
X85575000Y-95562500D03*
%TD*%
D17*
%TO.C,ControlDiode1*%
X38100000Y-160972500D03*
D18*
X38100000Y-153352500D03*
%TD*%
D17*
%TO.C,ShiftDiode2*%
X264318750Y-139541250D03*
D18*
X264318750Y-131921250D03*
%TD*%
D17*
%TO.C,F10Diode1*%
X209550000Y-64293750D03*
D18*
X209550000Y-56673750D03*
%TD*%
D17*
%TO.C,F3Diode1*%
X76200000Y-64293750D03*
D18*
X76200000Y-56673750D03*
%TD*%
D17*
%TO.C,ShiftDiode1*%
X21431250Y-139541250D03*
D18*
X21431250Y-131921250D03*
%TD*%
D17*
%TO.C,EscDiode1*%
X19050000Y-64293750D03*
D18*
X19050000Y-56673750D03*
%TD*%
D17*
%TO.C,HDiode1*%
X147650000Y-121110000D03*
D18*
X147650000Y-113490000D03*
%TD*%
D17*
%TO.C,LDiode1*%
X204800000Y-121110000D03*
D18*
X204800000Y-113490000D03*
%TD*%
D17*
%TO.C,VDiode1*%
X128300000Y-140160000D03*
D18*
X128300000Y-132540000D03*
%TD*%
D17*
%TO.C,F6Diode1*%
X133350000Y-64293750D03*
D18*
X133350000Y-56673750D03*
%TD*%
D17*
%TO.C,KDiode1*%
X185750000Y-121110000D03*
D18*
X185750000Y-113490000D03*
%TD*%
D17*
%TO.C,BackspaceDiode2*%
X285750000Y-84772500D03*
D18*
X285750000Y-77152500D03*
%TD*%
D17*
%TO.C,TDiode1*%
X123675000Y-103182500D03*
D18*
X123675000Y-95562500D03*
%TD*%
D17*
%TO.C,MDiode1*%
X185450000Y-140160000D03*
D18*
X185450000Y-132540000D03*
%TD*%
D17*
%TO.C,F1Diode1*%
X38100000Y-64293750D03*
D18*
X38100000Y-56673750D03*
%TD*%
D17*
%TO.C,FnDiode1*%
X19050000Y-160972500D03*
D18*
X19050000Y-153352500D03*
%TD*%
D17*
%TO.C,ShiftDiode4*%
X285750000Y-139541250D03*
D18*
X285750000Y-131921250D03*
%TD*%
D17*
%TO.C,F7Diode1*%
X152400000Y-64293750D03*
D18*
X152400000Y-56673750D03*
%TD*%
D17*
%TO.C,XDiode1*%
X90200000Y-140160000D03*
D18*
X90200000Y-132540000D03*
%TD*%
D17*
%TO.C,WDiode1*%
X66525000Y-103182500D03*
D18*
X66525000Y-95562500D03*
%TD*%
D17*
%TO.C,DDiode1*%
X90500000Y-121110000D03*
D18*
X90500000Y-113490000D03*
%TD*%
D17*
%TO.C,9(Diode1*%
X190500000Y-83343750D03*
D18*
X190500000Y-75723750D03*
%TD*%
D17*
%TO.C,3#Diode1*%
X76200000Y-83343750D03*
D18*
X76200000Y-75723750D03*
%TD*%
D17*
%TO.C,6^Diode1*%
X133350000Y-83343750D03*
D18*
X133350000Y-75723750D03*
%TD*%
D17*
%TO.C,2@Diode1*%
X57150000Y-83343750D03*
D18*
X57150000Y-75723750D03*
%TD*%
D17*
%TO.C,F4Diode1*%
X95250000Y-64293750D03*
D18*
X95250000Y-56673750D03*
%TD*%
D17*
%TO.C,F12Diode1*%
X247840000Y-64503750D03*
D18*
X247840000Y-56883750D03*
%TD*%
D17*
%TO.C,F5Diode1*%
X114300000Y-64293750D03*
D18*
X114300000Y-56673750D03*
%TD*%
D17*
%TO.C,8\u002ADiode1*%
X171450000Y-83343750D03*
D18*
X171450000Y-75723750D03*
%TD*%
D17*
%TO.C,/?Diode1*%
X242600000Y-140160000D03*
D18*
X242600000Y-132540000D03*
%TD*%
D17*
%TO.C,CmdDiode1*%
X76200000Y-160972500D03*
D18*
X76200000Y-153352500D03*
%TD*%
D17*
%TO.C,CapsLockDiode1*%
X30440000Y-118380000D03*
D18*
X30440000Y-110760000D03*
%TD*%
D17*
%TO.C,DownDiode1*%
X247650000Y-160972500D03*
D18*
X247650000Y-153352500D03*
%TD*%
D17*
%TO.C,LeftDiode1*%
X228600000Y-160972500D03*
D18*
X228600000Y-153352500D03*
%TD*%
D17*
%TO.C,F11Diode1*%
X228600000Y-64293750D03*
D18*
X228600000Y-56673750D03*
%TD*%
D17*
%TO.C,SpaceDiode2*%
X128587500Y-159543750D03*
D18*
X128587500Y-151923750D03*
%TD*%
D17*
%TO.C,UpDiode1*%
X266700000Y-160972500D03*
D18*
X266700000Y-153352500D03*
%TD*%
D17*
%TO.C,SpaceDiode3*%
X157162500Y-160020000D03*
D18*
X157162500Y-152400000D03*
%TD*%
D17*
%TO.C,DelDiode1*%
X266700000Y-64293750D03*
D18*
X266700000Y-56673750D03*
%TD*%
D17*
%TO.C,CmdDiode2*%
X209530000Y-161180000D03*
D18*
X209530000Y-153560000D03*
%TD*%
D17*
%TO.C,OptionDiode1*%
X57150000Y-160972500D03*
D18*
X57150000Y-153352500D03*
%TD*%
D17*
%TO.C,ODiode1*%
X199875000Y-103182500D03*
D18*
X199875000Y-95562500D03*
%TD*%
D17*
%TO.C,TabDiode1*%
X23812500Y-103182500D03*
D18*
X23812500Y-95562500D03*
%TD*%
D17*
%TO.C,ADiode1*%
X52400000Y-121110000D03*
D18*
X52400000Y-113490000D03*
%TD*%
D17*
%TO.C,4$Diode1*%
X95250000Y-83343750D03*
D18*
X95250000Y-75723750D03*
%TD*%
D17*
%TO.C,F2Diode1*%
X57150000Y-64293750D03*
D18*
X57150000Y-56673750D03*
%TD*%
D17*
%TO.C,RDiode1*%
X104625000Y-103182500D03*
D18*
X104625000Y-95562500D03*
%TD*%
D17*
%TO.C,'"Diode1*%
X242900000Y-121110000D03*
D18*
X242900000Y-113490000D03*
%TD*%
D17*
%TO.C,YDiode1*%
X142725000Y-103182500D03*
D18*
X142725000Y-95562500D03*
%TD*%
D17*
%TO.C,EnterDiode2*%
X283368750Y-120491250D03*
D18*
X283368750Y-112871250D03*
%TD*%
D17*
%TO.C,GDiode1*%
X128600000Y-121110000D03*
D18*
X128600000Y-113490000D03*
%TD*%
D17*
%TO.C,<\u002CDiode1*%
X204500000Y-140160000D03*
D18*
X204500000Y-132540000D03*
%TD*%
D17*
%TO.C,ZDiode1*%
X71150000Y-140160000D03*
D18*
X71150000Y-132540000D03*
%TD*%
D17*
%TO.C,JDiode1*%
X166700000Y-121110000D03*
D18*
X166700000Y-113490000D03*
%TD*%
D17*
%TO.C,F8Diode1*%
X171450000Y-64293750D03*
D18*
X171450000Y-56673750D03*
%TD*%
D17*
%TO.C,7&Diode1*%
X152400000Y-83343750D03*
D18*
X152400000Y-75723750D03*
%TD*%
D17*
%TO.C,RightDiode1*%
X285750000Y-159543750D03*
D18*
X285750000Y-151923750D03*
%TD*%
D17*
%TO.C,]}Diode1*%
X257025000Y-103182500D03*
D18*
X257025000Y-95562500D03*
%TD*%
D17*
%TO.C,FDiode1*%
X109550000Y-121110000D03*
D18*
X109550000Y-113490000D03*
%TD*%
D17*
%TO.C,;:Diode1*%
X223850000Y-121110000D03*
D18*
X223850000Y-113490000D03*
%TD*%
D17*
%TO.C,-_Diode1*%
X228600000Y-83343750D03*
D18*
X228600000Y-75723750D03*
%TD*%
D17*
%TO.C,BDiode1*%
X147350000Y-140160000D03*
D18*
X147350000Y-132540000D03*
%TD*%
D17*
%TO.C,CDiode1*%
X109250000Y-140160000D03*
D18*
X109250000Y-132540000D03*
%TD*%
D17*
%TO.C,\u005C|Diode1*%
X282450000Y-103822500D03*
D18*
X282450000Y-96202500D03*
%TD*%
G36*
X282499288Y-9527481D02*
G01*
X282500665Y-9527489D01*
X282703661Y-9529833D01*
X282713784Y-9530365D01*
X283118586Y-9568251D01*
X283130040Y-9569864D01*
X283528879Y-9645180D01*
X283540133Y-9647855D01*
X283930190Y-9760000D01*
X283941146Y-9763711D01*
X284319072Y-9911721D01*
X284329635Y-9916437D01*
X284692121Y-10099019D01*
X284702197Y-10104699D01*
X285046088Y-10320260D01*
X285055592Y-10326854D01*
X285377905Y-10573528D01*
X285386753Y-10580979D01*
X285684675Y-10856612D01*
X285692790Y-10864855D01*
X285963728Y-11167046D01*
X285971040Y-11176009D01*
X286212645Y-11502139D01*
X286219090Y-11511745D01*
X286429256Y-11858975D01*
X286434777Y-11869139D01*
X286611664Y-12234421D01*
X286616215Y-12245057D01*
X286758300Y-12625255D01*
X286761839Y-12636267D01*
X286867875Y-13028039D01*
X286870373Y-13039333D01*
X286939441Y-13439279D01*
X286940876Y-13450758D01*
X286972374Y-13855407D01*
X286972733Y-13866968D01*
X286966388Y-14272790D01*
X286965668Y-14284335D01*
X286921535Y-14687802D01*
X286919742Y-14699230D01*
X286838204Y-15096826D01*
X286835354Y-15108037D01*
X286717123Y-15496300D01*
X286713241Y-15507196D01*
X286559339Y-15882766D01*
X286554458Y-15893254D01*
X286366238Y-16252829D01*
X286360402Y-16262816D01*
X286139481Y-16603309D01*
X286132739Y-16612708D01*
X285881066Y-16931113D01*
X285873478Y-16939844D01*
X285593210Y-17233434D01*
X285584840Y-17241419D01*
X285278459Y-17507592D01*
X285269383Y-17514763D01*
X284939512Y-17751243D01*
X284929807Y-17757537D01*
X284579347Y-17962242D01*
X284569097Y-17967604D01*
X284200419Y-18139071D01*
X284191061Y-18142966D01*
X284000000Y-18213480D01*
X284000000Y-44999976D01*
X284002401Y-45207933D01*
X284002401Y-45207934D01*
X284040771Y-45622027D01*
X284040772Y-45622028D01*
X284117191Y-46030835D01*
X284117190Y-46030835D01*
X284230993Y-46430808D01*
X284230998Y-46430823D01*
X284381230Y-46818619D01*
X284381231Y-46818620D01*
X284566595Y-47190882D01*
X284566598Y-47190888D01*
X284785532Y-47544479D01*
X285036143Y-47876339D01*
X285036150Y-47876348D01*
X285316320Y-48183679D01*
X285623651Y-48463849D01*
X285623660Y-48463856D01*
X285955520Y-48714467D01*
X286309111Y-48933401D01*
X286309117Y-48933404D01*
X286681379Y-49118768D01*
X286681380Y-49118769D01*
X287069176Y-49269001D01*
X287069191Y-49269006D01*
X287469164Y-49382808D01*
X287877971Y-49459227D01*
X287877972Y-49459228D01*
X288292065Y-49497598D01*
X288500000Y-49500000D01*
X288499999Y-49500042D01*
X288500190Y-49500002D01*
X288677608Y-49502323D01*
X288688948Y-49502991D01*
X289041439Y-49540040D01*
X289054258Y-49542071D01*
X289400128Y-49615588D01*
X289412665Y-49618947D01*
X289748965Y-49728218D01*
X289761082Y-49732869D01*
X290084122Y-49876694D01*
X290095687Y-49882587D01*
X290401918Y-50059390D01*
X290412803Y-50066459D01*
X290698873Y-50274301D01*
X290708960Y-50282469D01*
X290971742Y-50519079D01*
X290980920Y-50528257D01*
X291217530Y-50791039D01*
X291225698Y-50801126D01*
X291433540Y-51087196D01*
X291440609Y-51098081D01*
X291617412Y-51404312D01*
X291623305Y-51415877D01*
X291767130Y-51738917D01*
X291771781Y-51751034D01*
X291881052Y-52087334D01*
X291884411Y-52099871D01*
X291957928Y-52445741D01*
X291959959Y-52458560D01*
X291997008Y-52811051D01*
X291997676Y-52822391D01*
X291999989Y-52999159D01*
X292000000Y-53000781D01*
X292000000Y-164999260D01*
X291999992Y-165000692D01*
X291997656Y-165202926D01*
X291997135Y-165212935D01*
X291959756Y-165616323D01*
X291958174Y-165627667D01*
X291883862Y-166025200D01*
X291881239Y-166036349D01*
X291770573Y-166425302D01*
X291766934Y-166436162D01*
X291620838Y-166813278D01*
X291616211Y-166823755D01*
X291435960Y-167185750D01*
X291430387Y-167195757D01*
X291217488Y-167539599D01*
X291211015Y-167549048D01*
X290967304Y-167871774D01*
X290959987Y-167880585D01*
X290687542Y-168179443D01*
X290679443Y-168187542D01*
X290380585Y-168459987D01*
X290371774Y-168467304D01*
X290049048Y-168711015D01*
X290039599Y-168717488D01*
X289695757Y-168930387D01*
X289685750Y-168935960D01*
X289323755Y-169116211D01*
X289313278Y-169120838D01*
X288936162Y-169266934D01*
X288925302Y-169270573D01*
X288536349Y-169381239D01*
X288525200Y-169383862D01*
X288127667Y-169458174D01*
X288116323Y-169459756D01*
X287712935Y-169497135D01*
X287702926Y-169497656D01*
X287500599Y-169499993D01*
X287499385Y-169500001D01*
X3500771Y-169999998D01*
X3499164Y-169999990D01*
X3297098Y-169997727D01*
X3287046Y-169997206D01*
X2883667Y-169959828D01*
X2872323Y-169958246D01*
X2474783Y-169883932D01*
X2463634Y-169881310D01*
X2074674Y-169770643D01*
X2063814Y-169767003D01*
X1686696Y-169620907D01*
X1676218Y-169616280D01*
X1314204Y-169436018D01*
X1304199Y-169430445D01*
X960364Y-169217552D01*
X950914Y-169211079D01*
X628178Y-168967360D01*
X619367Y-168960043D01*
X320504Y-168687594D01*
X312405Y-168679495D01*
X39956Y-168380632D01*
X32639Y-168371821D01*
X-211079Y-168049085D01*
X-217552Y-168039635D01*
X-430445Y-167695800D01*
X-436018Y-167685795D01*
X-616280Y-167323781D01*
X-620907Y-167313303D01*
X-767003Y-166936185D01*
X-770643Y-166925325D01*
X-881310Y-166536365D01*
X-883932Y-166525216D01*
X-958246Y-166127676D01*
X-959828Y-166116332D01*
X-997206Y-165712953D01*
X-997727Y-165702901D01*
X-999992Y-165500714D01*
X-1000000Y-165499325D01*
X-1000000Y-38000739D01*
X-999992Y-37999307D01*
X-997656Y-37797073D01*
X-997135Y-37787064D01*
X-959756Y-37383676D01*
X-958174Y-37372332D01*
X-883862Y-36974799D01*
X-881239Y-36963650D01*
X-770573Y-36574697D01*
X-766934Y-36563837D01*
X-620838Y-36186721D01*
X-616211Y-36176244D01*
X-435960Y-35814249D01*
X-430387Y-35804242D01*
X-217488Y-35460400D01*
X-211015Y-35450952D01*
X32695Y-35128226D01*
X40012Y-35119414D01*
X312457Y-34820556D01*
X320556Y-34812457D01*
X619414Y-34540012D01*
X628225Y-34532695D01*
X950951Y-34288984D01*
X960400Y-34282511D01*
X1304242Y-34069612D01*
X1314249Y-34064039D01*
X1676244Y-33883788D01*
X1686721Y-33879161D01*
X2063837Y-33733065D01*
X2074697Y-33729426D01*
X2463650Y-33618760D01*
X2474799Y-33616137D01*
X2872332Y-33541825D01*
X2883676Y-33540243D01*
X3287064Y-33502864D01*
X3297073Y-33502343D01*
X3499307Y-33500008D01*
X3500739Y-33500000D01*
X211999977Y-33500000D01*
X212207933Y-33497598D01*
X212207934Y-33497598D01*
X212622027Y-33459228D01*
X212622028Y-33459227D01*
X213030835Y-33382808D01*
X213430808Y-33269006D01*
X213430823Y-33269001D01*
X213818619Y-33118769D01*
X213818620Y-33118768D01*
X214190882Y-32933404D01*
X214190888Y-32933401D01*
X214544479Y-32714467D01*
X214876339Y-32463856D01*
X214876348Y-32463849D01*
X215183679Y-32183679D01*
X215463849Y-31876348D01*
X215463856Y-31876339D01*
X215714467Y-31544479D01*
X215933401Y-31190888D01*
X215933404Y-31190882D01*
X216118768Y-30818620D01*
X216118769Y-30818619D01*
X216269001Y-30430823D01*
X216269006Y-30430808D01*
X216382808Y-30030835D01*
X216459227Y-29622028D01*
X216459228Y-29622027D01*
X216497598Y-29207934D01*
X216497598Y-29207933D01*
X216500000Y-28999976D01*
X216500000Y-14000739D01*
X216500008Y-13999307D01*
X216502343Y-13797073D01*
X216502864Y-13787064D01*
X216540243Y-13383676D01*
X216541825Y-13372332D01*
X216616137Y-12974799D01*
X216618760Y-12963650D01*
X216729426Y-12574697D01*
X216733065Y-12563837D01*
X216879161Y-12186721D01*
X216883788Y-12176244D01*
X217064039Y-11814249D01*
X217069612Y-11804242D01*
X217282511Y-11460400D01*
X217288984Y-11450951D01*
X217532695Y-11128225D01*
X217540012Y-11119414D01*
X217812457Y-10820556D01*
X217820556Y-10812457D01*
X218119414Y-10540012D01*
X218128225Y-10532695D01*
X218450951Y-10288984D01*
X218460400Y-10282511D01*
X218804242Y-10069612D01*
X218814249Y-10064039D01*
X219176244Y-9883788D01*
X219186721Y-9879161D01*
X219563837Y-9733065D01*
X219574697Y-9729426D01*
X219963650Y-9618760D01*
X219974799Y-9616137D01*
X220372332Y-9541825D01*
X220383676Y-9540243D01*
X220787064Y-9502864D01*
X220797073Y-9502343D01*
X220999277Y-9500008D01*
X221000764Y-9500000D01*
X282499288Y-9527481D01*
G37*
M02*
