%TF.GenerationSoftware,KiCad,Pcbnew,9.0.3*%
%TF.CreationDate,2025-07-30T21:50:27+08:00*%
%TF.ProjectId,magic-keys,6d616769-632d-46b6-9579-732e6b696361,3*%
%TF.SameCoordinates,Original*%
%TF.FileFunction,Copper,L2,Bot*%
%TF.FilePolarity,Positive*%
%FSLAX46Y46*%
G04 Gerber Fmt 4.6, Leading zero omitted, Abs format (unit mm)*
G04 Created by KiCad (PCBNEW 9.0.3) date 2025-07-30 21:50:27*
%MOMM*%
%LPD*%
G01*
G04 APERTURE LIST*
G04 Aperture macros list*
%AMRoundRect*
0 Rectangle with rounded corners*
0 $1 Rounding radius*
0 $2 $3 $4 $5 $6 $7 $8 $9 X,Y pos of 4 corners*
0 Add a 4 corners polygon primitive as box body*
4,1,4,$2,$3,$4,$5,$6,$7,$8,$9,$2,$3,0*
0 Add four circle primitives for the rounded corners*
1,1,$1+$1,$2,$3*
1,1,$1+$1,$4,$5*
1,1,$1+$1,$6,$7*
1,1,$1+$1,$8,$9*
0 Add four rect primitives between the rounded corners*
20,1,$1+$1,$2,$3,$4,$5,0*
20,1,$1+$1,$4,$5,$6,$7,0*
20,1,$1+$1,$6,$7,$8,$9,0*
20,1,$1+$1,$8,$9,$2,$3,0*%
G04 Aperture macros list end*
%TA.AperFunction,SMDPad,CuDef*%
%ADD10RoundRect,0.250000X-1.025000X-1.000000X1.025000X-1.000000X1.025000X1.000000X-1.025000X1.000000X0*%
%TD*%
%TA.AperFunction,ComponentPad*%
%ADD11R,1.700000X1.700000*%
%TD*%
%TA.AperFunction,ComponentPad*%
%ADD12O,1.700000X1.700000*%
%TD*%
%TA.AperFunction,ComponentPad*%
%ADD13R,1.600000X1.600000*%
%TD*%
%TA.AperFunction,ComponentPad*%
%ADD14O,1.600000X1.600000*%
%TD*%
%TA.AperFunction,ViaPad*%
%ADD15C,0.600000*%
%TD*%
%TA.AperFunction,Conductor*%
%ADD16C,0.200000*%
%TD*%
G04 APERTURE END LIST*
D10*
%TO.P,Up Arrow,1,1*%
%TO.N,Column 11*%
X253675000Y-146400000D03*
%TO.P,Up Arrow,2,2*%
%TO.N,Net-(UpDiode1-A)*%
X265675000Y-148600000D03*
%TD*%
%TO.P,Super/Command,1,1*%
%TO.N,Column 3*%
X63175000Y-146400000D03*
%TO.P,Super/Command,2,2*%
%TO.N,Net-(CmdDiode1-A)*%
X75175000Y-148600000D03*
%TD*%
%TO.P,Blank Delete,1,1*%
%TO.N,Column 13*%
X253675000Y-51150000D03*
%TO.P,Blank Delete,2,2*%
%TO.N,Net-(DelDiode1-A)*%
X265675000Y-53350000D03*
%TD*%
%TO.P,Blank Backspace,1,1*%
%TO.N,Column 13*%
X253675000Y-70200000D03*
%TO.P,Blank Backspace,2,2*%
%TO.N,Net-(BackspaceDiode1-A)*%
X265675000Y-72400000D03*
%TD*%
%TO.P,Quotes,1,1*%
%TO.N,Column 11*%
X229987500Y-108300000D03*
%TO.P,Quotes,2,2*%
%TO.N,Net-('"Diode1-A)*%
X241987500Y-110500000D03*
%TD*%
D11*
%TO.P,J2,1,GND*%
%TO.N,Net-(J2-GND)*%
X9390000Y-44790000D03*
D12*
%TO.P,J2,2,VCC*%
%TO.N,Net-(J2-VCC)*%
X9390000Y-42250000D03*
%TO.P,J2,3,SCL*%
%TO.N,Net-(J2-SCL)*%
X9390000Y-39710000D03*
%TO.P,J2,4,SDA*%
%TO.N,Net-(J2-SDA)*%
X9390000Y-37170000D03*
%TD*%
D10*
%TO.P,Enter,1,1*%
%TO.N,Column 13*%
X270468750Y-108300000D03*
%TO.P,Enter,2,2*%
%TO.N,Net-(EnterDiode2-A)*%
X282468750Y-110500000D03*
%TD*%
%TO.P,Alt/Option,1,1*%
%TO.N,Column 2*%
X44125000Y-146400000D03*
%TO.P,Alt/Option,2,2*%
%TO.N,Net-(OptionDiode1-A)*%
X56125000Y-148600000D03*
%TD*%
%TO.P,Q,1,1*%
%TO.N,Column 1*%
X34312500Y-89250000D03*
%TO.P,Q,2,2*%
%TO.N,Net-(QDiode1-A)*%
X46312500Y-91450000D03*
%TD*%
%TO.P,Five,1,1*%
%TO.N,Column 5*%
X101275000Y-70200000D03*
%TO.P,Five,2,2*%
%TO.N,Net-(5\u0025Diode1-A)*%
X113275000Y-72400000D03*
%TD*%
%TO.P,One,1,1*%
%TO.N,Column 1*%
X25075000Y-70200000D03*
%TO.P,One,2,2*%
%TO.N,Net-(1!Diode1-A)*%
X37075000Y-72400000D03*
%TD*%
%TO.P,Slash,1,1*%
%TO.N,Column 11*%
X229862500Y-127350000D03*
%TO.P,Slash,2,2*%
%TO.N,Net-(/?Diode1-A)*%
X241862500Y-129550000D03*
%TD*%
%TO.P,Dash,1,1*%
%TO.N,Column 11*%
X215575000Y-70200000D03*
%TO.P,Dash,2,2*%
%TO.N,Net-(-_Diode1-A)*%
X227575000Y-72400000D03*
%TD*%
%TO.P,F,1,1*%
%TO.N,Column 4*%
X96637500Y-108300000D03*
%TO.P,F,2,2*%
%TO.N,Net-(FDiode1-A)*%
X108637500Y-110500000D03*
%TD*%
%TO.P,Control,1,1*%
%TO.N,Column 1*%
X25075000Y-146400000D03*
%TO.P,Control,2,2*%
%TO.N,Net-(ControlDiode1-A)*%
X37075000Y-148600000D03*
%TD*%
%TO.P,S,1,1*%
%TO.N,Column 2*%
X58537500Y-108300000D03*
%TO.P,S,2,2*%
%TO.N,Net-(SDiode1-A)*%
X70537500Y-110500000D03*
%TD*%
%TO.P,F5,1,1*%
%TO.N,Column 5*%
X101275000Y-51150000D03*
%TO.P,F5,2,2*%
%TO.N,Net-(F5Diode1-A)*%
X113275000Y-53350000D03*
%TD*%
%TO.P,U,1,1*%
%TO.N,Column 7*%
X148612500Y-89250000D03*
%TO.P,U,2,2*%
%TO.N,Net-(UDiode1-A)*%
X160612500Y-91450000D03*
%TD*%
%TO.P,Six,1,1*%
%TO.N,Column 6*%
X120325000Y-70200000D03*
%TO.P,Six,2,2*%
%TO.N,Net-(6^Diode1-A)*%
X132325000Y-72400000D03*
%TD*%
%TO.P,Super/Command,1,1*%
%TO.N,Column 8*%
X196525000Y-146400000D03*
%TO.P,Super/Command,2,2*%
%TO.N,Net-(CmdDiode2-A)*%
X208525000Y-148600000D03*
%TD*%
%TO.P,H,1,1*%
%TO.N,Column 6*%
X134737500Y-108300000D03*
%TO.P,H,2,2*%
%TO.N,Net-(HDiode1-A)*%
X146737500Y-110500000D03*
%TD*%
%TO.P,L,1,1*%
%TO.N,Column 9*%
X191887500Y-108300000D03*
%TO.P,L,2,2*%
%TO.N,Net-(LDiode1-A)*%
X203887500Y-110500000D03*
%TD*%
%TO.P,E,1,1*%
%TO.N,Column 3*%
X72412500Y-89250000D03*
%TO.P,E,2,2*%
%TO.N,Net-(EDiode1-A)*%
X84412500Y-91450000D03*
%TD*%
D12*
%TO.P,U1,1,GPIO0*%
%TO.N,Column 0*%
X282380000Y-20040000D03*
%TO.P,U1,2,GPIO1*%
%TO.N,Column 1*%
X279840000Y-20040000D03*
D11*
%TO.P,U1,3,GND*%
%TO.N,unconnected-(U1-GND-Pad3)*%
X277300000Y-20040000D03*
D12*
%TO.P,U1,4,GPIO2*%
%TO.N,Column 2*%
X274760000Y-20040000D03*
%TO.P,U1,5,GPIO3*%
%TO.N,Column 3*%
X272220000Y-20040000D03*
%TO.P,U1,6,GPIO4*%
%TO.N,Column 4*%
X269680000Y-20040000D03*
%TO.P,U1,7,GPIO5*%
%TO.N,Column 5*%
X267140000Y-20040000D03*
D11*
%TO.P,U1,8,GND*%
%TO.N,unconnected-(U1-GND-Pad8)*%
X264600000Y-20040000D03*
D12*
%TO.P,U1,9,GPIO6*%
%TO.N,Column 6*%
X262060000Y-20040000D03*
%TO.P,U1,10,GPIO7*%
%TO.N,Column 7*%
X259520000Y-20040000D03*
%TO.P,U1,11,GPIO8*%
%TO.N,Column 8*%
X256980000Y-20040000D03*
%TO.P,U1,12,GPIO9*%
%TO.N,Column 9*%
X254440000Y-20040000D03*
D11*
%TO.P,U1,13,GND*%
%TO.N,unconnected-(U1-GND-Pad13)*%
X251900000Y-20040000D03*
D12*
%TO.P,U1,14,GPIO10*%
%TO.N,Column 10*%
X249360000Y-20040000D03*
%TO.P,U1,15,GPIO11*%
%TO.N,Column 11*%
X246820000Y-20040000D03*
%TO.P,U1,16,GPIO12*%
%TO.N,Column 12*%
X244280000Y-20040000D03*
%TO.P,U1,17,GPIO13*%
%TO.N,Column 13*%
X241740000Y-20040000D03*
D11*
%TO.P,U1,18,GND*%
%TO.N,unconnected-(U1-GND-Pad18)*%
X239200000Y-20040000D03*
D12*
%TO.P,U1,19,GPIO14*%
%TO.N,Column 14*%
X236660000Y-20040000D03*
%TO.P,U1,20,GPIO15*%
%TO.N,unconnected-(U1-GPIO15-Pad20)*%
X234120000Y-20040000D03*
%TO.P,U1,21,GPIO16*%
%TO.N,Row 0*%
X234120000Y-37820000D03*
%TO.P,U1,22,GPIO17*%
%TO.N,Row 1*%
X236660000Y-37820000D03*
D11*
%TO.P,U1,23,GND*%
%TO.N,unconnected-(U1-GND-Pad23)*%
X239200000Y-37820000D03*
D12*
%TO.P,U1,24,GPIO18*%
%TO.N,Row 2*%
X241740000Y-37820000D03*
%TO.P,U1,25,GPIO19*%
%TO.N,Row 3*%
X244280000Y-37820000D03*
%TO.P,U1,26,GPIO20*%
%TO.N,Row 4*%
X246820000Y-37820000D03*
%TO.P,U1,27,GPIO21*%
%TO.N,Row 5*%
X249360000Y-37820000D03*
D11*
%TO.P,U1,28,GND*%
%TO.N,Net-(J2-GND)*%
X251900000Y-37820000D03*
D12*
%TO.P,U1,29,GPIO22*%
%TO.N,Net-(J2-SCL)*%
X254440000Y-37820000D03*
%TO.P,U1,30,RUN*%
%TO.N,unconnected-(U1-RUN-Pad30)*%
X256980000Y-37820000D03*
%TO.P,U1,31,GPIO26_ADC0*%
%TO.N,Net-(J2-SDA)*%
X259520000Y-37820000D03*
%TO.P,U1,32,GPIO27_ADC1*%
%TO.N,unconnected-(U1-GPIO27_ADC1-Pad32)*%
X262060000Y-37820000D03*
D11*
%TO.P,U1,33,AGND*%
%TO.N,unconnected-(U1-AGND-Pad33)*%
X264600000Y-37820000D03*
D12*
%TO.P,U1,34,GPIO28_ADC2*%
%TO.N,unconnected-(U1-GPIO28_ADC2-Pad34)*%
X267140000Y-37820000D03*
%TO.P,U1,35,ADC_VREF*%
%TO.N,unconnected-(U1-ADC_VREF-Pad35)*%
X269680000Y-37820000D03*
%TO.P,U1,36,3V3*%
%TO.N,Net-(J2-VCC)*%
X272220000Y-37820000D03*
%TO.P,U1,37,3V3_EN*%
%TO.N,unconnected-(U1-3V3_EN-Pad37)*%
X274760000Y-37820000D03*
D11*
%TO.P,U1,38,GND*%
%TO.N,unconnected-(U1-GND-Pad38)*%
X277300000Y-37820000D03*
D12*
%TO.P,U1,39,VSYS*%
%TO.N,unconnected-(U1-VSYS-Pad39)*%
X279840000Y-37820000D03*
%TO.P,U1,40,VBUS*%
%TO.N,unconnected-(U1-VBUS-Pad40)*%
X282380000Y-37820000D03*
%TO.P,U1,41,SWCLK*%
%TO.N,unconnected-(U1-SWCLK-Pad41)*%
X234350000Y-26390000D03*
D11*
%TO.P,U1,42,GND*%
%TO.N,unconnected-(U1-GND-Pad42)*%
X234350000Y-28930000D03*
D12*
%TO.P,U1,43,SWDIO*%
%TO.N,unconnected-(U1-SWDIO-Pad43)*%
X234350000Y-31470000D03*
%TD*%
D10*
%TO.P,F6,1,1*%
%TO.N,Column 6*%
X120325000Y-51150000D03*
%TO.P,F6,2,2*%
%TO.N,Net-(F6Diode1-A)*%
X132325000Y-53350000D03*
%TD*%
%TO.P,B,1,1*%
%TO.N,Column 6*%
X134612500Y-127350000D03*
%TO.P,B,2,2*%
%TO.N,Net-(BDiode1-A)*%
X146612500Y-129550000D03*
%TD*%
%TO.P,Blank Enter,1,1*%
%TO.N,Column 12*%
X249037500Y-108300000D03*
%TO.P,Blank Enter,2,2*%
%TO.N,Net-(EnterDiode1-A)*%
X261037500Y-110500000D03*
%TD*%
%TO.P,Left Arrow,1,1*%
%TO.N,Column 9*%
X215575000Y-146400000D03*
%TO.P,Left Arrow,2,2*%
%TO.N,Net-(LeftDiode1-A)*%
X227575000Y-148600000D03*
%TD*%
%TO.P,Shift,1,1*%
%TO.N,Column 0*%
X8300000Y-126900000D03*
%TO.P,Shift,2,2*%
%TO.N,Net-(ShiftDiode1-A)*%
X20300000Y-129100000D03*
%TD*%
%TO.P,M,1,1*%
%TO.N,Column 8*%
X172712500Y-127350000D03*
%TO.P,M,2,2*%
%TO.N,Net-(MDiode1-A)*%
X184712500Y-129550000D03*
%TD*%
%TO.P,Semi-Colon,1,1*%
%TO.N,Column 10*%
X210937500Y-108300000D03*
%TO.P,Semi-Colon,2,2*%
%TO.N,Net-(;:Diode1-A)*%
X222937500Y-110500000D03*
%TD*%
%TO.P,N,1,1*%
%TO.N,Column 7*%
X153662500Y-127350000D03*
%TO.P,N,2,2*%
%TO.N,Net-(NDiode1-A)*%
X165662500Y-129550000D03*
%TD*%
%TO.P,Space,1,1*%
%TO.N,Column 6*%
X144137500Y-146400000D03*
%TO.P,Space,2,2*%
%TO.N,Net-(SpaceDiode3-A)*%
X156137500Y-148600000D03*
%TD*%
%TO.P,F10,1,1*%
%TO.N,Column 10*%
X196525000Y-51150000D03*
%TO.P,F10,2,2*%
%TO.N,Net-(F10Diode1-A)*%
X208525000Y-53350000D03*
%TD*%
%TO.P,P,1,1*%
%TO.N,Column 10*%
X205762500Y-89250000D03*
%TO.P,P,2,2*%
%TO.N,Net-(PDiode1-A)*%
X217762500Y-91450000D03*
%TD*%
%TO.P,F1,1,1*%
%TO.N,Column 1*%
X25075000Y-51150000D03*
%TO.P,F1,2,2*%
%TO.N,Net-(F1Diode1-A)*%
X37075000Y-53350000D03*
%TD*%
%TO.P,K,1,1*%
%TO.N,Column 8*%
X172837500Y-108300000D03*
%TO.P,K,2,2*%
%TO.N,Net-(KDiode1-A)*%
X184837500Y-110500000D03*
%TD*%
%TO.P,Seven,1,1*%
%TO.N,Column 7*%
X139375000Y-70200000D03*
%TO.P,Seven,2,2*%
%TO.N,Net-(7&Diode1-A)*%
X151375000Y-72400000D03*
%TD*%
%TO.P,Chevron,1,1*%
%TO.N,Column 9*%
X191762500Y-127350000D03*
%TO.P,Chevron,2,2*%
%TO.N,Net-(<\u002CDiode1-A)*%
X203762500Y-129550000D03*
%TD*%
%TO.P,Tilde,1,1*%
%TO.N,Column 0*%
X6025000Y-70200000D03*
%TO.P,Tilde,2,2*%
%TO.N,Net-(`~Diode1-A)*%
X18025000Y-72400000D03*
%TD*%
%TO.P,Equals,1,1*%
%TO.N,Column 12*%
X234625000Y-70200000D03*
%TO.P,Equals,2,2*%
%TO.N,Net-(=+Diode1-A)*%
X246625000Y-72400000D03*
%TD*%
%TO.P,F8,1,1*%
%TO.N,Column 8*%
X158425000Y-51150000D03*
%TO.P,F8,2,2*%
%TO.N,Net-(F8Diode1-A)*%
X170425000Y-53350000D03*
%TD*%
%TO.P,Two,1,1*%
%TO.N,Column 2*%
X44125000Y-70200000D03*
%TO.P,Two,2,2*%
%TO.N,Net-(2@Diode1-A)*%
X56125000Y-72400000D03*
%TD*%
%TO.P,Tab,1,1*%
%TO.N,Column 0*%
X10500000Y-89250000D03*
%TO.P,Tab,2,2*%
%TO.N,Net-(TabDiode1-A)*%
X22500000Y-91450000D03*
%TD*%
%TO.P,Eight,1,1*%
%TO.N,Column 8*%
X158425000Y-70200000D03*
%TO.P,Eight,2,2*%
%TO.N,Net-(8\u002ADiode1-A)*%
X170425000Y-72400000D03*
%TD*%
%TO.P,Backspace,1,1*%
%TO.N,Column 14*%
X272725000Y-70200000D03*
%TO.P,Backspace,2,2*%
%TO.N,Net-(BackspaceDiode2-A)*%
X284725000Y-72400000D03*
%TD*%
%TO.P,D,1,1*%
%TO.N,Column 3*%
X77587500Y-108300000D03*
%TO.P,D,2,2*%
%TO.N,Net-(DDiode1-A)*%
X89587500Y-110500000D03*
%TD*%
%TO.P,Caps Lock,1,1*%
%TO.N,Column 0*%
X13168750Y-108300000D03*
%TO.P,Caps Lock,2,2*%
%TO.N,Net-(CapsLockDiode1-A)*%
X25168750Y-110500000D03*
%TD*%
%TO.P,Three,1,1*%
%TO.N,Column 3*%
X63175000Y-70200000D03*
%TO.P,Three,2,2*%
%TO.N,Net-(3#Diode1-A)*%
X75175000Y-72400000D03*
%TD*%
%TO.P,Escape,1,1*%
%TO.N,Column 0*%
X6025000Y-51150000D03*
%TO.P,Escape,2,2*%
%TO.N,Net-(EscDiode1-A)*%
X18025000Y-53350000D03*
%TD*%
%TO.P,F2,1,1*%
%TO.N,Column 2*%
X44125000Y-51150000D03*
%TO.P,F2,2,2*%
%TO.N,Net-(F2Diode1-A)*%
X56125000Y-53350000D03*
%TD*%
%TO.P,Delete,1,1*%
%TO.N,Column 14*%
X272725000Y-51150000D03*
%TO.P,Delete,2,2*%
%TO.N,Net-(DelDiode2-A)*%
X284725000Y-53350000D03*
%TD*%
%TO.P,T,1,1*%
%TO.N,Column 5*%
X110512500Y-89250000D03*
%TO.P,T,2,2*%
%TO.N,Net-(TDiode1-A)*%
X122512500Y-91450000D03*
%TD*%
%TO.P,G,1,1*%
%TO.N,Column 5*%
X115687500Y-108300000D03*
%TO.P,G,2,2*%
%TO.N,Net-(GDiode1-A)*%
X127687500Y-110500000D03*
%TD*%
%TO.P,Space,1,1*%
%TO.N,Column 7*%
X172712500Y-146400000D03*
%TO.P,Space,2,2*%
%TO.N,Net-(SpaceDiode4-A)*%
X184712500Y-148600000D03*
%TD*%
%TO.P,X,1,1*%
%TO.N,Column 3*%
X77462500Y-127350000D03*
%TO.P,X,2,2*%
%TO.N,Net-(XDiode1-A)*%
X89462500Y-129550000D03*
%TD*%
%TO.P,Zero,1,1*%
%TO.N,Column 10*%
X196525000Y-70200000D03*
%TO.P,Zero,2,2*%
%TO.N,Net-(0)Diode1-A)*%
X208525000Y-72400000D03*
%TD*%
%TO.P,Blank Shift,1,1*%
%TO.N,Column 12*%
X251293750Y-127350000D03*
%TO.P,Blank Shift,2,2*%
%TO.N,Net-(ShiftDiode2-A)*%
X263293750Y-129550000D03*
%TD*%
%TO.P,Space,1,1*%
%TO.N,Column 4*%
X86987500Y-146420000D03*
%TO.P,Space,2,2*%
%TO.N,Net-(SpaceDiode1-A)*%
X98987500Y-148620000D03*
%TD*%
%TO.P,Angle bracket,1,1*%
%TO.N,Column 10*%
X210812500Y-127350000D03*
%TO.P,Angle bracket,2,2*%
%TO.N,Net-(>.Diode1-A)*%
X222812500Y-129550000D03*
%TD*%
%TO.P,F4,1,1*%
%TO.N,Column 4*%
X82225000Y-51150000D03*
%TO.P,F4,2,2*%
%TO.N,Net-(F4Diode1-A)*%
X94225000Y-53350000D03*
%TD*%
%TO.P,F3,1,1*%
%TO.N,Column 3*%
X63175000Y-51150000D03*
%TO.P,F3,2,2*%
%TO.N,Net-(F3Diode1-A)*%
X75175000Y-53350000D03*
%TD*%
%TO.P,J,1,1*%
%TO.N,Column 7*%
X153787500Y-108300000D03*
%TO.P,J,2,2*%
%TO.N,Net-(JDiode1-A)*%
X165787500Y-110500000D03*
%TD*%
%TO.P,Down Arrow,1,1*%
%TO.N,Column 10*%
X234625000Y-146400000D03*
%TO.P,Down Arrow,2,2*%
%TO.N,Net-(DownDiode1-A)*%
X246625000Y-148600000D03*
%TD*%
%TO.P,O,1,1*%
%TO.N,Column 9*%
X186712500Y-89250000D03*
%TO.P,O,2,2*%
%TO.N,Net-(ODiode1-A)*%
X198712500Y-91450000D03*
%TD*%
%TO.P,W,1,1*%
%TO.N,Column 2*%
X53362500Y-89250000D03*
%TO.P,W,2,2*%
%TO.N,Net-(WDiode1-A)*%
X65362500Y-91450000D03*
%TD*%
%TO.P,Nine,1,1*%
%TO.N,Column 9*%
X177475000Y-70200000D03*
%TO.P,Nine,2,2*%
%TO.N,Net-(9(Diode1-A)*%
X189475000Y-72400000D03*
%TD*%
%TO.P,V,1,1*%
%TO.N,Column 5*%
X115562500Y-127350000D03*
%TO.P,V,2,2*%
%TO.N,Net-(VDiode1-A)*%
X127562500Y-129550000D03*
%TD*%
%TO.P,Backslash,1,1*%
%TO.N,Column 13*%
X267742500Y-89250000D03*
%TO.P,Backslash,2,2*%
%TO.N,Net-(\u005C|Diode1-A)*%
X279742500Y-91450000D03*
%TD*%
%TO.P,F9,1,1*%
%TO.N,Column 9*%
X177475000Y-51150000D03*
%TO.P,F9,2,2*%
%TO.N,Net-(F9Diode1-A)*%
X189475000Y-53350000D03*
%TD*%
%TO.P,Space,1,1*%
%TO.N,Column 5*%
X115562500Y-146400000D03*
%TO.P,Space,2,2*%
%TO.N,Net-(SpaceDiode2-A)*%
X127562500Y-148600000D03*
%TD*%
%TO.P,C,1,1*%
%TO.N,Column 4*%
X96512500Y-127350000D03*
%TO.P,C,2,2*%
%TO.N,Net-(CDiode1-A)*%
X108512500Y-129550000D03*
%TD*%
%TO.P,F7,1,1*%
%TO.N,Column 7*%
X139375000Y-51150000D03*
%TO.P,F7,2,2*%
%TO.N,Net-(F7Diode1-A)*%
X151375000Y-53350000D03*
%TD*%
%TO.P,A,1,1*%
%TO.N,Column 1*%
X39487500Y-108400000D03*
%TO.P,A,2,2*%
%TO.N,Net-(ADiode1-A)*%
X51487500Y-110600000D03*
%TD*%
%TO.P,Right,1,1*%
%TO.N,Column 12*%
X272725000Y-146400000D03*
%TO.P,Right,2,2*%
%TO.N,Net-(RightDiode1-A)*%
X284725000Y-148600000D03*
%TD*%
%TO.P,Blank Shift,1,1*%
%TO.N,Column 1*%
X34493750Y-126920000D03*
%TO.P,Blank Shift,2,2*%
%TO.N,Net-(ShiftDiode3-A)*%
X46493750Y-129120000D03*
%TD*%
%TO.P,Function,1,1*%
%TO.N,Column 0*%
X6025000Y-146400000D03*
%TO.P,Function,2,2*%
%TO.N,Net-(FnDiode1-A)*%
X18025000Y-148600000D03*
%TD*%
%TO.P,Open Sq. Bracket,1,1*%
%TO.N,Column 11*%
X224812500Y-89250000D03*
%TO.P,Open Sq. Bracket,2,2*%
%TO.N,Net-([{Diode1-A)*%
X236812500Y-91450000D03*
%TD*%
%TO.P,I,1,1*%
%TO.N,Column 8*%
X167662500Y-89250000D03*
%TO.P,I,2,2*%
%TO.N,Net-(IDiode1-A)*%
X179662500Y-91450000D03*
%TD*%
%TO.P,F11,1,1*%
%TO.N,Column 11*%
X215575000Y-51150000D03*
%TO.P,F11,2,2*%
%TO.N,Net-(F11Diode1-A)*%
X227575000Y-53350000D03*
%TD*%
%TO.P,Y,1,1*%
%TO.N,Column 6*%
X129562500Y-89250000D03*
%TO.P,Y,2,2*%
%TO.N,Net-(YDiode1-A)*%
X141562500Y-91450000D03*
%TD*%
%TO.P,R,1,1*%
%TO.N,Column 4*%
X91462500Y-89250000D03*
%TO.P,R,2,2*%
%TO.N,Net-(RDiode1-A)*%
X103462500Y-91450000D03*
%TD*%
%TO.P,Shift,1,1*%
%TO.N,Column 13*%
X272725000Y-127350000D03*
%TO.P,Shift,2,2*%
%TO.N,Net-(ShiftDiode4-A)*%
X284725000Y-129550000D03*
%TD*%
%TO.P,F12,1,1*%
%TO.N,Column 12*%
X234625000Y-51150000D03*
%TO.P,F12,2,2*%
%TO.N,Net-(F12Diode1-A)*%
X246625000Y-53350000D03*
%TD*%
%TO.P,Z,1,1*%
%TO.N,Column 2*%
X58412500Y-127350000D03*
%TO.P,Z,2,2*%
%TO.N,Net-(ZDiode1-A)*%
X70412500Y-129550000D03*
%TD*%
%TO.P,Closed Sq. Bracket,1,1*%
%TO.N,Column 12*%
X243862500Y-89250000D03*
%TO.P,Closed Sq. Bracket,2,2*%
%TO.N,Net-(]}Diode1-A)*%
X255862500Y-91450000D03*
%TD*%
%TO.P,Four,1,1*%
%TO.N,Column 4*%
X82225000Y-70200000D03*
%TO.P,Four,2,2*%
%TO.N,Net-(4$Diode1-A)*%
X94225000Y-72400000D03*
%TD*%
D13*
%TO.P,IDiode1,1,K*%
%TO.N,Row 2*%
X180825000Y-103182500D03*
D14*
%TO.P,IDiode1,2,A*%
%TO.N,Net-(IDiode1-A)*%
X180825000Y-95562500D03*
%TD*%
D13*
%TO.P,>.Diode1,1,K*%
%TO.N,Row 4*%
X223550000Y-140130000D03*
D14*
%TO.P,>.Diode1,2,A*%
%TO.N,Net-(>.Diode1-A)*%
X223550000Y-132510000D03*
%TD*%
D13*
%TO.P,[{Diode1,1,K*%
%TO.N,Row 2*%
X237975000Y-103182500D03*
D14*
%TO.P,[{Diode1,2,A*%
%TO.N,Net-([{Diode1-A)*%
X237975000Y-95562500D03*
%TD*%
D13*
%TO.P,`~Diode1,1,K*%
%TO.N,Row 1*%
X19050000Y-83343750D03*
D14*
%TO.P,`~Diode1,2,A*%
%TO.N,Net-(`~Diode1-A)*%
X19050000Y-75723750D03*
%TD*%
D13*
%TO.P,EnterDiode1,1,K*%
%TO.N,Row 3*%
X261920000Y-121320000D03*
D14*
%TO.P,EnterDiode1,2,A*%
%TO.N,Net-(EnterDiode1-A)*%
X261920000Y-113700000D03*
%TD*%
D13*
%TO.P,NDiode1,1,K*%
%TO.N,Row 4*%
X166400000Y-140160000D03*
D14*
%TO.P,NDiode1,2,A*%
%TO.N,Net-(NDiode1-A)*%
X166400000Y-132540000D03*
%TD*%
D13*
%TO.P,ShiftDiode3,1,K*%
%TO.N,Row 4*%
X47625000Y-139541250D03*
D14*
%TO.P,ShiftDiode3,2,A*%
%TO.N,Net-(ShiftDiode3-A)*%
X47625000Y-131921250D03*
%TD*%
D13*
%TO.P,=+Diode1,1,K*%
%TO.N,Row 1*%
X247650000Y-83343750D03*
D14*
%TO.P,=+Diode1,2,A*%
%TO.N,Net-(=+Diode1-A)*%
X247650000Y-75723750D03*
%TD*%
D13*
%TO.P,UDiode1,1,K*%
%TO.N,Row 2*%
X161775000Y-103182500D03*
D14*
%TO.P,UDiode1,2,A*%
%TO.N,Net-(UDiode1-A)*%
X161775000Y-95562500D03*
%TD*%
D13*
%TO.P,SpaceDiode1,1,K*%
%TO.N,Row 5*%
X100012500Y-159543750D03*
D14*
%TO.P,SpaceDiode1,2,A*%
%TO.N,Net-(SpaceDiode1-A)*%
X100012500Y-151923750D03*
%TD*%
D13*
%TO.P,QDiode1,1,K*%
%TO.N,Row 2*%
X47475000Y-103182500D03*
D14*
%TO.P,QDiode1,2,A*%
%TO.N,Net-(QDiode1-A)*%
X47475000Y-95562500D03*
%TD*%
D13*
%TO.P,1!Diode1,1,K*%
%TO.N,Row 1*%
X38100000Y-83343750D03*
D14*
%TO.P,1!Diode1,2,A*%
%TO.N,Net-(1!Diode1-A)*%
X38100000Y-75723750D03*
%TD*%
D13*
%TO.P,0)Diode1,1,K*%
%TO.N,Row 1*%
X209550000Y-83343750D03*
D14*
%TO.P,0)Diode1,2,A*%
%TO.N,Net-(0)Diode1-A)*%
X209550000Y-75723750D03*
%TD*%
D13*
%TO.P,PDiode1,1,K*%
%TO.N,Row 2*%
X218925000Y-103182500D03*
D14*
%TO.P,PDiode1,2,A*%
%TO.N,Net-(PDiode1-A)*%
X218925000Y-95562500D03*
%TD*%
D13*
%TO.P,DelDiode2,1,K*%
%TO.N,Row 0*%
X285750000Y-65722500D03*
D14*
%TO.P,DelDiode2,2,A*%
%TO.N,Net-(DelDiode2-A)*%
X285750000Y-58102500D03*
%TD*%
D13*
%TO.P,5\u0025Diode1,1,K*%
%TO.N,Row 1*%
X114300000Y-83343750D03*
D14*
%TO.P,5\u0025Diode1,2,A*%
%TO.N,Net-(5\u0025Diode1-A)*%
X114300000Y-75723750D03*
%TD*%
D13*
%TO.P,SDiode1,1,K*%
%TO.N,Row 3*%
X71450000Y-121110000D03*
D14*
%TO.P,SDiode1,2,A*%
%TO.N,Net-(SDiode1-A)*%
X71450000Y-113490000D03*
%TD*%
D13*
%TO.P,SpaceDiode4,1,K*%
%TO.N,Row 5*%
X185737500Y-160972500D03*
D14*
%TO.P,SpaceDiode4,2,A*%
%TO.N,Net-(SpaceDiode4-A)*%
X185737500Y-153352500D03*
%TD*%
D13*
%TO.P,BackspaceDiode1,1,K*%
%TO.N,Row 1*%
X266700000Y-84296250D03*
D14*
%TO.P,BackspaceDiode1,2,A*%
%TO.N,Net-(BackspaceDiode1-A)*%
X266700000Y-76676250D03*
%TD*%
D13*
%TO.P,F9Diode1,1,K*%
%TO.N,Row 0*%
X190500000Y-64293750D03*
D14*
%TO.P,F9Diode1,2,A*%
%TO.N,Net-(F9Diode1-A)*%
X190500000Y-56673750D03*
%TD*%
D13*
%TO.P,EDiode1,1,K*%
%TO.N,Row 2*%
X85575000Y-103182500D03*
D14*
%TO.P,EDiode1,2,A*%
%TO.N,Net-(EDiode1-A)*%
X85575000Y-95562500D03*
%TD*%
D13*
%TO.P,ControlDiode1,1,K*%
%TO.N,Row 5*%
X38100000Y-160972500D03*
D14*
%TO.P,ControlDiode1,2,A*%
%TO.N,Net-(ControlDiode1-A)*%
X38100000Y-153352500D03*
%TD*%
D13*
%TO.P,ShiftDiode2,1,K*%
%TO.N,Row 4*%
X264318750Y-139541250D03*
D14*
%TO.P,ShiftDiode2,2,A*%
%TO.N,Net-(ShiftDiode2-A)*%
X264318750Y-131921250D03*
%TD*%
D13*
%TO.P,F10Diode1,1,K*%
%TO.N,Row 0*%
X209550000Y-64293750D03*
D14*
%TO.P,F10Diode1,2,A*%
%TO.N,Net-(F10Diode1-A)*%
X209550000Y-56673750D03*
%TD*%
D13*
%TO.P,F3Diode1,1,K*%
%TO.N,Row 0*%
X76200000Y-64293750D03*
D14*
%TO.P,F3Diode1,2,A*%
%TO.N,Net-(F3Diode1-A)*%
X76200000Y-56673750D03*
%TD*%
D13*
%TO.P,ShiftDiode1,1,K*%
%TO.N,Row 4*%
X21431250Y-139541250D03*
D14*
%TO.P,ShiftDiode1,2,A*%
%TO.N,Net-(ShiftDiode1-A)*%
X21431250Y-131921250D03*
%TD*%
D13*
%TO.P,EscDiode1,1,K*%
%TO.N,Row 0*%
X19050000Y-64293750D03*
D14*
%TO.P,EscDiode1,2,A*%
%TO.N,Net-(EscDiode1-A)*%
X19050000Y-56673750D03*
%TD*%
D13*
%TO.P,HDiode1,1,K*%
%TO.N,Row 3*%
X147650000Y-121110000D03*
D14*
%TO.P,HDiode1,2,A*%
%TO.N,Net-(HDiode1-A)*%
X147650000Y-113490000D03*
%TD*%
D13*
%TO.P,LDiode1,1,K*%
%TO.N,Row 3*%
X204800000Y-121110000D03*
D14*
%TO.P,LDiode1,2,A*%
%TO.N,Net-(LDiode1-A)*%
X204800000Y-113490000D03*
%TD*%
D13*
%TO.P,VDiode1,1,K*%
%TO.N,Row 4*%
X128300000Y-140160000D03*
D14*
%TO.P,VDiode1,2,A*%
%TO.N,Net-(VDiode1-A)*%
X128300000Y-132540000D03*
%TD*%
D13*
%TO.P,F6Diode1,1,K*%
%TO.N,Row 0*%
X133350000Y-64293750D03*
D14*
%TO.P,F6Diode1,2,A*%
%TO.N,Net-(F6Diode1-A)*%
X133350000Y-56673750D03*
%TD*%
D13*
%TO.P,KDiode1,1,K*%
%TO.N,Row 3*%
X185750000Y-121110000D03*
D14*
%TO.P,KDiode1,2,A*%
%TO.N,Net-(KDiode1-A)*%
X185750000Y-113490000D03*
%TD*%
D13*
%TO.P,BackspaceDiode2,1,K*%
%TO.N,Row 1*%
X285750000Y-84772500D03*
D14*
%TO.P,BackspaceDiode2,2,A*%
%TO.N,Net-(BackspaceDiode2-A)*%
X285750000Y-77152500D03*
%TD*%
D13*
%TO.P,TDiode1,1,K*%
%TO.N,Row 2*%
X123675000Y-103182500D03*
D14*
%TO.P,TDiode1,2,A*%
%TO.N,Net-(TDiode1-A)*%
X123675000Y-95562500D03*
%TD*%
D13*
%TO.P,MDiode1,1,K*%
%TO.N,Row 4*%
X185450000Y-140160000D03*
D14*
%TO.P,MDiode1,2,A*%
%TO.N,Net-(MDiode1-A)*%
X185450000Y-132540000D03*
%TD*%
D13*
%TO.P,F1Diode1,1,K*%
%TO.N,Row 0*%
X38100000Y-64293750D03*
D14*
%TO.P,F1Diode1,2,A*%
%TO.N,Net-(F1Diode1-A)*%
X38100000Y-56673750D03*
%TD*%
D13*
%TO.P,FnDiode1,1,K*%
%TO.N,Row 5*%
X19050000Y-160972500D03*
D14*
%TO.P,FnDiode1,2,A*%
%TO.N,Net-(FnDiode1-A)*%
X19050000Y-153352500D03*
%TD*%
D13*
%TO.P,ShiftDiode4,1,K*%
%TO.N,Row 4*%
X285750000Y-139541250D03*
D14*
%TO.P,ShiftDiode4,2,A*%
%TO.N,Net-(ShiftDiode4-A)*%
X285750000Y-131921250D03*
%TD*%
D13*
%TO.P,F7Diode1,1,K*%
%TO.N,Row 0*%
X152400000Y-64293750D03*
D14*
%TO.P,F7Diode1,2,A*%
%TO.N,Net-(F7Diode1-A)*%
X152400000Y-56673750D03*
%TD*%
D13*
%TO.P,XDiode1,1,K*%
%TO.N,Row 4*%
X90200000Y-140160000D03*
D14*
%TO.P,XDiode1,2,A*%
%TO.N,Net-(XDiode1-A)*%
X90200000Y-132540000D03*
%TD*%
D13*
%TO.P,WDiode1,1,K*%
%TO.N,Row 2*%
X66525000Y-103182500D03*
D14*
%TO.P,WDiode1,2,A*%
%TO.N,Net-(WDiode1-A)*%
X66525000Y-95562500D03*
%TD*%
D13*
%TO.P,DDiode1,1,K*%
%TO.N,Row 3*%
X90500000Y-121110000D03*
D14*
%TO.P,DDiode1,2,A*%
%TO.N,Net-(DDiode1-A)*%
X90500000Y-113490000D03*
%TD*%
D13*
%TO.P,9(Diode1,1,K*%
%TO.N,Row 1*%
X190500000Y-83343750D03*
D14*
%TO.P,9(Diode1,2,A*%
%TO.N,Net-(9(Diode1-A)*%
X190500000Y-75723750D03*
%TD*%
D13*
%TO.P,3#Diode1,1,K*%
%TO.N,Row 1*%
X76200000Y-83343750D03*
D14*
%TO.P,3#Diode1,2,A*%
%TO.N,Net-(3#Diode1-A)*%
X76200000Y-75723750D03*
%TD*%
D13*
%TO.P,6^Diode1,1,K*%
%TO.N,Row 1*%
X133350000Y-83343750D03*
D14*
%TO.P,6^Diode1,2,A*%
%TO.N,Net-(6^Diode1-A)*%
X133350000Y-75723750D03*
%TD*%
D13*
%TO.P,2@Diode1,1,K*%
%TO.N,Row 1*%
X57150000Y-83343750D03*
D14*
%TO.P,2@Diode1,2,A*%
%TO.N,Net-(2@Diode1-A)*%
X57150000Y-75723750D03*
%TD*%
D13*
%TO.P,F4Diode1,1,K*%
%TO.N,Row 0*%
X95250000Y-64293750D03*
D14*
%TO.P,F4Diode1,2,A*%
%TO.N,Net-(F4Diode1-A)*%
X95250000Y-56673750D03*
%TD*%
D13*
%TO.P,F12Diode1,1,K*%
%TO.N,Row 0*%
X247840000Y-64503750D03*
D14*
%TO.P,F12Diode1,2,A*%
%TO.N,Net-(F12Diode1-A)*%
X247840000Y-56883750D03*
%TD*%
D13*
%TO.P,F5Diode1,1,K*%
%TO.N,Row 0*%
X114300000Y-64293750D03*
D14*
%TO.P,F5Diode1,2,A*%
%TO.N,Net-(F5Diode1-A)*%
X114300000Y-56673750D03*
%TD*%
D13*
%TO.P,8\u002ADiode1,1,K*%
%TO.N,Row 1*%
X171450000Y-83343750D03*
D14*
%TO.P,8\u002ADiode1,2,A*%
%TO.N,Net-(8\u002ADiode1-A)*%
X171450000Y-75723750D03*
%TD*%
D13*
%TO.P,/?Diode1,1,K*%
%TO.N,Row 4*%
X242600000Y-140160000D03*
D14*
%TO.P,/?Diode1,2,A*%
%TO.N,Net-(/?Diode1-A)*%
X242600000Y-132540000D03*
%TD*%
D13*
%TO.P,CmdDiode1,1,K*%
%TO.N,Row 5*%
X76200000Y-160972500D03*
D14*
%TO.P,CmdDiode1,2,A*%
%TO.N,Net-(CmdDiode1-A)*%
X76200000Y-153352500D03*
%TD*%
D13*
%TO.P,CapsLockDiode1,1,K*%
%TO.N,Row 3*%
X30440000Y-118380000D03*
D14*
%TO.P,CapsLockDiode1,2,A*%
%TO.N,Net-(CapsLockDiode1-A)*%
X30440000Y-110760000D03*
%TD*%
D13*
%TO.P,DownDiode1,1,K*%
%TO.N,Row 5*%
X247650000Y-160972500D03*
D14*
%TO.P,DownDiode1,2,A*%
%TO.N,Net-(DownDiode1-A)*%
X247650000Y-153352500D03*
%TD*%
D13*
%TO.P,LeftDiode1,1,K*%
%TO.N,Row 5*%
X228600000Y-160972500D03*
D14*
%TO.P,LeftDiode1,2,A*%
%TO.N,Net-(LeftDiode1-A)*%
X228600000Y-153352500D03*
%TD*%
D13*
%TO.P,F11Diode1,1,K*%
%TO.N,Row 0*%
X228600000Y-64293750D03*
D14*
%TO.P,F11Diode1,2,A*%
%TO.N,Net-(F11Diode1-A)*%
X228600000Y-56673750D03*
%TD*%
D13*
%TO.P,SpaceDiode2,1,K*%
%TO.N,Row 5*%
X128587500Y-159543750D03*
D14*
%TO.P,SpaceDiode2,2,A*%
%TO.N,Net-(SpaceDiode2-A)*%
X128587500Y-151923750D03*
%TD*%
D13*
%TO.P,UpDiode1,1,K*%
%TO.N,Row 5*%
X266700000Y-160972500D03*
D14*
%TO.P,UpDiode1,2,A*%
%TO.N,Net-(UpDiode1-A)*%
X266700000Y-153352500D03*
%TD*%
D13*
%TO.P,SpaceDiode3,1,K*%
%TO.N,Row 5*%
X157162500Y-160020000D03*
D14*
%TO.P,SpaceDiode3,2,A*%
%TO.N,Net-(SpaceDiode3-A)*%
X157162500Y-152400000D03*
%TD*%
D13*
%TO.P,DelDiode1,1,K*%
%TO.N,Row 0*%
X266700000Y-64293750D03*
D14*
%TO.P,DelDiode1,2,A*%
%TO.N,Net-(DelDiode1-A)*%
X266700000Y-56673750D03*
%TD*%
D13*
%TO.P,CmdDiode2,1,K*%
%TO.N,Row 5*%
X209530000Y-161180000D03*
D14*
%TO.P,CmdDiode2,2,A*%
%TO.N,Net-(CmdDiode2-A)*%
X209530000Y-153560000D03*
%TD*%
D13*
%TO.P,OptionDiode1,1,K*%
%TO.N,Row 5*%
X57150000Y-160972500D03*
D14*
%TO.P,OptionDiode1,2,A*%
%TO.N,Net-(OptionDiode1-A)*%
X57150000Y-153352500D03*
%TD*%
D13*
%TO.P,ODiode1,1,K*%
%TO.N,Row 2*%
X199875000Y-103182500D03*
D14*
%TO.P,ODiode1,2,A*%
%TO.N,Net-(ODiode1-A)*%
X199875000Y-95562500D03*
%TD*%
D13*
%TO.P,TabDiode1,1,K*%
%TO.N,Row 2*%
X23812500Y-103182500D03*
D14*
%TO.P,TabDiode1,2,A*%
%TO.N,Net-(TabDiode1-A)*%
X23812500Y-95562500D03*
%TD*%
D13*
%TO.P,ADiode1,1,K*%
%TO.N,Row 3*%
X52400000Y-121110000D03*
D14*
%TO.P,ADiode1,2,A*%
%TO.N,Net-(ADiode1-A)*%
X52400000Y-113490000D03*
%TD*%
D13*
%TO.P,4$Diode1,1,K*%
%TO.N,Row 1*%
X95250000Y-83343750D03*
D14*
%TO.P,4$Diode1,2,A*%
%TO.N,Net-(4$Diode1-A)*%
X95250000Y-75723750D03*
%TD*%
D13*
%TO.P,F2Diode1,1,K*%
%TO.N,Row 0*%
X57150000Y-64293750D03*
D14*
%TO.P,F2Diode1,2,A*%
%TO.N,Net-(F2Diode1-A)*%
X57150000Y-56673750D03*
%TD*%
D13*
%TO.P,RDiode1,1,K*%
%TO.N,Row 2*%
X104625000Y-103182500D03*
D14*
%TO.P,RDiode1,2,A*%
%TO.N,Net-(RDiode1-A)*%
X104625000Y-95562500D03*
%TD*%
D13*
%TO.P,'"Diode1,1,K*%
%TO.N,Row 3*%
X242900000Y-121110000D03*
D14*
%TO.P,'"Diode1,2,A*%
%TO.N,Net-('"Diode1-A)*%
X242900000Y-113490000D03*
%TD*%
D13*
%TO.P,YDiode1,1,K*%
%TO.N,Row 2*%
X142725000Y-103182500D03*
D14*
%TO.P,YDiode1,2,A*%
%TO.N,Net-(YDiode1-A)*%
X142725000Y-95562500D03*
%TD*%
D13*
%TO.P,EnterDiode2,1,K*%
%TO.N,Row 3*%
X283368750Y-120491250D03*
D14*
%TO.P,EnterDiode2,2,A*%
%TO.N,Net-(EnterDiode2-A)*%
X283368750Y-112871250D03*
%TD*%
D13*
%TO.P,GDiode1,1,K*%
%TO.N,Row 3*%
X128600000Y-121110000D03*
D14*
%TO.P,GDiode1,2,A*%
%TO.N,Net-(GDiode1-A)*%
X128600000Y-113490000D03*
%TD*%
D13*
%TO.P,<\u002CDiode1,1,K*%
%TO.N,Row 4*%
X204500000Y-140160000D03*
D14*
%TO.P,<\u002CDiode1,2,A*%
%TO.N,Net-(<\u002CDiode1-A)*%
X204500000Y-132540000D03*
%TD*%
D13*
%TO.P,ZDiode1,1,K*%
%TO.N,Row 4*%
X71150000Y-140160000D03*
D14*
%TO.P,ZDiode1,2,A*%
%TO.N,Net-(ZDiode1-A)*%
X71150000Y-132540000D03*
%TD*%
D13*
%TO.P,JDiode1,1,K*%
%TO.N,Row 3*%
X166700000Y-121110000D03*
D14*
%TO.P,JDiode1,2,A*%
%TO.N,Net-(JDiode1-A)*%
X166700000Y-113490000D03*
%TD*%
D13*
%TO.P,F8Diode1,1,K*%
%TO.N,Row 0*%
X171450000Y-64293750D03*
D14*
%TO.P,F8Diode1,2,A*%
%TO.N,Net-(F8Diode1-A)*%
X171450000Y-56673750D03*
%TD*%
D13*
%TO.P,7&Diode1,1,K*%
%TO.N,Row 1*%
X152400000Y-83343750D03*
D14*
%TO.P,7&Diode1,2,A*%
%TO.N,Net-(7&Diode1-A)*%
X152400000Y-75723750D03*
%TD*%
D13*
%TO.P,RightDiode1,1,K*%
%TO.N,Row 5*%
X285750000Y-159543750D03*
D14*
%TO.P,RightDiode1,2,A*%
%TO.N,Net-(RightDiode1-A)*%
X285750000Y-151923750D03*
%TD*%
D13*
%TO.P,]}Diode1,1,K*%
%TO.N,Row 2*%
X257025000Y-103182500D03*
D14*
%TO.P,]}Diode1,2,A*%
%TO.N,Net-(]}Diode1-A)*%
X257025000Y-95562500D03*
%TD*%
D13*
%TO.P,FDiode1,1,K*%
%TO.N,Row 3*%
X109550000Y-121110000D03*
D14*
%TO.P,FDiode1,2,A*%
%TO.N,Net-(FDiode1-A)*%
X109550000Y-113490000D03*
%TD*%
D13*
%TO.P,;:Diode1,1,K*%
%TO.N,Row 3*%
X223850000Y-121110000D03*
D14*
%TO.P,;:Diode1,2,A*%
%TO.N,Net-(;:Diode1-A)*%
X223850000Y-113490000D03*
%TD*%
D13*
%TO.P,-_Diode1,1,K*%
%TO.N,Row 1*%
X228600000Y-83343750D03*
D14*
%TO.P,-_Diode1,2,A*%
%TO.N,Net-(-_Diode1-A)*%
X228600000Y-75723750D03*
%TD*%
D13*
%TO.P,BDiode1,1,K*%
%TO.N,Row 4*%
X147350000Y-140160000D03*
D14*
%TO.P,BDiode1,2,A*%
%TO.N,Net-(BDiode1-A)*%
X147350000Y-132540000D03*
%TD*%
D13*
%TO.P,CDiode1,1,K*%
%TO.N,Row 4*%
X109250000Y-140160000D03*
D14*
%TO.P,CDiode1,2,A*%
%TO.N,Net-(CDiode1-A)*%
X109250000Y-132540000D03*
%TD*%
D13*
%TO.P,\u005C|Diode1,1,K*%
%TO.N,Row 2*%
X282450000Y-103822500D03*
D14*
%TO.P,\u005C|Diode1,2,A*%
%TO.N,Net-(\u005C|Diode1-A)*%
X282450000Y-96202500D03*
%TD*%
D15*
%TO.N,Row 3*%
X246955735Y-44944265D03*
X264780000Y-117230000D03*
%TO.N,Row 1*%
X235850000Y-86520000D03*
X232724271Y-42987001D03*
%TO.N,Row 2*%
X257050000Y-87120000D03*
X245910000Y-43041000D03*
%TO.N,Net-(J2-GND)*%
X239640000Y-32870000D03*
%TO.N,Net-(J2-VCC)*%
X239679950Y-32070996D03*
%TD*%
D16*
%TO.N,Column 11*%
X233980000Y-143330000D02*
X250605000Y-143330000D01*
X215575000Y-49175000D02*
X215575000Y-51150000D01*
X232541700Y-17057000D02*
X230350000Y-19248700D01*
X243837000Y-17057000D02*
X232541700Y-17057000D01*
X250605000Y-143330000D02*
X253675000Y-146400000D01*
X230350000Y-19248700D02*
X230350000Y-40460000D01*
X224830000Y-45980000D02*
X218770000Y-45980000D01*
X224812500Y-103125000D02*
X229987500Y-108300000D01*
X215575000Y-70200000D02*
X215575000Y-80012500D01*
X229987500Y-108300000D02*
X229987500Y-127225000D01*
X218770000Y-45980000D02*
X215575000Y-49175000D01*
X215575000Y-80012500D02*
X224812500Y-89250000D01*
X224812500Y-89250000D02*
X224812500Y-103125000D01*
X229987500Y-127225000D02*
X229862500Y-127350000D01*
X229862500Y-127350000D02*
X229862500Y-139212500D01*
X246820000Y-20040000D02*
X243837000Y-17057000D01*
X229862500Y-139212500D02*
X233980000Y-143330000D01*
X215575000Y-51150000D02*
X215575000Y-70200000D01*
X230350000Y-40460000D02*
X224830000Y-45980000D01*
%TO.N,Net-('"Diode1-A)*%
X241987500Y-112577500D02*
X242900000Y-113490000D01*
X241987500Y-110500000D02*
X241987500Y-112577500D01*
%TO.N,Row 3*%
X260820000Y-101440000D02*
X260820000Y-91880000D01*
X258890000Y-89950000D02*
X249549000Y-80609000D01*
X249549000Y-75630000D02*
X249549000Y-48056684D01*
X260820000Y-91880000D02*
X258890000Y-89950000D01*
X264780000Y-117230000D02*
X264780000Y-105400000D01*
X249549000Y-47537530D02*
X246955735Y-44944265D01*
X249549000Y-80609000D02*
X249549000Y-75630000D01*
X249549000Y-48056684D02*
X249549000Y-47537530D01*
X264780000Y-105400000D02*
X260820000Y-101440000D01*
%TO.N,Net-(-_Diode1-A)*%
X227575000Y-74698750D02*
X228600000Y-75723750D01*
X227575000Y-72400000D02*
X227575000Y-74698750D01*
%TO.N,Row 1*%
X231280000Y-44480000D02*
X231280000Y-81950000D01*
X231280000Y-81950000D02*
X235850000Y-86520000D01*
X232724271Y-42987001D02*
X232724271Y-43035729D01*
X232724271Y-43035729D02*
X231280000Y-44480000D01*
%TO.N,Column 10*%
X196525000Y-51150000D02*
X196525000Y-70200000D01*
X196525000Y-70200000D02*
X196525000Y-80012500D01*
X231165000Y-142940000D02*
X234625000Y-146400000D01*
X245976000Y-16656000D02*
X232375600Y-16656000D01*
X210937500Y-108300000D02*
X210937500Y-127225000D01*
X210812500Y-127350000D02*
X210812500Y-133189892D01*
X196525000Y-80012500D02*
X205762500Y-89250000D01*
X205762500Y-89250000D02*
X205762500Y-103125000D01*
X202096000Y-45579000D02*
X196525000Y-51150000D01*
X210937500Y-127225000D02*
X210812500Y-127350000D01*
X220562608Y-142940000D02*
X231165000Y-142940000D01*
X229940000Y-40302900D02*
X224663900Y-45579000D01*
X205762500Y-103125000D02*
X210937500Y-108300000D01*
X249360000Y-20040000D02*
X245976000Y-16656000D01*
X224663900Y-45579000D02*
X202096000Y-45579000D01*
X229940000Y-19091600D02*
X229940000Y-40302900D01*
X210812500Y-133189892D02*
X220562608Y-142940000D01*
X232375600Y-16656000D02*
X229940000Y-19091600D01*
%TO.N,Net-(/?Diode1-A)*%
X241862500Y-131802500D02*
X242600000Y-132540000D01*
X241862500Y-129550000D02*
X241862500Y-131802500D01*
%TO.N,Net-(0)Diode1-A)*%
X208525000Y-74698750D02*
X209550000Y-75723750D01*
X208525000Y-72400000D02*
X208525000Y-74698750D01*
%TO.N,Net-(1!Diode1-A)*%
X37075000Y-72400000D02*
X37075000Y-74698750D01*
X37075000Y-74698750D02*
X38100000Y-75723750D01*
%TO.N,Column 1*%
X25075000Y-146400000D02*
X25075000Y-136338750D01*
X34312500Y-103225000D02*
X39487500Y-108400000D01*
X34255000Y-41970000D02*
X25075000Y-51150000D01*
X39487500Y-108400000D02*
X39487500Y-121926250D01*
X25075000Y-70200000D02*
X25075000Y-80012500D01*
X226327000Y-38812000D02*
X223169000Y-41970000D01*
X39487500Y-121926250D02*
X34493750Y-126920000D01*
X230880700Y-13047000D02*
X226327000Y-17600700D01*
X223169000Y-41970000D02*
X34255000Y-41970000D01*
X25075000Y-51150000D02*
X25075000Y-70200000D01*
X226327000Y-17600700D02*
X226327000Y-38812000D01*
X25075000Y-136338750D02*
X34493750Y-126920000D01*
X34312500Y-89250000D02*
X34312500Y-103225000D01*
X25075000Y-80012500D02*
X34312500Y-89250000D01*
X279840000Y-20040000D02*
X272847000Y-13047000D01*
X272847000Y-13047000D02*
X230880700Y-13047000D01*
%TO.N,Column 2*%
X58537500Y-108300000D02*
X58537500Y-127225000D01*
X274760000Y-20040000D02*
X268168000Y-13448000D01*
X53530000Y-141590000D02*
X58412500Y-136707500D01*
X268168000Y-13448000D02*
X231046800Y-13448000D01*
X53362500Y-103125000D02*
X58537500Y-108300000D01*
X52904000Y-42371000D02*
X44125000Y-51150000D01*
X44125000Y-146400000D02*
X48755000Y-141770000D01*
X226728000Y-38978100D02*
X223335100Y-42371000D01*
X226728000Y-17766800D02*
X226728000Y-38978100D01*
X44125000Y-70200000D02*
X44125000Y-80012500D01*
X53350000Y-141770000D02*
X53530000Y-141590000D01*
X58412500Y-136707500D02*
X58412500Y-127350000D01*
X223335100Y-42371000D02*
X52904000Y-42371000D01*
X58537500Y-127225000D02*
X58412500Y-127350000D01*
X53362500Y-89250000D02*
X53362500Y-103125000D01*
X44125000Y-80012500D02*
X53362500Y-89250000D01*
X48755000Y-141770000D02*
X53350000Y-141770000D01*
X44125000Y-51150000D02*
X44125000Y-70200000D01*
X231046800Y-13448000D02*
X226728000Y-17766800D01*
%TO.N,Net-(2@Diode1-A)*%
X56125000Y-72400000D02*
X56125000Y-74698750D01*
X56125000Y-74698750D02*
X57150000Y-75723750D01*
%TO.N,Net-(3#Diode1-A)*%
X75175000Y-72400000D02*
X75175000Y-74698750D01*
X75175000Y-74698750D02*
X76200000Y-75723750D01*
%TO.N,Column 3*%
X223501200Y-42772000D02*
X71553000Y-42772000D01*
X227129000Y-17932900D02*
X227129000Y-39144200D01*
X71553000Y-42772000D02*
X63175000Y-51150000D01*
X72412500Y-103125000D02*
X77587500Y-108300000D01*
X72412500Y-89250000D02*
X72412500Y-103125000D01*
X77462500Y-127350000D02*
X77462500Y-139037500D01*
X231212900Y-13849000D02*
X227129000Y-17932900D01*
X63175000Y-51150000D02*
X63175000Y-70200000D01*
X63175000Y-80012500D02*
X72412500Y-89250000D01*
X73830000Y-142670000D02*
X66940000Y-142670000D01*
X272220000Y-20040000D02*
X266029000Y-13849000D01*
X77462500Y-139037500D02*
X73830000Y-142670000D01*
X77587500Y-127225000D02*
X77462500Y-127350000D01*
X66940000Y-142670000D02*
X63210000Y-146400000D01*
X77587500Y-108300000D02*
X77587500Y-127225000D01*
X266029000Y-13849000D02*
X231212900Y-13849000D01*
X63210000Y-146400000D02*
X63175000Y-146400000D01*
X63175000Y-70200000D02*
X63175000Y-80012500D01*
X227129000Y-39144200D02*
X223501200Y-42772000D01*
%TO.N,Column 4*%
X263890000Y-14250000D02*
X231379000Y-14250000D01*
X269680000Y-20040000D02*
X263890000Y-14250000D01*
X96512500Y-127350000D02*
X96512500Y-138977500D01*
X96512500Y-138977500D02*
X93880000Y-141610000D01*
X91462500Y-89250000D02*
X91462500Y-94685907D01*
X90807500Y-142600000D02*
X92890000Y-142600000D01*
X227530000Y-39310300D02*
X223667300Y-43173000D01*
X91462500Y-85012500D02*
X91462500Y-89250000D01*
X223667300Y-43173000D02*
X90202000Y-43173000D01*
X90202000Y-43173000D02*
X82225000Y-51150000D01*
X93880000Y-141610000D02*
X92890000Y-142600000D01*
X82225000Y-70200000D02*
X82225000Y-75775000D01*
X96637500Y-99860907D02*
X96637500Y-108300000D01*
X86987500Y-146420000D02*
X90807500Y-142600000D01*
X96637500Y-108300000D02*
X96637500Y-127225000D01*
X227530000Y-18099000D02*
X227530000Y-39310300D01*
X82225000Y-51150000D02*
X82225000Y-70200000D01*
X82225000Y-75775000D02*
X91462500Y-85012500D01*
X231379000Y-14250000D02*
X227530000Y-18099000D01*
X96637500Y-127225000D02*
X96512500Y-127350000D01*
X91462500Y-94685907D02*
X96637500Y-99860907D01*
%TO.N,Net-(4$Diode1-A)*%
X94225000Y-74698750D02*
X95250000Y-75723750D01*
X94225000Y-72400000D02*
X94225000Y-74698750D01*
%TO.N,Net-(5\u0025Diode1-A)*%
X113275000Y-72400000D02*
X113275000Y-74698750D01*
X113275000Y-74698750D02*
X114300000Y-75723750D01*
%TO.N,Column 5*%
X110512500Y-89250000D02*
X110512500Y-103125000D01*
X115687500Y-127225000D02*
X115562500Y-127350000D01*
X227935000Y-18261100D02*
X227935000Y-39472400D01*
X227935000Y-39472400D02*
X223833400Y-43574000D01*
X223833400Y-43574000D02*
X108851000Y-43574000D01*
X261751000Y-14651000D02*
X231545100Y-14651000D01*
X115687500Y-108300000D02*
X115687500Y-127225000D01*
X115562500Y-127350000D02*
X115562500Y-146400000D01*
X101275000Y-51150000D02*
X101275000Y-70200000D01*
X231545100Y-14651000D02*
X227935000Y-18261100D01*
X267140000Y-20040000D02*
X261751000Y-14651000D01*
X108851000Y-43574000D02*
X101275000Y-51150000D01*
X101275000Y-75635907D02*
X110512500Y-84873407D01*
X110512500Y-103125000D02*
X115687500Y-108300000D01*
X101275000Y-70200000D02*
X101275000Y-75635907D01*
X110512500Y-84873407D02*
X110512500Y-89250000D01*
%TO.N,Column 6*%
X228336000Y-39638500D02*
X223999500Y-43975000D01*
X134612500Y-136875000D02*
X144137500Y-146400000D01*
X134737500Y-127225000D02*
X134612500Y-127350000D01*
X231711200Y-15052000D02*
X228336000Y-18427200D01*
X134612500Y-127350000D02*
X134612500Y-136875000D01*
X120325000Y-70200000D02*
X120325000Y-80012500D01*
X223999500Y-43975000D02*
X127500000Y-43975000D01*
X228336000Y-18427200D02*
X228336000Y-39638500D01*
X129562500Y-89250000D02*
X129562500Y-100772500D01*
X134737500Y-108300000D02*
X134737500Y-127225000D01*
X257072000Y-15052000D02*
X231711200Y-15052000D01*
X120325000Y-80012500D02*
X129562500Y-89250000D01*
X120325000Y-51150000D02*
X120325000Y-70200000D01*
X127500000Y-43975000D02*
X120325000Y-51150000D01*
X129562500Y-100772500D02*
X134737500Y-105947500D01*
X134737500Y-105947500D02*
X134737500Y-108300000D01*
X262060000Y-20040000D02*
X257072000Y-15052000D01*
%TO.N,Net-(6^Diode1-A)*%
X132325000Y-74698750D02*
X133350000Y-75723750D01*
X132325000Y-72400000D02*
X132325000Y-74698750D01*
%TO.N,Column 7*%
X148612500Y-89250000D02*
X148612500Y-103125000D01*
X228737000Y-18593300D02*
X228737000Y-39804600D01*
X139375000Y-51150000D02*
X139375000Y-70200000D01*
X146149000Y-44376000D02*
X139375000Y-51150000D01*
X148612500Y-103125000D02*
X153787500Y-108300000D01*
X228737000Y-39804600D02*
X224165600Y-44376000D01*
X153662500Y-127350000D02*
X153662500Y-134782500D01*
X139375000Y-80012500D02*
X148612500Y-89250000D01*
X254933000Y-15453000D02*
X231877300Y-15453000D01*
X153787500Y-108300000D02*
X153787500Y-127225000D01*
X231877300Y-15453000D02*
X228737000Y-18593300D01*
X153787500Y-127225000D02*
X153662500Y-127350000D01*
X224165600Y-44376000D02*
X146149000Y-44376000D01*
X259520000Y-20040000D02*
X254933000Y-15453000D01*
X139375000Y-70200000D02*
X139375000Y-80012500D01*
X165280000Y-146400000D02*
X172712500Y-146400000D01*
X153662500Y-134782500D02*
X165280000Y-146400000D01*
%TO.N,Net-(7&Diode1-A)*%
X151375000Y-72400000D02*
X151375000Y-74698750D01*
X151375000Y-74698750D02*
X152400000Y-75723750D01*
%TO.N,Column 8*%
X224331700Y-44777000D02*
X164798000Y-44777000D01*
X229138000Y-39970700D02*
X224331700Y-44777000D01*
X256980000Y-20040000D02*
X252794000Y-15854000D01*
X158425000Y-70200000D02*
X158425000Y-76325000D01*
X172712500Y-127350000D02*
X172712500Y-139262500D01*
X232043400Y-15854000D02*
X229138000Y-18759400D01*
X192140000Y-142760000D02*
X195780000Y-146400000D01*
X176210000Y-142760000D02*
X192140000Y-142760000D01*
X195780000Y-146400000D02*
X196525000Y-146400000D01*
X167662500Y-85562500D02*
X167662500Y-89250000D01*
X229138000Y-18759400D02*
X229138000Y-39970700D01*
X158425000Y-76325000D02*
X167662500Y-85562500D01*
X164798000Y-44777000D02*
X158425000Y-51150000D01*
X158425000Y-51150000D02*
X158425000Y-70200000D01*
X172837500Y-108300000D02*
X172837500Y-127225000D01*
X172837500Y-127225000D02*
X172712500Y-127350000D01*
X167662500Y-89250000D02*
X167662500Y-103125000D01*
X252794000Y-15854000D02*
X232043400Y-15854000D01*
X167662500Y-103125000D02*
X172837500Y-108300000D01*
X172712500Y-139262500D02*
X176210000Y-142760000D01*
%TO.N,Net-(8\u002ADiode1-A)*%
X170425000Y-74698750D02*
X171450000Y-75723750D01*
X170425000Y-72400000D02*
X170425000Y-74698750D01*
%TO.N,Net-(9(Diode1-A)*%
X189475000Y-74698750D02*
X190500000Y-75723750D01*
X189475000Y-72400000D02*
X189475000Y-74698750D01*
%TO.N,Column 9*%
X232209500Y-16255000D02*
X229539000Y-18925500D01*
X191887500Y-108300000D02*
X191887500Y-127225000D01*
X191762500Y-134802500D02*
X199680000Y-142720000D01*
X211895000Y-142720000D02*
X215575000Y-146400000D01*
X199680000Y-142720000D02*
X211895000Y-142720000D01*
X191887500Y-127225000D02*
X191762500Y-127350000D01*
X224497800Y-45178000D02*
X183447000Y-45178000D01*
X177475000Y-51150000D02*
X177475000Y-70200000D01*
X183447000Y-45178000D02*
X177475000Y-51150000D01*
X229539000Y-40136800D02*
X224497800Y-45178000D01*
X177475000Y-78365000D02*
X186712500Y-87602500D01*
X186712500Y-89250000D02*
X186712500Y-103125000D01*
X177475000Y-70200000D02*
X177475000Y-78365000D01*
X186712500Y-87602500D02*
X186712500Y-89250000D01*
X229539000Y-18925500D02*
X229539000Y-40136800D01*
X186712500Y-103125000D02*
X191887500Y-108300000D01*
X250655000Y-16255000D02*
X232209500Y-16255000D01*
X191762500Y-127350000D02*
X191762500Y-134802500D01*
X254440000Y-20040000D02*
X250655000Y-16255000D01*
%TO.N,Net-(;:Diode1-A)*%
X222937500Y-112577500D02*
X223850000Y-113490000D01*
X222937500Y-110500000D02*
X222937500Y-112577500D01*
%TO.N,Net-(<\u002CDiode1-A)*%
X203762500Y-131802500D02*
X204500000Y-132540000D01*
X203762500Y-129550000D02*
X203762500Y-131802500D01*
%TO.N,Column 12*%
X254850000Y-142740000D02*
X269065000Y-142740000D01*
X234625000Y-51150000D02*
X234625000Y-70200000D01*
X269065000Y-142740000D02*
X272725000Y-146400000D01*
X232707800Y-17458000D02*
X241698000Y-17458000D01*
X234625000Y-70200000D02*
X234625000Y-80012500D01*
X243862500Y-89250000D02*
X243862500Y-103125000D01*
X230758000Y-19407800D02*
X232707800Y-17458000D01*
X249037500Y-125093750D02*
X251293750Y-127350000D01*
X249037500Y-108300000D02*
X249037500Y-125093750D01*
X251293750Y-127350000D02*
X251293750Y-139183750D01*
X251293750Y-139183750D02*
X254850000Y-142740000D01*
X234625000Y-51150000D02*
X234625000Y-44039200D01*
X234625000Y-44039200D02*
X230758000Y-40172200D01*
X241698000Y-17458000D02*
X244280000Y-20040000D01*
X243862500Y-103125000D02*
X249037500Y-108300000D01*
X234625000Y-80012500D02*
X243862500Y-89250000D01*
X230758000Y-40172200D02*
X230758000Y-19407800D01*
%TO.N,Net-(=+Diode1-A)*%
X246625000Y-72400000D02*
X246625000Y-74698750D01*
X246625000Y-74698750D02*
X247650000Y-75723750D01*
%TO.N,Net-(>.Diode1-A)*%
X222812500Y-129550000D02*
X222812500Y-131772500D01*
X222812500Y-131772500D02*
X223550000Y-132510000D01*
%TO.N,Net-(ADiode1-A)*%
X51487500Y-110600000D02*
X51487500Y-112577500D01*
X51487500Y-112577500D02*
X52400000Y-113490000D01*
%TO.N,Net-(BDiode1-A)*%
X146612500Y-131802500D02*
X147350000Y-132540000D01*
X146612500Y-129550000D02*
X146612500Y-131802500D01*
%TO.N,Column 13*%
X267742500Y-105573750D02*
X270468750Y-108300000D01*
X270468750Y-108300000D02*
X270468750Y-125093750D01*
X232873900Y-17859000D02*
X231159000Y-19573900D01*
X239559000Y-17859000D02*
X232873900Y-17859000D01*
X233593900Y-42441000D02*
X248001000Y-42441000D01*
X253675000Y-51150000D02*
X253675000Y-70200000D01*
X231159000Y-40006100D02*
X233593900Y-42441000D01*
X262570000Y-89250000D02*
X267742500Y-89250000D01*
X267742500Y-89250000D02*
X267742500Y-105573750D01*
X270468750Y-125093750D02*
X272725000Y-127350000D01*
X248001000Y-42441000D02*
X253675000Y-48115000D01*
X231159000Y-19573900D02*
X231159000Y-40006100D01*
X241740000Y-20040000D02*
X239559000Y-17859000D01*
X253675000Y-70200000D02*
X253675000Y-80355000D01*
X253675000Y-80355000D02*
X262570000Y-89250000D01*
X253675000Y-48115000D02*
X253675000Y-51150000D01*
%TO.N,Net-(BackspaceDiode1-A)*%
X265675000Y-75651250D02*
X266700000Y-76676250D01*
X265675000Y-72400000D02*
X265675000Y-75651250D01*
%TO.N,Net-(CDiode1-A)*%
X108512500Y-131802500D02*
X109250000Y-132540000D01*
X108512500Y-129550000D02*
X108512500Y-131802500D01*
%TO.N,Column 0*%
X6025000Y-51150000D02*
X10121050Y-47053950D01*
X28603950Y-47053950D02*
X34088900Y-41569000D01*
X225926000Y-38645900D02*
X223002900Y-41569000D01*
X225926000Y-17434600D02*
X225926000Y-38645900D01*
X282380000Y-20040000D02*
X274986000Y-12646000D01*
X34088900Y-41569000D02*
X223002900Y-41569000D01*
X13168750Y-108300000D02*
X13168750Y-122031250D01*
X6025000Y-51150000D02*
X6025000Y-70200000D01*
X10500000Y-105631250D02*
X13168750Y-108300000D01*
X230714600Y-12646000D02*
X225926000Y-17434600D01*
X8300000Y-144125000D02*
X6025000Y-146400000D01*
X13168750Y-122031250D02*
X8300000Y-126900000D01*
X6025000Y-70200000D02*
X6025000Y-84775000D01*
X10121050Y-47053950D02*
X28603950Y-47053950D01*
X8300000Y-126900000D02*
X8300000Y-144125000D01*
X6025000Y-84775000D02*
X10500000Y-89250000D01*
X274986000Y-12646000D02*
X230714600Y-12646000D01*
X10500000Y-89250000D02*
X10500000Y-105631250D01*
%TO.N,Net-(CapsLockDiode1-A)*%
X25168750Y-110500000D02*
X30180000Y-110500000D01*
X30180000Y-110500000D02*
X30440000Y-110760000D01*
%TO.N,Net-(CmdDiode1-A)*%
X75175000Y-148600000D02*
X75175000Y-152327500D01*
X75175000Y-152327500D02*
X76200000Y-153352500D01*
%TO.N,Net-(CmdDiode2-A)*%
X208525000Y-148600000D02*
X208525000Y-152555000D01*
X208525000Y-152555000D02*
X209530000Y-153560000D01*
%TO.N,Net-(ControlDiode1-A)*%
X37075000Y-148600000D02*
X37075000Y-152327500D01*
X37075000Y-152327500D02*
X38100000Y-153352500D01*
%TO.N,Net-(DDiode1-A)*%
X89587500Y-110500000D02*
X89587500Y-112577500D01*
X89587500Y-112577500D02*
X90500000Y-113490000D01*
%TO.N,Net-(DelDiode1-A)*%
X265675000Y-55648750D02*
X266700000Y-56673750D01*
X265675000Y-53350000D02*
X265675000Y-55648750D01*
%TO.N,Net-(DownDiode1-A)*%
X246625000Y-148600000D02*
X246625000Y-152327500D01*
X246625000Y-152327500D02*
X247650000Y-153352500D01*
%TO.N,Net-(EDiode1-A)*%
X84412500Y-94400000D02*
X85575000Y-95562500D01*
X84412500Y-91450000D02*
X84412500Y-94400000D01*
%TO.N,Row 2*%
X245910000Y-43041000D02*
X245910000Y-43050000D01*
X249950000Y-47090000D02*
X249950000Y-80020000D01*
X249950000Y-80020000D02*
X257050000Y-87120000D01*
X245910000Y-43050000D02*
X249950000Y-47090000D01*
%TO.N,Net-(EnterDiode1-A)*%
X261037500Y-112817500D02*
X261920000Y-113700000D01*
X261037500Y-110500000D02*
X261037500Y-112817500D01*
%TO.N,Net-(EscDiode1-A)*%
X18025000Y-53350000D02*
X18025000Y-55648750D01*
X18025000Y-55648750D02*
X19050000Y-56673750D01*
%TO.N,Net-(F1Diode1-A)*%
X37075000Y-53350000D02*
X37075000Y-55648750D01*
X37075000Y-55648750D02*
X38100000Y-56673750D01*
%TO.N,Net-(F2Diode1-A)*%
X56125000Y-55648750D02*
X57150000Y-56673750D01*
X56125000Y-53350000D02*
X56125000Y-55648750D01*
%TO.N,Net-(F3Diode1-A)*%
X75175000Y-55648750D02*
X76200000Y-56673750D01*
X75175000Y-53350000D02*
X75175000Y-55648750D01*
%TO.N,Net-(F4Diode1-A)*%
X94225000Y-53350000D02*
X94225000Y-55648750D01*
X94225000Y-55648750D02*
X95250000Y-56673750D01*
%TO.N,Net-(F5Diode1-A)*%
X113275000Y-55648750D02*
X114300000Y-56673750D01*
X113275000Y-53350000D02*
X113275000Y-55648750D01*
%TO.N,Net-(F6Diode1-A)*%
X132325000Y-55648750D02*
X133350000Y-56673750D01*
X132325000Y-53350000D02*
X132325000Y-55648750D01*
%TO.N,Net-(F7Diode1-A)*%
X151375000Y-55648750D02*
X152400000Y-56673750D01*
X151375000Y-53350000D02*
X151375000Y-55648750D01*
%TO.N,Net-(F8Diode1-A)*%
X170425000Y-53350000D02*
X170425000Y-55648750D01*
X170425000Y-55648750D02*
X171450000Y-56673750D01*
%TO.N,Net-(F9Diode1-A)*%
X189475000Y-55648750D02*
X190500000Y-56673750D01*
X189475000Y-53350000D02*
X189475000Y-55648750D01*
%TO.N,Net-(F10Diode1-A)*%
X208525000Y-53350000D02*
X208525000Y-55648750D01*
X208525000Y-55648750D02*
X209550000Y-56673750D01*
%TO.N,Net-(F11Diode1-A)*%
X227575000Y-53350000D02*
X227575000Y-55648750D01*
X227575000Y-55648750D02*
X228600000Y-56673750D01*
%TO.N,Net-(F12Diode1-A)*%
X246625000Y-55668750D02*
X247840000Y-56883750D01*
X246625000Y-53350000D02*
X246625000Y-55668750D01*
%TO.N,Net-(FDiode1-A)*%
X108637500Y-112577500D02*
X109550000Y-113490000D01*
X108637500Y-110500000D02*
X108637500Y-112577500D01*
%TO.N,Net-(FnDiode1-A)*%
X18025000Y-148600000D02*
X18025000Y-152327500D01*
X18025000Y-152327500D02*
X19050000Y-153352500D01*
%TO.N,Net-(GDiode1-A)*%
X127687500Y-110500000D02*
X127687500Y-112577500D01*
X127687500Y-112577500D02*
X128600000Y-113490000D01*
%TO.N,Net-(HDiode1-A)*%
X146737500Y-112577500D02*
X147650000Y-113490000D01*
X146737500Y-110500000D02*
X146737500Y-112577500D01*
%TO.N,Net-(IDiode1-A)*%
X179662500Y-94400000D02*
X180825000Y-95562500D01*
X179662500Y-91450000D02*
X179662500Y-94400000D01*
%TO.N,Net-(JDiode1-A)*%
X165787500Y-110500000D02*
X165787500Y-112577500D01*
X165787500Y-112577500D02*
X166700000Y-113490000D01*
%TO.N,Net-(KDiode1-A)*%
X184837500Y-110500000D02*
X184837500Y-112577500D01*
X184837500Y-112577500D02*
X185750000Y-113490000D01*
%TO.N,Net-(LDiode1-A)*%
X203887500Y-110500000D02*
X203887500Y-112577500D01*
X203887500Y-112577500D02*
X204800000Y-113490000D01*
%TO.N,Net-(LeftDiode1-A)*%
X227575000Y-152327500D02*
X228600000Y-153352500D01*
X227575000Y-148600000D02*
X227575000Y-152327500D01*
%TO.N,Net-(MDiode1-A)*%
X184712500Y-129550000D02*
X184712500Y-131802500D01*
X184712500Y-131802500D02*
X185450000Y-132540000D01*
%TO.N,Net-(NDiode1-A)*%
X165662500Y-129550000D02*
X165662500Y-131802500D01*
X165662500Y-131802500D02*
X166400000Y-132540000D01*
%TO.N,Net-(ODiode1-A)*%
X198712500Y-94400000D02*
X199875000Y-95562500D01*
X198712500Y-91450000D02*
X198712500Y-94400000D01*
%TO.N,Net-(OptionDiode1-A)*%
X56125000Y-148600000D02*
X56125000Y-152327500D01*
X56125000Y-152327500D02*
X57150000Y-153352500D01*
%TO.N,Net-(PDiode1-A)*%
X217762500Y-94400000D02*
X218925000Y-95562500D01*
X217762500Y-91450000D02*
X217762500Y-94400000D01*
%TO.N,Net-(QDiode1-A)*%
X46312500Y-91450000D02*
X46312500Y-94400000D01*
X46312500Y-94400000D02*
X47475000Y-95562500D01*
%TO.N,Net-(RDiode1-A)*%
X103462500Y-91450000D02*
X103462500Y-94400000D01*
X103462500Y-94400000D02*
X104625000Y-95562500D01*
%TO.N,Net-(RightDiode1-A)*%
X284725000Y-148600000D02*
X284725000Y-150898750D01*
X284725000Y-150898750D02*
X285750000Y-151923750D01*
%TO.N,Net-(SDiode1-A)*%
X70537500Y-110500000D02*
X70537500Y-112577500D01*
X70537500Y-112577500D02*
X71450000Y-113490000D01*
%TO.N,Net-(ShiftDiode1-A)*%
X20300000Y-130790000D02*
X21431250Y-131921250D01*
X20300000Y-129100000D02*
X20300000Y-130790000D01*
%TO.N,Net-(ShiftDiode2-A)*%
X263293750Y-130896250D02*
X264318750Y-131921250D01*
X263293750Y-129550000D02*
X263293750Y-130896250D01*
%TO.N,Net-(SpaceDiode1-A)*%
X98987500Y-148620000D02*
X98987500Y-150898750D01*
X98987500Y-150898750D02*
X100012500Y-151923750D01*
%TO.N,Net-(TDiode1-A)*%
X122512500Y-94400000D02*
X123675000Y-95562500D01*
X122512500Y-91450000D02*
X122512500Y-94400000D01*
%TO.N,Net-(TabDiode1-A)*%
X22500000Y-91450000D02*
X22500000Y-94250000D01*
X22500000Y-94250000D02*
X23812500Y-95562500D01*
%TO.N,Net-(J2-GND)*%
X246950000Y-32870000D02*
X251900000Y-37820000D01*
X239640000Y-32870000D02*
X246950000Y-32870000D01*
%TO.N,Net-(J2-VCC)*%
X249567100Y-34920000D02*
X269320000Y-34920000D01*
X269320000Y-34920000D02*
X272220000Y-37820000D01*
X246718096Y-32070996D02*
X249567100Y-34920000D01*
X239679950Y-32070996D02*
X246718096Y-32070996D01*
%TO.N,Net-(UDiode1-A)*%
X160612500Y-91450000D02*
X160612500Y-94400000D01*
X160612500Y-94400000D02*
X161775000Y-95562500D01*
%TO.N,Net-(UpDiode1-A)*%
X265675000Y-152327500D02*
X266700000Y-153352500D01*
X265675000Y-148600000D02*
X265675000Y-152327500D01*
%TO.N,Net-(VDiode1-A)*%
X127562500Y-131802500D02*
X128300000Y-132540000D01*
X127562500Y-129550000D02*
X127562500Y-131802500D01*
%TO.N,Net-(WDiode1-A)*%
X65362500Y-91450000D02*
X65362500Y-94400000D01*
X65362500Y-94400000D02*
X66525000Y-95562500D01*
%TO.N,Net-(XDiode1-A)*%
X89462500Y-129550000D02*
X89462500Y-131802500D01*
X89462500Y-131802500D02*
X90200000Y-132540000D01*
%TO.N,Net-(YDiode1-A)*%
X141562500Y-94400000D02*
X142725000Y-95562500D01*
X141562500Y-91450000D02*
X141562500Y-94400000D01*
%TO.N,Net-(ZDiode1-A)*%
X70412500Y-129550000D02*
X70412500Y-131802500D01*
X70412500Y-131802500D02*
X71150000Y-132540000D01*
%TO.N,Net-([{Diode1-A)*%
X236812500Y-91450000D02*
X236812500Y-94400000D01*
X236812500Y-94400000D02*
X237975000Y-95562500D01*
%TO.N,Net-(\u005C|Diode1-A)*%
X279742500Y-93495000D02*
X282450000Y-96202500D01*
X279742500Y-91450000D02*
X279742500Y-93495000D01*
%TO.N,Net-(]}Diode1-A)*%
X255862500Y-94400000D02*
X257025000Y-95562500D01*
X255862500Y-91450000D02*
X255862500Y-94400000D01*
%TO.N,Net-(`~Diode1-A)*%
X18025000Y-74698750D02*
X19050000Y-75723750D01*
X18025000Y-72400000D02*
X18025000Y-74698750D01*
%TO.N,Net-(EnterDiode2-A)*%
X282468750Y-110500000D02*
X282468750Y-111971250D01*
X282468750Y-111971250D02*
X283368750Y-112871250D01*
%TO.N,Net-(ShiftDiode3-A)*%
X46493750Y-130790000D02*
X47625000Y-131921250D01*
X46493750Y-129120000D02*
X46493750Y-130790000D01*
%TO.N,Net-(ShiftDiode4-A)*%
X284725000Y-130896250D02*
X285750000Y-131921250D01*
X284725000Y-129550000D02*
X284725000Y-130896250D01*
%TO.N,Net-(SpaceDiode2-A)*%
X127562500Y-148600000D02*
X127562500Y-150898750D01*
X127562500Y-150898750D02*
X128587500Y-151923750D01*
%TO.N,Net-(SpaceDiode3-A)*%
X156137500Y-151375000D02*
X157162500Y-152400000D01*
X156137500Y-148600000D02*
X156137500Y-151375000D01*
%TO.N,Net-(SpaceDiode4-A)*%
X184712500Y-152327500D02*
X185737500Y-153352500D01*
X184712500Y-148600000D02*
X184712500Y-152327500D01*
%TO.N,Net-(BackspaceDiode2-A)*%
X284725000Y-72400000D02*
X284725000Y-76127500D01*
X284725000Y-76127500D02*
X285750000Y-77152500D01*
%TO.N,Column 14*%
X236660000Y-20040000D02*
X234880000Y-18260000D01*
X233040000Y-18260000D02*
X231560000Y-19740000D01*
X234880000Y-18260000D02*
X233040000Y-18260000D01*
X231560000Y-19740000D02*
X231560000Y-39840000D01*
X263615000Y-42040000D02*
X272725000Y-51150000D01*
X272725000Y-51150000D02*
X272725000Y-70200000D01*
X233760000Y-42040000D02*
X263615000Y-42040000D01*
X231560000Y-39840000D02*
X233760000Y-42040000D01*
%TO.N,Net-(DelDiode2-A)*%
X284725000Y-57077500D02*
X285750000Y-58102500D01*
X284725000Y-53350000D02*
X284725000Y-57077500D01*
%TD*%
M02*
