M48
; DRILL file {KiCad 9.0.3} date 2025-07-30T21:51:25+0800
; FORMAT={-:-/ absolute / metric / decimal}
; #@! TF.CreationDate,2025-07-30T21:51:25+08:00
; #@! TF.GenerationSoftware,Kicad,Pcbnew,9.0.3
; #@! TF.FileFunction,NonPlated,1,2,NPTH
FMAT,2
METRIC
; #@! TA.AperFunction,NonPlated,NPTH,ComponentDrill
T1C1.900
; #@! TA.AperFunction,NonPlated,NPTH,ComponentDrill
T2C2.200
; #@! TA.AperFunction,NonPlated,NPTH,ComponentDrill
T3C3.050
; #@! TA.AperFunction,NonPlated,NPTH,ComponentDrill
T4C3.450
%
G90
G05
T1
X4.025Y-57.15
X4.025Y-76.2
X4.025Y-152.4
X6.3Y-132.9
X8.5Y-95.25
X11.169Y-114.3
X15.025Y-57.15
X15.025Y-76.2
X15.025Y-152.4
X17.3Y-132.9
X19.5Y-95.25
X22.169Y-114.3
X23.075Y-57.15
X23.075Y-76.2
X23.075Y-152.4
X32.312Y-95.25
X32.494Y-132.92
X34.075Y-57.15
X34.075Y-76.2
X34.075Y-152.4
X37.487Y-114.4
X42.125Y-57.15
X42.125Y-76.2
X42.125Y-152.4
X43.312Y-95.25
X43.494Y-132.92
X48.487Y-114.4
X51.362Y-95.25
X53.125Y-57.15
X53.125Y-76.2
X53.125Y-152.4
X56.412Y-133.35
X56.537Y-114.3
X61.175Y-57.15
X61.175Y-76.2
X61.175Y-152.4
X62.362Y-95.25
X67.412Y-133.35
X67.537Y-114.3
X70.412Y-95.25
X72.175Y-57.15
X72.175Y-76.2
X72.175Y-152.4
X75.462Y-133.35
X75.587Y-114.3
X80.225Y-57.15
X80.225Y-76.2
X81.412Y-95.25
X84.987Y-152.42
X86.462Y-133.35
X86.587Y-114.3
X89.462Y-95.25
X91.225Y-57.15
X91.225Y-76.2
X94.512Y-133.35
X94.637Y-114.3
X95.987Y-152.42
X99.275Y-57.15
X99.275Y-76.2
X100.462Y-95.25
X105.512Y-133.35
X105.637Y-114.3
X108.512Y-95.25
X110.275Y-57.15
X110.275Y-76.2
X113.562Y-133.35
X113.562Y-152.4
X113.688Y-114.3
X118.325Y-57.15
X118.325Y-76.2
X119.512Y-95.25
X124.562Y-133.35
X124.562Y-152.4
X124.688Y-114.3
X127.562Y-95.25
X129.325Y-57.15
X129.325Y-76.2
X132.612Y-133.35
X132.737Y-114.3
X137.375Y-57.15
X137.375Y-76.2
X138.562Y-95.25
X142.137Y-152.4
X143.612Y-133.35
X143.737Y-114.3
X146.612Y-95.25
X148.375Y-57.15
X148.375Y-76.2
X151.662Y-133.35
X151.787Y-114.3
X153.137Y-152.4
X156.425Y-57.15
X156.425Y-76.2
X157.612Y-95.25
X162.662Y-133.35
X162.787Y-114.3
X165.662Y-95.25
X167.425Y-57.15
X167.425Y-76.2
X170.713Y-133.35
X170.713Y-152.4
X170.838Y-114.3
X175.475Y-57.15
X175.475Y-76.2
X176.662Y-95.25
X181.713Y-133.35
X181.713Y-152.4
X181.838Y-114.3
X184.713Y-95.25
X186.475Y-57.15
X186.475Y-76.2
X189.762Y-133.35
X189.887Y-114.3
X194.525Y-57.15
X194.525Y-76.2
X194.525Y-152.4
X195.712Y-95.25
X200.762Y-133.35
X200.887Y-114.3
X203.762Y-95.25
X205.525Y-57.15
X205.525Y-76.2
X205.525Y-152.4
X208.812Y-133.35
X208.938Y-114.3
X213.575Y-57.15
X213.575Y-76.2
X213.575Y-152.4
X214.762Y-95.25
X219.812Y-133.35
X219.938Y-114.3
X222.812Y-95.25
X224.575Y-57.15
X224.575Y-76.2
X224.575Y-152.4
X227.862Y-133.35
X227.987Y-114.3
X232.625Y-57.15
X232.625Y-76.2
X232.625Y-152.4
X233.812Y-95.25
X238.862Y-133.35
X238.987Y-114.3
X241.862Y-95.25
X243.625Y-57.15
X243.625Y-76.2
X243.625Y-152.4
X247.037Y-114.3
X249.294Y-133.35
X251.675Y-57.15
X251.675Y-76.2
X251.675Y-152.4
X252.862Y-95.25
X258.037Y-114.3
X260.294Y-133.35
X262.675Y-57.15
X262.675Y-76.2
X262.675Y-152.4
X265.743Y-95.25
X268.469Y-114.3
X270.725Y-57.15
X270.725Y-76.2
X270.725Y-133.35
X270.725Y-152.4
X276.743Y-95.25
X279.469Y-114.3
X281.725Y-57.15
X281.725Y-76.2
X281.725Y-133.35
X281.725Y-152.4
T2
X3.5Y-165.5
X4.0Y-38.0
X125.91Y-38.0
X143.0Y-165.0
X221.0Y-14.0
X221.0Y-38.0
X282.5Y-14.0
X287.5Y-165.0
T3
X9.525Y-51.25
X9.525Y-70.3
X9.525Y-146.5
X11.8Y-127.0
X14.0Y-89.35
X14.525Y-53.35
X14.525Y-72.4
X14.525Y-148.6
X16.669Y-108.4
X16.8Y-129.1
X19.0Y-91.45
X21.669Y-110.5
X28.575Y-51.25
X28.575Y-70.3
X28.575Y-146.5
X33.575Y-53.35
X33.575Y-72.4
X33.575Y-148.6
X37.812Y-89.35
X37.994Y-127.02
X42.812Y-91.45
X42.987Y-108.5
X42.994Y-129.12
X47.625Y-51.25
X47.625Y-70.3
X47.625Y-146.5
X47.987Y-110.6
X52.625Y-53.35
X52.625Y-72.4
X52.625Y-148.6
X56.862Y-89.35
X61.862Y-91.45
X61.912Y-127.45
X62.037Y-108.4
X66.675Y-51.25
X66.675Y-70.3
X66.675Y-146.5
X66.912Y-129.55
X67.037Y-110.5
X71.675Y-53.35
X71.675Y-72.4
X71.675Y-148.6
X75.912Y-89.35
X80.912Y-91.45
X80.962Y-127.45
X81.087Y-108.4
X85.725Y-51.25
X85.725Y-70.3
X85.962Y-129.55
X86.087Y-110.5
X90.487Y-146.52
X90.725Y-53.35
X90.725Y-72.4
X94.962Y-89.35
X95.487Y-148.62
X99.962Y-91.45
X100.012Y-127.45
X100.137Y-108.4
X104.775Y-51.25
X104.775Y-70.3
X105.012Y-129.55
X105.137Y-110.5
X109.775Y-53.35
X109.775Y-72.4
X114.012Y-89.35
X119.012Y-91.45
X119.062Y-127.45
X119.062Y-146.5
X119.188Y-108.4
X123.825Y-51.25
X123.825Y-70.3
X124.062Y-129.55
X124.062Y-148.6
X124.188Y-110.5
X128.825Y-53.35
X128.825Y-72.4
X133.062Y-89.35
X138.062Y-91.45
X138.112Y-127.45
X138.237Y-108.4
X142.875Y-51.25
X142.875Y-70.3
X143.112Y-129.55
X143.237Y-110.5
X147.637Y-146.5
X147.875Y-53.35
X147.875Y-72.4
X152.112Y-89.35
X152.637Y-148.6
X157.112Y-91.45
X157.162Y-127.45
X157.287Y-108.4
X161.925Y-51.25
X161.925Y-70.3
X162.162Y-129.55
X162.287Y-110.5
X166.925Y-53.35
X166.925Y-72.4
X171.162Y-89.35
X176.162Y-91.45
X176.213Y-127.45
X176.213Y-146.5
X176.338Y-108.4
X180.975Y-51.25
X180.975Y-70.3
X181.213Y-129.55
X181.213Y-148.6
X181.338Y-110.5
X185.975Y-53.35
X185.975Y-72.4
X190.212Y-89.35
X195.212Y-91.45
X195.262Y-127.45
X195.387Y-108.4
X200.025Y-51.25
X200.025Y-70.3
X200.025Y-146.5
X200.262Y-129.55
X200.387Y-110.5
X205.025Y-53.35
X205.025Y-72.4
X205.025Y-148.6
X209.262Y-89.35
X214.262Y-91.45
X214.312Y-127.45
X214.438Y-108.4
X219.075Y-51.25
X219.075Y-70.3
X219.075Y-146.5
X219.312Y-129.55
X219.438Y-110.5
X224.075Y-53.35
X224.075Y-72.4
X224.075Y-148.6
X228.312Y-89.35
X233.312Y-91.45
X233.362Y-127.45
X233.487Y-108.4
X238.125Y-51.25
X238.125Y-70.3
X238.125Y-146.5
X238.362Y-129.55
X238.487Y-110.5
X243.125Y-53.35
X243.125Y-72.4
X243.125Y-148.6
X247.362Y-89.35
X252.362Y-91.45
X252.537Y-108.4
X254.794Y-127.45
X257.175Y-51.25
X257.175Y-70.3
X257.175Y-146.5
X257.537Y-110.5
X259.794Y-129.55
X262.175Y-53.35
X262.175Y-72.4
X262.175Y-148.6
X271.243Y-89.35
X273.969Y-108.4
X276.225Y-51.25
X276.225Y-70.3
X276.225Y-127.45
X276.225Y-146.5
X276.243Y-91.45
X278.969Y-110.5
X281.225Y-53.35
X281.225Y-72.4
X281.225Y-129.55
X281.225Y-148.6
T4
X9.525Y-57.15
X9.525Y-76.2
X9.525Y-152.4
X11.8Y-132.9
X14.0Y-95.25
X16.669Y-114.3
X28.575Y-57.15
X28.575Y-76.2
X28.575Y-152.4
X37.812Y-95.25
X37.994Y-132.92
X42.987Y-114.4
X47.625Y-57.15
X47.625Y-76.2
X47.625Y-152.4
X56.862Y-95.25
X61.912Y-133.35
X62.037Y-114.3
X66.675Y-57.15
X66.675Y-76.2
X66.675Y-152.4
X75.912Y-95.25
X80.962Y-133.35
X81.087Y-114.3
X85.725Y-57.15
X85.725Y-76.2
X90.487Y-152.42
X94.962Y-95.25
X100.012Y-133.35
X100.137Y-114.3
X104.775Y-57.15
X104.775Y-76.2
X114.012Y-95.25
X119.062Y-133.35
X119.062Y-152.4
X119.188Y-114.3
X123.825Y-57.15
X123.825Y-76.2
X133.062Y-95.25
X138.112Y-133.35
X138.237Y-114.3
X142.875Y-57.15
X142.875Y-76.2
X147.637Y-152.4
X152.112Y-95.25
X157.162Y-133.35
X157.287Y-114.3
X161.925Y-57.15
X161.925Y-76.2
X171.162Y-95.25
X176.213Y-133.35
X176.213Y-152.4
X176.338Y-114.3
X180.975Y-57.15
X180.975Y-76.2
X190.212Y-95.25
X195.262Y-133.35
X195.387Y-114.3
X200.025Y-57.15
X200.025Y-76.2
X200.025Y-152.4
X209.262Y-95.25
X214.312Y-133.35
X214.438Y-114.3
X219.075Y-57.15
X219.075Y-76.2
X219.075Y-152.4
X228.312Y-95.25
X233.362Y-133.35
X233.487Y-114.3
X238.125Y-57.15
X238.125Y-76.2
X238.125Y-152.4
X247.362Y-95.25
X252.537Y-114.3
X254.794Y-133.35
X257.175Y-57.15
X257.175Y-76.2
X257.175Y-152.4
X271.243Y-95.25
X273.969Y-114.3
X276.225Y-57.15
X276.225Y-76.2
X276.225Y-133.35
X276.225Y-152.4
M30
