M48
; DRILL file {KiCad 9.0.3} date 2025-07-30T21:51:25+0800
; FORMAT={-:-/ absolute / metric / decimal}
; #@! TF.CreationDate,2025-07-30T21:51:25+08:00
; #@! TF.GenerationSoftware,Kicad,Pcbnew,9.0.3
; #@! TF.FileFunction,Plated,1,2,PTH
FMAT,2
METRIC
; #@! TA.AperFunction,Plated,PTH,ViaDrill
T1C0.300
; #@! TA.AperFunction,Plated,PTH,ComponentDrill
T2C0.800
; #@! TA.AperFunction,Plated,PTH,ComponentDrill
T3C1.000
; #@! TA.AperFunction,Plated,PTH,ComponentDrill
T4C1.020
%
G90
G05
T1
X232.724Y-42.987
X235.85Y-86.52
X239.64Y-32.87
X239.68Y-32.071
X245.91Y-43.041
X246.956Y-44.944
X257.05Y-87.12
X264.78Y-117.23
T2
X19.05Y-56.674
X19.05Y-64.294
X19.05Y-75.724
X19.05Y-83.344
X19.05Y-153.352
X19.05Y-160.972
X21.431Y-131.921
X21.431Y-139.541
X23.812Y-95.562
X23.812Y-103.182
X30.44Y-110.76
X30.44Y-118.38
X38.1Y-56.674
X38.1Y-64.294
X38.1Y-75.724
X38.1Y-83.344
X38.1Y-153.352
X38.1Y-160.972
X47.475Y-95.562
X47.475Y-103.182
X47.625Y-131.921
X47.625Y-139.541
X52.4Y-113.49
X52.4Y-121.11
X57.15Y-56.674
X57.15Y-64.294
X57.15Y-75.724
X57.15Y-83.344
X57.15Y-153.352
X57.15Y-160.972
X66.525Y-95.562
X66.525Y-103.182
X71.15Y-132.54
X71.15Y-140.16
X71.45Y-113.49
X71.45Y-121.11
X76.2Y-56.674
X76.2Y-64.294
X76.2Y-75.724
X76.2Y-83.344
X76.2Y-153.352
X76.2Y-160.972
X85.575Y-95.562
X85.575Y-103.182
X90.2Y-132.54
X90.2Y-140.16
X90.5Y-113.49
X90.5Y-121.11
X95.25Y-56.674
X95.25Y-64.294
X95.25Y-75.724
X95.25Y-83.344
X100.012Y-151.924
X100.012Y-159.544
X104.625Y-95.562
X104.625Y-103.182
X109.25Y-132.54
X109.25Y-140.16
X109.55Y-113.49
X109.55Y-121.11
X114.3Y-56.674
X114.3Y-64.294
X114.3Y-75.724
X114.3Y-83.344
X123.675Y-95.562
X123.675Y-103.182
X128.3Y-132.54
X128.3Y-140.16
X128.588Y-151.924
X128.588Y-159.544
X128.6Y-113.49
X128.6Y-121.11
X133.35Y-56.674
X133.35Y-64.294
X133.35Y-75.724
X133.35Y-83.344
X142.725Y-95.562
X142.725Y-103.182
X147.35Y-132.54
X147.35Y-140.16
X147.65Y-113.49
X147.65Y-121.11
X152.4Y-56.674
X152.4Y-64.294
X152.4Y-75.724
X152.4Y-83.344
X157.162Y-152.4
X157.162Y-160.02
X161.775Y-95.562
X161.775Y-103.182
X166.4Y-132.54
X166.4Y-140.16
X166.7Y-113.49
X166.7Y-121.11
X171.45Y-56.674
X171.45Y-64.294
X171.45Y-75.724
X171.45Y-83.344
X180.825Y-95.562
X180.825Y-103.182
X185.45Y-132.54
X185.45Y-140.16
X185.737Y-153.352
X185.737Y-160.972
X185.75Y-113.49
X185.75Y-121.11
X190.5Y-56.674
X190.5Y-64.294
X190.5Y-75.724
X190.5Y-83.344
X199.875Y-95.562
X199.875Y-103.182
X204.5Y-132.54
X204.5Y-140.16
X204.8Y-113.49
X204.8Y-121.11
X209.53Y-153.56
X209.53Y-161.18
X209.55Y-56.674
X209.55Y-64.294
X209.55Y-75.724
X209.55Y-83.344
X218.925Y-95.562
X218.925Y-103.182
X223.55Y-132.51
X223.55Y-140.13
X223.85Y-113.49
X223.85Y-121.11
X228.6Y-56.674
X228.6Y-64.294
X228.6Y-75.724
X228.6Y-83.344
X228.6Y-153.352
X228.6Y-160.972
X237.975Y-95.562
X237.975Y-103.182
X242.6Y-132.54
X242.6Y-140.16
X242.9Y-113.49
X242.9Y-121.11
X247.65Y-75.724
X247.65Y-83.344
X247.65Y-153.352
X247.65Y-160.972
X247.84Y-56.884
X247.84Y-64.504
X257.025Y-95.562
X257.025Y-103.182
X261.92Y-113.7
X261.92Y-121.32
X264.319Y-131.921
X264.319Y-139.541
X266.7Y-56.674
X266.7Y-64.294
X266.7Y-76.676
X266.7Y-84.296
X266.7Y-153.352
X266.7Y-160.972
X282.45Y-96.203
X282.45Y-103.822
X283.369Y-112.871
X283.369Y-120.491
X285.75Y-58.102
X285.75Y-65.722
X285.75Y-77.153
X285.75Y-84.772
X285.75Y-131.921
X285.75Y-139.541
X285.75Y-151.924
X285.75Y-159.544
T3
X9.39Y-37.17
X9.39Y-39.71
X9.39Y-42.25
X9.39Y-44.79
T4
X234.12Y-20.04
X234.12Y-37.82
X234.35Y-26.39
X234.35Y-28.93
X234.35Y-31.47
X236.66Y-20.04
X236.66Y-37.82
X239.2Y-20.04
X239.2Y-37.82
X241.74Y-20.04
X241.74Y-37.82
X244.28Y-20.04
X244.28Y-37.82
X246.82Y-20.04
X246.82Y-37.82
X249.36Y-20.04
X249.36Y-37.82
X251.9Y-20.04
X251.9Y-37.82
X254.44Y-20.04
X254.44Y-37.82
X256.98Y-20.04
X256.98Y-37.82
X259.52Y-20.04
X259.52Y-37.82
X262.06Y-20.04
X262.06Y-37.82
X264.6Y-20.04
X264.6Y-37.82
X267.14Y-20.04
X267.14Y-37.82
X269.68Y-20.04
X269.68Y-37.82
X272.22Y-20.04
X272.22Y-37.82
X274.76Y-20.04
X274.76Y-37.82
X277.3Y-20.04
X277.3Y-37.82
X279.84Y-20.04
X279.84Y-37.82
X282.38Y-20.04
X282.38Y-37.82
M30
