M48
; DRILL file {KiCad 8.0.8} date 2025-06-07T08:47:10+0800
; FORMAT={-:-/ absolute / metric / decimal}
; #@! TF.CreationDate,2025-06-07T08:47:10+08:00
; #@! TF.GenerationSoftware,Kicad,Pcbnew,8.0.8
; #@! TF.FileFunction,Plated,1,2,PTH
FMAT,2
METRIC
; #@! TA.AperFunction,Plated,PTH,ComponentDrill
T1C0.800
; #@! TA.AperFunction,Plated,PTH,ComponentDrill
T2C1.020
%
G90
G05
T1
X-112.612Y18.875
X-112.612Y15.325
X-112.612Y11.775
X-112.612Y8.225
X-112.612Y4.675
X-112.612Y1.125
X-112.612Y-2.425
X-112.612Y-5.975
X-112.612Y-9.525
X-112.612Y-13.075
X-112.612Y-16.625
X-112.612Y-20.175
X-112.612Y-23.725
X-112.612Y-27.275
X-104.992Y18.875
X-104.992Y15.325
X-104.992Y11.775
X-104.992Y8.225
X-104.992Y4.675
X-104.992Y1.125
X-104.992Y-2.425
X-104.992Y-5.975
X-104.992Y-9.525
X-104.992Y-13.075
X-104.992Y-16.625
X-104.992Y-20.175
X-104.992Y-23.725
X-104.992Y-27.275
X-101.843Y18.875
X-101.843Y15.325
X-101.843Y11.775
X-101.843Y8.225
X-101.843Y4.675
X-101.843Y1.125
X-101.843Y-2.425
X-101.843Y-5.975
X-101.843Y-9.525
X-101.843Y-13.075
X-101.843Y-16.625
X-101.843Y-20.175
X-101.843Y-23.725
X-101.843Y-27.275
X-101.843Y-30.825
X-101.843Y-34.375
X-94.222Y18.875
X-94.222Y15.325
X-94.222Y11.775
X-94.222Y8.225
X-94.222Y4.675
X-94.222Y1.125
X-94.222Y-2.425
X-94.222Y-5.975
X-94.222Y-9.525
X-94.222Y-13.075
X-94.222Y-16.625
X-94.222Y-20.175
X-94.222Y-23.725
X-94.222Y-27.275
X-94.222Y-30.825
X-94.222Y-34.375
X-91.072Y18.875
X-91.072Y15.325
X-91.072Y11.775
X-91.072Y8.225
X-91.072Y4.675
X-91.072Y1.125
X-91.072Y-2.425
X-91.072Y-5.975
X-91.072Y-9.525
X-91.072Y-13.075
X-91.072Y-16.625
X-91.072Y-20.175
X-91.072Y-23.725
X-91.072Y-27.275
X-91.072Y-30.825
X-91.072Y-34.375
X-83.453Y18.875
X-83.453Y15.325
X-83.453Y11.775
X-83.453Y8.225
X-83.453Y4.675
X-83.453Y1.125
X-83.453Y-2.425
X-83.453Y-5.975
X-83.453Y-9.525
X-83.453Y-13.075
X-83.453Y-16.625
X-83.453Y-20.175
X-83.453Y-23.725
X-83.453Y-27.275
X-83.453Y-30.825
X-83.453Y-34.375
X-80.302Y18.875
X-80.302Y15.325
X-80.302Y11.775
X-80.302Y8.225
X-80.302Y4.675
X-80.302Y1.125
X-80.302Y-2.425
X-80.302Y-5.975
X-80.302Y-9.525
X-80.302Y-13.075
X-80.302Y-16.625
X-80.302Y-20.175
X-80.302Y-23.725
X-80.302Y-27.275
X-80.302Y-30.825
X-80.302Y-34.375
X-72.682Y18.875
X-72.682Y15.325
X-72.682Y11.775
X-72.682Y8.225
X-72.682Y4.675
X-72.682Y1.125
X-72.682Y-2.425
X-72.682Y-5.975
X-72.682Y-9.525
X-72.682Y-13.075
X-72.682Y-16.625
X-72.682Y-20.175
X-72.682Y-23.725
X-72.682Y-27.275
X-72.682Y-30.825
X-72.682Y-34.375
X-69.532Y18.875
X-69.532Y15.325
X-69.532Y11.775
X-69.532Y8.225
X-69.532Y4.675
X-69.532Y1.125
X-69.532Y-2.425
X-69.532Y-5.975
X-69.532Y-9.525
X-69.532Y-13.075
X-69.532Y-16.625
X-69.532Y-20.175
X-69.532Y-23.725
X-69.532Y-27.275
X-69.532Y-30.825
X-69.532Y-34.375
X-61.912Y18.875
X-61.912Y15.325
X-61.912Y11.775
X-61.912Y8.225
X-61.912Y4.675
X-61.912Y1.125
X-61.912Y-2.425
X-61.912Y-5.975
X-61.912Y-9.525
X-61.912Y-13.075
X-61.912Y-16.625
X-61.912Y-20.175
X-61.912Y-23.725
X-61.912Y-27.275
X-61.912Y-30.825
X-61.912Y-34.375
T2
X235.495Y-20.32
X235.495Y-38.1
X235.725Y-26.67
X235.725Y-29.21
X235.725Y-31.75
X238.035Y-20.32
X238.035Y-38.1
X240.575Y-20.32
X240.575Y-38.1
X243.115Y-20.32
X243.115Y-38.1
X245.655Y-20.32
X245.655Y-38.1
X248.195Y-20.32
X248.195Y-38.1
X250.735Y-20.32
X250.735Y-38.1
X253.275Y-20.32
X253.275Y-38.1
X255.815Y-20.32
X255.815Y-38.1
X258.355Y-20.32
X258.355Y-38.1
X260.895Y-20.32
X260.895Y-38.1
X263.435Y-20.32
X263.435Y-38.1
X265.975Y-20.32
X265.975Y-38.1
X268.515Y-20.32
X268.515Y-38.1
X271.055Y-20.32
X271.055Y-38.1
X273.595Y-20.32
X273.595Y-38.1
X276.135Y-20.32
X276.135Y-38.1
X278.675Y-20.32
X278.675Y-38.1
X281.215Y-20.32
X281.215Y-38.1
X283.755Y-20.32
X283.755Y-38.1
M30
