G04 #@! TF.GenerationSoftware,KiCad,Pcbnew,8.0.8*
G04 #@! TF.CreationDate,2025-06-07T08:47:10+08:00*
G04 #@! TF.ProjectId,magic-keys,6d616769-632d-46b6-9579-732e6b696361,rev?*
G04 #@! TF.SameCoordinates,Original*
G04 #@! TF.FileFunction,Copper,L2,Bot*
G04 #@! TF.FilePolarity,Positive*
%FSLAX46Y46*%
G04 Gerber Fmt 4.6, Leading zero omitted, Abs format (unit mm)*
G04 Created by KiCad (PCBNEW 8.0.8) date 2025-06-07 08:47:10*
%MOMM*%
%LPD*%
G01*
G04 APERTURE LIST*
G04 Aperture macros list*
%AMRoundRect*
0 Rectangle with rounded corners*
0 $1 Rounding radius*
0 $2 $3 $4 $5 $6 $7 $8 $9 X,Y pos of 4 corners*
0 Add a 4 corners polygon primitive as box body*
4,1,4,$2,$3,$4,$5,$6,$7,$8,$9,$2,$3,0*
0 Add four circle primitives for the rounded corners*
1,1,$1+$1,$2,$3*
1,1,$1+$1,$4,$5*
1,1,$1+$1,$6,$7*
1,1,$1+$1,$8,$9*
0 Add four rect primitives between the rounded corners*
20,1,$1+$1,$2,$3,$4,$5,0*
20,1,$1+$1,$4,$5,$6,$7,0*
20,1,$1+$1,$6,$7,$8,$9,0*
20,1,$1+$1,$8,$9,$2,$3,0*%
G04 Aperture macros list end*
G04 #@! TA.AperFunction,SMDPad,CuDef*
%ADD10RoundRect,0.250000X-1.025000X-1.000000X1.025000X-1.000000X1.025000X1.000000X-1.025000X1.000000X0*%
G04 #@! TD*
G04 #@! TA.AperFunction,ComponentPad*
%ADD11O,1.700000X1.700000*%
G04 #@! TD*
G04 #@! TA.AperFunction,ComponentPad*
%ADD12R,1.700000X1.700000*%
G04 #@! TD*
G04 #@! TA.AperFunction,ComponentPad*
%ADD13R,1.600000X1.600000*%
G04 #@! TD*
G04 #@! TA.AperFunction,ComponentPad*
%ADD14O,1.600000X1.600000*%
G04 #@! TD*
G04 APERTURE END LIST*
D10*
G04 #@! TO.P,`~1,1,1*
G04 #@! TO.N,Column 0*
X6025000Y-70200000D03*
G04 #@! TO.P,`~1,2,2*
G04 #@! TO.N,Net-(`~Diode1-A)*
X18025000Y-72400000D03*
G04 #@! TD*
G04 #@! TO.P,]}1,1,1*
G04 #@! TO.N,Column 12*
X243862500Y-89250000D03*
G04 #@! TO.P,]}1,2,2*
G04 #@! TO.N,Net-(]}Diode1-A)*
X255862500Y-91450000D03*
G04 #@! TD*
G04 #@! TO.P,\u005C|1,1,1*
G04 #@! TO.N,Column 13*
X267742500Y-89250000D03*
G04 #@! TO.P,\u005C|1,2,2*
G04 #@! TO.N,Net-(\u005C|Diode1-A)*
X279742500Y-91450000D03*
G04 #@! TD*
G04 #@! TO.P,[{1,1,1*
G04 #@! TO.N,Column 11*
X224812500Y-89250000D03*
G04 #@! TO.P,[{1,2,2*
G04 #@! TO.N,Net-([{Diode1-A)*
X236812500Y-91450000D03*
G04 #@! TD*
G04 #@! TO.P,Z1,1,1*
G04 #@! TO.N,Column 1*
X58412500Y-127350000D03*
G04 #@! TO.P,Z1,2,2*
G04 #@! TO.N,Net-(ZDiode1-A)*
X70412500Y-129550000D03*
G04 #@! TD*
G04 #@! TO.P,Y1,1,1*
G04 #@! TO.N,Column 6*
X129562500Y-89250000D03*
G04 #@! TO.P,Y1,2,2*
G04 #@! TO.N,Net-(YDiode1-A)*
X141562500Y-91450000D03*
G04 #@! TD*
G04 #@! TO.P,X1,1,1*
G04 #@! TO.N,Column 2*
X77462500Y-127350000D03*
G04 #@! TO.P,X1,2,2*
G04 #@! TO.N,Net-(XDiode1-A)*
X89462500Y-129550000D03*
G04 #@! TD*
G04 #@! TO.P,W1,1,1*
G04 #@! TO.N,Column 2*
X53362500Y-89250000D03*
G04 #@! TO.P,W1,2,2*
G04 #@! TO.N,Net-(WDiode1-A)*
X65362500Y-91450000D03*
G04 #@! TD*
G04 #@! TO.P,V1,1,1*
G04 #@! TO.N,Column 4*
X115562500Y-127350000D03*
G04 #@! TO.P,V1,2,2*
G04 #@! TO.N,Net-(VDiode1-A)*
X127562500Y-129550000D03*
G04 #@! TD*
G04 #@! TO.P,Up1,1,1*
G04 #@! TO.N,Column 9*
X253675000Y-146400000D03*
G04 #@! TO.P,Up1,2,2*
G04 #@! TO.N,Net-(UpDiode1-A)*
X265675000Y-148600000D03*
G04 #@! TD*
G04 #@! TO.P,U2,1,1*
G04 #@! TO.N,Column 7*
X148612500Y-89250000D03*
G04 #@! TO.P,U2,2,2*
G04 #@! TO.N,Net-(UDiode1-A)*
X160612500Y-91450000D03*
G04 #@! TD*
G04 #@! TO.P,Tab1,1,1*
G04 #@! TO.N,Column 0*
X10500000Y-89250000D03*
G04 #@! TO.P,Tab1,2,2*
G04 #@! TO.N,Net-(TabDiode1-A)*
X22500000Y-91450000D03*
G04 #@! TD*
G04 #@! TO.P,T1,1,1*
G04 #@! TO.N,Column 5*
X110512500Y-89250000D03*
G04 #@! TO.P,T1,2,2*
G04 #@! TO.N,Net-(TDiode1-A)*
X122512500Y-91450000D03*
G04 #@! TD*
G04 #@! TO.P,Space1,1,1*
G04 #@! TO.N,Column 4*
X129850000Y-146400000D03*
G04 #@! TO.P,Space1,2,2*
G04 #@! TO.N,Net-(SpaceDiode1-A)*
X141850000Y-148600000D03*
G04 #@! TD*
G04 #@! TO.P,Shift2,1,1*
G04 #@! TO.N,Column 11*
X260818750Y-127350000D03*
G04 #@! TO.P,Shift2,2,2*
G04 #@! TO.N,Net-(ShiftDiode2-A)*
X272818750Y-129550000D03*
G04 #@! TD*
G04 #@! TO.P,Shift1,1,1*
G04 #@! TO.N,Column 0*
X22693750Y-127350000D03*
G04 #@! TO.P,Shift1,2,2*
G04 #@! TO.N,Net-(ShiftDiode1-A)*
X34693750Y-129550000D03*
G04 #@! TD*
G04 #@! TO.P,S1,1,1*
G04 #@! TO.N,Column 2*
X58537500Y-108300000D03*
G04 #@! TO.P,S1,2,2*
G04 #@! TO.N,Net-(SDiode1-A)*
X70537500Y-110500000D03*
G04 #@! TD*
G04 #@! TO.P,Right1,1,1*
G04 #@! TO.N,Column 10*
X272725000Y-146400000D03*
G04 #@! TO.P,Right1,2,2*
G04 #@! TO.N,Net-(RightDiode1-A)*
X284725000Y-148600000D03*
G04 #@! TD*
G04 #@! TO.P,R1,1,1*
G04 #@! TO.N,Column 4*
X91462500Y-89250000D03*
G04 #@! TO.P,R1,2,2*
G04 #@! TO.N,Net-(RDiode1-A)*
X103462500Y-91450000D03*
G04 #@! TD*
G04 #@! TO.P,Q1,1,1*
G04 #@! TO.N,Column 1*
X34312500Y-89250000D03*
G04 #@! TO.P,Q1,2,2*
G04 #@! TO.N,Net-(QDiode1-A)*
X46312500Y-91450000D03*
G04 #@! TD*
G04 #@! TO.P,P1,1,1*
G04 #@! TO.N,Column 10*
X205762500Y-89250000D03*
G04 #@! TO.P,P1,2,2*
G04 #@! TO.N,Net-(PDiode1-A)*
X217762500Y-91450000D03*
G04 #@! TD*
G04 #@! TO.P,Option1,1,1*
G04 #@! TO.N,Column 2*
X44125000Y-146400000D03*
G04 #@! TO.P,Option1,2,2*
G04 #@! TO.N,Net-(OptionDiode1-A)*
X56125000Y-148600000D03*
G04 #@! TD*
G04 #@! TO.P,O1,1,1*
G04 #@! TO.N,Column 9*
X186712500Y-89250000D03*
G04 #@! TO.P,O1,2,2*
G04 #@! TO.N,Net-(ODiode1-A)*
X198712500Y-91450000D03*
G04 #@! TD*
G04 #@! TO.P,N1,1,1*
G04 #@! TO.N,Column 6*
X153662500Y-127350000D03*
G04 #@! TO.P,N1,2,2*
G04 #@! TO.N,Net-(NDiode1-A)*
X165662500Y-129550000D03*
G04 #@! TD*
G04 #@! TO.P,M1,1,1*
G04 #@! TO.N,Column 7*
X172712500Y-127350000D03*
G04 #@! TO.P,M1,2,2*
G04 #@! TO.N,Net-(MDiode1-A)*
X184712500Y-129550000D03*
G04 #@! TD*
G04 #@! TO.P,Left1,1,1*
G04 #@! TO.N,Column 7*
X215575000Y-146400000D03*
G04 #@! TO.P,Left1,2,2*
G04 #@! TO.N,Net-(LeftDiode1-A)*
X227575000Y-148600000D03*
G04 #@! TD*
G04 #@! TO.P,L1,1,1*
G04 #@! TO.N,Column 9*
X191887500Y-108300000D03*
G04 #@! TO.P,L1,2,2*
G04 #@! TO.N,Net-(LDiode1-A)*
X203887500Y-110500000D03*
G04 #@! TD*
G04 #@! TO.P,K1,1,1*
G04 #@! TO.N,Column 8*
X172837500Y-108300000D03*
G04 #@! TO.P,K1,2,2*
G04 #@! TO.N,Net-(KDiode1-A)*
X184837500Y-110500000D03*
G04 #@! TD*
G04 #@! TO.P,J1,1,1*
G04 #@! TO.N,Column 7*
X153787500Y-108300000D03*
G04 #@! TO.P,J1,2,2*
G04 #@! TO.N,Net-(JDiode1-A)*
X165787500Y-110500000D03*
G04 #@! TD*
G04 #@! TO.P,I1,1,1*
G04 #@! TO.N,Column 8*
X167662500Y-89250000D03*
G04 #@! TO.P,I1,2,2*
G04 #@! TO.N,Net-(IDiode1-A)*
X179662500Y-91450000D03*
G04 #@! TD*
G04 #@! TO.P,H1,1,1*
G04 #@! TO.N,Column 6*
X134737500Y-108300000D03*
G04 #@! TO.P,H1,2,2*
G04 #@! TO.N,Net-(HDiode1-A)*
X146737500Y-110500000D03*
G04 #@! TD*
G04 #@! TO.P,G1,1,1*
G04 #@! TO.N,Column 5*
X115687500Y-108300000D03*
G04 #@! TO.P,G1,2,2*
G04 #@! TO.N,Net-(GDiode1-A)*
X127687500Y-110500000D03*
G04 #@! TD*
G04 #@! TO.P,Fn1,1,1*
G04 #@! TO.N,Column 0*
X6025000Y-146400000D03*
G04 #@! TO.P,Fn1,2,2*
G04 #@! TO.N,Net-(FnDiode1-A)*
X18025000Y-148600000D03*
G04 #@! TD*
G04 #@! TO.P,F13,1,1*
G04 #@! TO.N,Column 4*
X96637500Y-108300000D03*
G04 #@! TO.P,F13,2,2*
G04 #@! TO.N,Net-(FDiode1-A)*
X108637500Y-110500000D03*
G04 #@! TD*
G04 #@! TO.P,F12,1,1*
G04 #@! TO.N,Column 12*
X243930000Y-51150000D03*
G04 #@! TO.P,F12,2,2*
G04 #@! TO.N,Net-(F12Diode1-A)*
X255930000Y-53350000D03*
G04 #@! TD*
G04 #@! TO.P,F11,1,1*
G04 #@! TO.N,Column 11*
X224880000Y-51150000D03*
G04 #@! TO.P,F11,2,2*
G04 #@! TO.N,Net-(F11Diode1-A)*
X236880000Y-53350000D03*
G04 #@! TD*
G04 #@! TO.P,F10,1,1*
G04 #@! TO.N,Column 10*
X205830000Y-51150000D03*
G04 #@! TO.P,F10,2,2*
G04 #@! TO.N,Net-(F10Diode1-A)*
X217830000Y-53350000D03*
G04 #@! TD*
G04 #@! TO.P,F9,1,1*
G04 #@! TO.N,Column 9*
X186780000Y-51150000D03*
G04 #@! TO.P,F9,2,2*
G04 #@! TO.N,Net-(F9Diode1-A)*
X198780000Y-53350000D03*
G04 #@! TD*
G04 #@! TO.P,F8,1,1*
G04 #@! TO.N,Column 8*
X167730000Y-51150000D03*
G04 #@! TO.P,F8,2,2*
G04 #@! TO.N,Net-(F8Diode1-A)*
X179730000Y-53350000D03*
G04 #@! TD*
G04 #@! TO.P,F7,1,1*
G04 #@! TO.N,Column 7*
X148680000Y-51150000D03*
G04 #@! TO.P,F7,2,2*
G04 #@! TO.N,Net-(F7Diode1-A)*
X160680000Y-53350000D03*
G04 #@! TD*
G04 #@! TO.P,F6,1,1*
G04 #@! TO.N,Column 6*
X129630000Y-51150000D03*
G04 #@! TO.P,F6,2,2*
G04 #@! TO.N,Net-(F6Diode1-A)*
X141630000Y-53350000D03*
G04 #@! TD*
G04 #@! TO.P,F5,1,1*
G04 #@! TO.N,Column 5*
X110580000Y-51150000D03*
G04 #@! TO.P,F5,2,2*
G04 #@! TO.N,Net-(F5Diode1-A)*
X122580000Y-53350000D03*
G04 #@! TD*
G04 #@! TO.P,F4,1,1*
G04 #@! TO.N,Column 4*
X91530000Y-51150000D03*
G04 #@! TO.P,F4,2,2*
G04 #@! TO.N,Net-(F4Diode1-A)*
X103530000Y-53350000D03*
G04 #@! TD*
G04 #@! TO.P,F3,1,1*
G04 #@! TO.N,Column 3*
X72480000Y-51150000D03*
G04 #@! TO.P,F3,2,2*
G04 #@! TO.N,Net-(F3Diode1-A)*
X84480000Y-53350000D03*
G04 #@! TD*
G04 #@! TO.P,F2,1,1*
G04 #@! TO.N,Column 2*
X53430000Y-51150000D03*
G04 #@! TO.P,F2,2,2*
G04 #@! TO.N,Net-(F2Diode1-A)*
X65430000Y-53350000D03*
G04 #@! TD*
G04 #@! TO.P,F1,1,1*
G04 #@! TO.N,Column 1*
X34380000Y-51150000D03*
G04 #@! TO.P,F1,2,2*
G04 #@! TO.N,Net-(F1Diode1-A)*
X46380000Y-53350000D03*
G04 #@! TD*
G04 #@! TO.P,Esc1,1,1*
G04 #@! TO.N,Column 0*
X10500000Y-51150000D03*
G04 #@! TO.P,Esc1,2,2*
G04 #@! TO.N,Net-(EscDiode1-A)*
X22500000Y-53350000D03*
G04 #@! TD*
G04 #@! TO.P,Enter1,1,1*
G04 #@! TO.N,Column 12*
X260943750Y-108300000D03*
G04 #@! TO.P,Enter1,2,2*
G04 #@! TO.N,Net-(EnterDiode1-A)*
X272943750Y-110500000D03*
G04 #@! TD*
G04 #@! TO.P,E1,1,1*
G04 #@! TO.N,Column 3*
X72412500Y-89250000D03*
G04 #@! TO.P,E1,2,2*
G04 #@! TO.N,Net-(EDiode1-A)*
X84412500Y-91450000D03*
G04 #@! TD*
G04 #@! TO.P,Down1,1,1*
G04 #@! TO.N,Column 8*
X234625000Y-146400000D03*
G04 #@! TO.P,Down1,2,2*
G04 #@! TO.N,Net-(DownDiode1-A)*
X246625000Y-148600000D03*
G04 #@! TD*
G04 #@! TO.P,Del1,1,1*
G04 #@! TO.N,Column 13*
X267742500Y-51150000D03*
G04 #@! TO.P,Del1,2,2*
G04 #@! TO.N,Net-(DelDiode1-A)*
X279742500Y-53350000D03*
G04 #@! TD*
G04 #@! TO.P,D1,1,1*
G04 #@! TO.N,Column 3*
X77587500Y-108300000D03*
G04 #@! TO.P,D1,2,2*
G04 #@! TO.N,Net-(DDiode1-A)*
X89587500Y-110500000D03*
G04 #@! TD*
G04 #@! TO.P,Control1,1,1*
G04 #@! TO.N,Column 1*
X25075000Y-146400000D03*
G04 #@! TO.P,Control1,2,2*
G04 #@! TO.N,Net-(ControlDiode1-A)*
X37075000Y-148600000D03*
G04 #@! TD*
G04 #@! TO.P,Cmd2,1,1*
G04 #@! TO.N,Column 5*
X196525000Y-146400000D03*
G04 #@! TO.P,Cmd2,2,2*
G04 #@! TO.N,Net-(CmdDiode2-A)*
X208525000Y-148600000D03*
G04 #@! TD*
G04 #@! TO.P,Cmd1,1,1*
G04 #@! TO.N,Column 3*
X63175000Y-146400000D03*
G04 #@! TO.P,Cmd1,2,2*
G04 #@! TO.N,Net-(CmdDiode1-A)*
X75175000Y-148600000D03*
G04 #@! TD*
G04 #@! TO.P,CapsLock1,1,1*
G04 #@! TO.N,Column 0*
X13168750Y-108300000D03*
G04 #@! TO.P,CapsLock1,2,2*
G04 #@! TO.N,Net-(CapsLockDiode1-A)*
X25168750Y-110500000D03*
G04 #@! TD*
G04 #@! TO.P,C1,1,1*
G04 #@! TO.N,Column 3*
X96512500Y-127350000D03*
G04 #@! TO.P,C1,2,2*
G04 #@! TO.N,Net-(CDiode1-A)*
X108512500Y-129550000D03*
G04 #@! TD*
G04 #@! TO.P,Backspace1,1,1*
G04 #@! TO.N,Column 13*
X262812500Y-70200000D03*
G04 #@! TO.P,Backspace1,2,2*
G04 #@! TO.N,Net-(BackspaceDiode1-A)*
X274812500Y-72400000D03*
G04 #@! TD*
G04 #@! TO.P,B1,1,1*
G04 #@! TO.N,Column 5*
X134612500Y-127350000D03*
G04 #@! TO.P,B1,2,2*
G04 #@! TO.N,Net-(BDiode1-A)*
X146612500Y-129550000D03*
G04 #@! TD*
G04 #@! TO.P,A1,1,1*
G04 #@! TO.N,Column 1*
X39487500Y-108400000D03*
G04 #@! TO.P,A1,2,2*
G04 #@! TO.N,Net-(ADiode1-A)*
X51487500Y-110600000D03*
G04 #@! TD*
G04 #@! TO.P,>.1,1,1*
G04 #@! TO.N,Column 9*
X210812500Y-127350000D03*
G04 #@! TO.P,>.1,2,2*
G04 #@! TO.N,Net-(>.Diode1-A)*
X222812500Y-129550000D03*
G04 #@! TD*
G04 #@! TO.P,=+1,1,1*
G04 #@! TO.N,Column 12*
X234625000Y-70200000D03*
G04 #@! TO.P,=+1,2,2*
G04 #@! TO.N,Net-(=+Diode1-A)*
X246625000Y-72400000D03*
G04 #@! TD*
G04 #@! TO.P,<\u002C1,1,1*
G04 #@! TO.N,Column 8*
X191762500Y-127350000D03*
G04 #@! TO.P,<\u002C1,2,2*
G04 #@! TO.N,Net-(<\u002CDiode1-A)*
X203762500Y-129550000D03*
G04 #@! TD*
G04 #@! TO.P,;:1,1,1*
G04 #@! TO.N,Column 10*
X210937500Y-108300000D03*
G04 #@! TO.P,;:1,2,2*
G04 #@! TO.N,Net-(;:Diode1-A)*
X222937500Y-110500000D03*
G04 #@! TD*
G04 #@! TO.P,9(1,1,1*
G04 #@! TO.N,Column 9*
X177475000Y-70200000D03*
G04 #@! TO.P,9(1,2,2*
G04 #@! TO.N,Net-(9(Diode1-A)*
X189475000Y-72400000D03*
G04 #@! TD*
G04 #@! TO.P,8\u002A1,1,1*
G04 #@! TO.N,Column 8*
X158425000Y-70200000D03*
G04 #@! TO.P,8\u002A1,2,2*
G04 #@! TO.N,Net-(8\u002ADiode1-A)*
X170425000Y-72400000D03*
G04 #@! TD*
G04 #@! TO.P,7&1,1,1*
G04 #@! TO.N,Column 7*
X139375000Y-70200000D03*
G04 #@! TO.P,7&1,2,2*
G04 #@! TO.N,Net-(7&Diode1-A)*
X151375000Y-72400000D03*
G04 #@! TD*
G04 #@! TO.P,6^1,1,1*
G04 #@! TO.N,Column 6*
X120325000Y-70200000D03*
G04 #@! TO.P,6^1,2,2*
G04 #@! TO.N,Net-(6^Diode1-A)*
X132325000Y-72400000D03*
G04 #@! TD*
G04 #@! TO.P,5\u00251,1,1*
G04 #@! TO.N,Column 5*
X101275000Y-70200000D03*
G04 #@! TO.P,5\u00251,2,2*
G04 #@! TO.N,Net-(5\u0025Diode1-A)*
X113275000Y-72400000D03*
G04 #@! TD*
G04 #@! TO.P,4$1,1,1*
G04 #@! TO.N,Column 4*
X82225000Y-70200000D03*
G04 #@! TO.P,4$1,2,2*
G04 #@! TO.N,Net-(4$Diode1-A)*
X94225000Y-72400000D03*
G04 #@! TD*
G04 #@! TO.P,3#1,1,1*
G04 #@! TO.N,Column 3*
X63175000Y-70200000D03*
G04 #@! TO.P,3#1,2,2*
G04 #@! TO.N,Net-(3#Diode1-A)*
X75175000Y-72400000D03*
G04 #@! TD*
G04 #@! TO.P,2@1,1,1*
G04 #@! TO.N,Column 2*
X44125000Y-70200000D03*
G04 #@! TO.P,2@1,2,2*
G04 #@! TO.N,Net-(2@Diode1-A)*
X56125000Y-72400000D03*
G04 #@! TD*
G04 #@! TO.P,1!1,1,1*
G04 #@! TO.N,Column 1*
X25075000Y-70200000D03*
G04 #@! TO.P,1!1,2,2*
G04 #@! TO.N,Net-(1!Diode1-A)*
X37075000Y-72400000D03*
G04 #@! TD*
G04 #@! TO.P,0)1,1,1*
G04 #@! TO.N,Column 10*
X196525000Y-70200000D03*
G04 #@! TO.P,0)1,2,2*
G04 #@! TO.N,Net-(0)Diode1-A)*
X208525000Y-72400000D03*
G04 #@! TD*
G04 #@! TO.P,/1,1,1*
G04 #@! TO.N,Column 10*
X229862500Y-127350000D03*
G04 #@! TO.P,/1,2,2*
G04 #@! TO.N,Net-(/?Diode1-A)*
X241862500Y-129550000D03*
G04 #@! TD*
G04 #@! TO.P,-_1,1,1*
G04 #@! TO.N,Column 11*
X215575000Y-70200000D03*
G04 #@! TO.P,-_1,2,2*
G04 #@! TO.N,Net-(-_Diode1-A)*
X227575000Y-72400000D03*
G04 #@! TD*
G04 #@! TO.P,'"1,1,1*
G04 #@! TO.N,Column 11*
X229987500Y-108300000D03*
G04 #@! TO.P,'"1,2,2*
G04 #@! TO.N,Net-('"Diode1-A)*
X241987500Y-110500000D03*
G04 #@! TD*
D11*
G04 #@! TO.P,U1,1,GPIO0*
G04 #@! TO.N,Column 0*
X283755000Y-20320000D03*
G04 #@! TO.P,U1,2,GPIO1*
G04 #@! TO.N,Column 1*
X281215000Y-20320000D03*
D12*
G04 #@! TO.P,U1,3,GND*
G04 #@! TO.N,unconnected-(U1-GND-Pad3)*
X278675000Y-20320000D03*
D11*
G04 #@! TO.P,U1,4,GPIO2*
G04 #@! TO.N,Column 2*
X276135000Y-20320000D03*
G04 #@! TO.P,U1,5,GPIO3*
G04 #@! TO.N,Column 3*
X273595000Y-20320000D03*
G04 #@! TO.P,U1,6,GPIO4*
G04 #@! TO.N,Column 4*
X271055000Y-20320000D03*
G04 #@! TO.P,U1,7,GPIO5*
G04 #@! TO.N,Column 5*
X268515000Y-20320000D03*
D12*
G04 #@! TO.P,U1,8,GND*
G04 #@! TO.N,unconnected-(U1-GND-Pad8)*
X265975000Y-20320000D03*
D11*
G04 #@! TO.P,U1,9,GPIO6*
G04 #@! TO.N,Column 6*
X263435000Y-20320000D03*
G04 #@! TO.P,U1,10,GPIO7*
G04 #@! TO.N,Column 7*
X260895000Y-20320000D03*
G04 #@! TO.P,U1,11,GPIO8*
G04 #@! TO.N,Column 8*
X258355000Y-20320000D03*
G04 #@! TO.P,U1,12,GPIO9*
G04 #@! TO.N,Column 9*
X255815000Y-20320000D03*
D12*
G04 #@! TO.P,U1,13,GND*
G04 #@! TO.N,unconnected-(U1-GND-Pad13)*
X253275000Y-20320000D03*
D11*
G04 #@! TO.P,U1,14,GPIO10*
G04 #@! TO.N,Column 10*
X250735000Y-20320000D03*
G04 #@! TO.P,U1,15,GPIO11*
G04 #@! TO.N,Column 11*
X248195000Y-20320000D03*
G04 #@! TO.P,U1,16,GPIO12*
G04 #@! TO.N,Column 12*
X245655000Y-20320000D03*
G04 #@! TO.P,U1,17,GPIO13*
G04 #@! TO.N,Column 13*
X243115000Y-20320000D03*
D12*
G04 #@! TO.P,U1,18,GND*
G04 #@! TO.N,unconnected-(U1-GND-Pad18)*
X240575000Y-20320000D03*
D11*
G04 #@! TO.P,U1,19,GPIO14*
G04 #@! TO.N,Row 0*
X238035000Y-20320000D03*
G04 #@! TO.P,U1,20,GPIO15*
G04 #@! TO.N,Row 1*
X235495000Y-20320000D03*
G04 #@! TO.P,U1,21,GPIO16*
G04 #@! TO.N,Row 2*
X235495000Y-38100000D03*
G04 #@! TO.P,U1,22,GPIO17*
G04 #@! TO.N,Row 3*
X238035000Y-38100000D03*
D12*
G04 #@! TO.P,U1,23,GND*
G04 #@! TO.N,unconnected-(U1-GND-Pad23)*
X240575000Y-38100000D03*
D11*
G04 #@! TO.P,U1,24,GPIO18*
G04 #@! TO.N,Column 6*
X243115000Y-38100000D03*
G04 #@! TO.P,U1,25,GPIO19*
G04 #@! TO.N,Row 5*
X245655000Y-38100000D03*
G04 #@! TO.P,U1,26,GPIO20*
G04 #@! TO.N,unconnected-(U1-GPIO20-Pad26)*
X248195000Y-38100000D03*
G04 #@! TO.P,U1,27,GPIO21*
G04 #@! TO.N,unconnected-(U1-GPIO21-Pad27)*
X250735000Y-38100000D03*
D12*
G04 #@! TO.P,U1,28,GND*
G04 #@! TO.N,unconnected-(U1-GND-Pad28)*
X253275000Y-38100000D03*
D11*
G04 #@! TO.P,U1,29,GPIO22*
G04 #@! TO.N,unconnected-(U1-GPIO22-Pad29)*
X255815000Y-38100000D03*
G04 #@! TO.P,U1,30,RUN*
G04 #@! TO.N,unconnected-(U1-RUN-Pad30)*
X258355000Y-38100000D03*
G04 #@! TO.P,U1,31,GPIO26_ADC0*
G04 #@! TO.N,unconnected-(U1-GPIO26_ADC0-Pad31)*
X260895000Y-38100000D03*
G04 #@! TO.P,U1,32,GPIO27_ADC1*
G04 #@! TO.N,unconnected-(U1-GPIO27_ADC1-Pad32)*
X263435000Y-38100000D03*
D12*
G04 #@! TO.P,U1,33,AGND*
G04 #@! TO.N,unconnected-(U1-AGND-Pad33)*
X265975000Y-38100000D03*
D11*
G04 #@! TO.P,U1,34,GPIO28_ADC2*
G04 #@! TO.N,unconnected-(U1-GPIO28_ADC2-Pad34)*
X268515000Y-38100000D03*
G04 #@! TO.P,U1,35,ADC_VREF*
G04 #@! TO.N,unconnected-(U1-ADC_VREF-Pad35)*
X271055000Y-38100000D03*
G04 #@! TO.P,U1,36,3V3*
G04 #@! TO.N,unconnected-(U1-3V3-Pad36)*
X273595000Y-38100000D03*
G04 #@! TO.P,U1,37,3V3_EN*
G04 #@! TO.N,unconnected-(U1-3V3_EN-Pad37)*
X276135000Y-38100000D03*
D12*
G04 #@! TO.P,U1,38,GND*
G04 #@! TO.N,unconnected-(U1-GND-Pad38)*
X278675000Y-38100000D03*
D11*
G04 #@! TO.P,U1,39,VSYS*
G04 #@! TO.N,unconnected-(U1-VSYS-Pad39)*
X281215000Y-38100000D03*
G04 #@! TO.P,U1,40,VBUS*
G04 #@! TO.N,unconnected-(U1-VBUS-Pad40)*
X283755000Y-38100000D03*
G04 #@! TO.P,U1,41,SWCLK*
G04 #@! TO.N,unconnected-(U1-SWCLK-Pad41)*
X235725000Y-26670000D03*
D12*
G04 #@! TO.P,U1,42,GND*
G04 #@! TO.N,unconnected-(U1-GND-Pad42)*
X235725000Y-29210000D03*
D11*
G04 #@! TO.P,U1,43,SWDIO*
G04 #@! TO.N,unconnected-(U1-SWDIO-Pad43)*
X235725000Y-31750000D03*
G04 #@! TD*
D13*
G04 #@! TO.P,IDiode1,1,K*
G04 #@! TO.N,Row 2*
X-83452500Y-34375000D03*
D14*
G04 #@! TO.P,IDiode1,2,A*
G04 #@! TO.N,Net-(IDiode1-A)*
X-91072500Y-34375000D03*
G04 #@! TD*
D13*
G04 #@! TO.P,>.Diode1,1,K*
G04 #@! TO.N,Column 6*
X-72682500Y18875000D03*
D14*
G04 #@! TO.P,>.Diode1,2,A*
G04 #@! TO.N,Net-(>.Diode1-A)*
X-80302500Y18875000D03*
G04 #@! TD*
D13*
G04 #@! TO.P,[{Diode1,1,K*
G04 #@! TO.N,Row 2*
X-104992500Y-16625000D03*
D14*
G04 #@! TO.P,[{Diode1,2,A*
G04 #@! TO.N,Net-([{Diode1-A)*
X-112612500Y-16625000D03*
G04 #@! TD*
D13*
G04 #@! TO.P,`~Diode1,1,K*
G04 #@! TO.N,Row 1*
X-104992500Y-27275000D03*
D14*
G04 #@! TO.P,`~Diode1,2,A*
G04 #@! TO.N,Net-(`~Diode1-A)*
X-112612500Y-27275000D03*
G04 #@! TD*
D13*
G04 #@! TO.P,NDiode1,1,K*
G04 #@! TO.N,Column 6*
X-94222500Y1125000D03*
D14*
G04 #@! TO.P,NDiode1,2,A*
G04 #@! TO.N,Net-(NDiode1-A)*
X-101842500Y1125000D03*
G04 #@! TD*
D13*
G04 #@! TO.P,=+Diode1,1,K*
G04 #@! TO.N,Row 1*
X-61912500Y-34375000D03*
D14*
G04 #@! TO.P,=+Diode1,2,A*
G04 #@! TO.N,Net-(=+Diode1-A)*
X-69532500Y-34375000D03*
G04 #@! TD*
D13*
G04 #@! TO.P,UDiode1,1,K*
G04 #@! TO.N,Row 2*
X-104992500Y8225000D03*
D14*
G04 #@! TO.P,UDiode1,2,A*
G04 #@! TO.N,Net-(UDiode1-A)*
X-112612500Y8225000D03*
G04 #@! TD*
D13*
G04 #@! TO.P,SpaceDiode1,1,K*
G04 #@! TO.N,Row 5*
X-104992500Y18875000D03*
D14*
G04 #@! TO.P,SpaceDiode1,2,A*
G04 #@! TO.N,Net-(SpaceDiode1-A)*
X-112612500Y18875000D03*
G04 #@! TD*
D13*
G04 #@! TO.P,QDiode1,1,K*
G04 #@! TO.N,Row 2*
X-94222500Y-16625000D03*
D14*
G04 #@! TO.P,QDiode1,2,A*
G04 #@! TO.N,Net-(QDiode1-A)*
X-101842500Y-16625000D03*
G04 #@! TD*
D13*
G04 #@! TO.P,1!Diode1,1,K*
G04 #@! TO.N,Row 1*
X-61912500Y4675000D03*
D14*
G04 #@! TO.P,1!Diode1,2,A*
G04 #@! TO.N,Net-(1!Diode1-A)*
X-69532500Y4675000D03*
G04 #@! TD*
D13*
G04 #@! TO.P,0)Diode1,1,K*
G04 #@! TO.N,Row 1*
X-61912500Y8225000D03*
D14*
G04 #@! TO.P,0)Diode1,2,A*
G04 #@! TO.N,Net-(0)Diode1-A)*
X-69532500Y8225000D03*
G04 #@! TD*
D13*
G04 #@! TO.P,PDiode1,1,K*
G04 #@! TO.N,Row 2*
X-94222500Y-13075000D03*
D14*
G04 #@! TO.P,PDiode1,2,A*
G04 #@! TO.N,Net-(PDiode1-A)*
X-101842500Y-13075000D03*
G04 #@! TD*
D13*
G04 #@! TO.P,5\u0025Diode1,1,K*
G04 #@! TO.N,Row 1*
X-61912500Y-9525000D03*
D14*
G04 #@! TO.P,5\u0025Diode1,2,A*
G04 #@! TO.N,Net-(5\u0025Diode1-A)*
X-69532500Y-9525000D03*
G04 #@! TD*
D13*
G04 #@! TO.P,SDiode1,1,K*
G04 #@! TO.N,Row 3*
X-94222500Y-27275000D03*
D14*
G04 #@! TO.P,SDiode1,2,A*
G04 #@! TO.N,Net-(SDiode1-A)*
X-101842500Y-27275000D03*
G04 #@! TD*
D13*
G04 #@! TO.P,EnterDiode1,1,K*
G04 #@! TO.N,Row 3*
X-72682500Y-27275000D03*
D14*
G04 #@! TO.P,EnterDiode1,2,A*
G04 #@! TO.N,Net-(EnterDiode1-A)*
X-80302500Y-27275000D03*
G04 #@! TD*
D13*
G04 #@! TO.P,BackspaceDiode1,1,K*
G04 #@! TO.N,Row 1*
X-72682500Y8225000D03*
D14*
G04 #@! TO.P,BackspaceDiode1,2,A*
G04 #@! TO.N,Net-(BackspaceDiode1-A)*
X-80302500Y8225000D03*
G04 #@! TD*
D13*
G04 #@! TO.P,F9Diode1,1,K*
G04 #@! TO.N,Row 0*
X-83452500Y-16625000D03*
D14*
G04 #@! TO.P,F9Diode1,2,A*
G04 #@! TO.N,Net-(F9Diode1-A)*
X-91072500Y-16625000D03*
G04 #@! TD*
D13*
G04 #@! TO.P,EDiode1,1,K*
G04 #@! TO.N,Row 2*
X-72682500Y-23725000D03*
D14*
G04 #@! TO.P,EDiode1,2,A*
G04 #@! TO.N,Net-(EDiode1-A)*
X-80302500Y-23725000D03*
G04 #@! TD*
D13*
G04 #@! TO.P,ControlDiode1,1,K*
G04 #@! TO.N,Row 5*
X-72682500Y-9525000D03*
D14*
G04 #@! TO.P,ControlDiode1,2,A*
G04 #@! TO.N,Net-(ControlDiode1-A)*
X-80302500Y-9525000D03*
G04 #@! TD*
D13*
G04 #@! TO.P,ShiftDiode2,1,K*
G04 #@! TO.N,Column 6*
X-94222500Y-34375000D03*
D14*
G04 #@! TO.P,ShiftDiode2,2,A*
G04 #@! TO.N,Net-(ShiftDiode2-A)*
X-101842500Y-34375000D03*
G04 #@! TD*
D13*
G04 #@! TO.P,F10Diode1,1,K*
G04 #@! TO.N,Row 0*
X-72682500Y-34375000D03*
D14*
G04 #@! TO.P,F10Diode1,2,A*
G04 #@! TO.N,Net-(F10Diode1-A)*
X-80302500Y-34375000D03*
G04 #@! TD*
D13*
G04 #@! TO.P,F3Diode1,1,K*
G04 #@! TO.N,Row 0*
X-83452500Y4675000D03*
D14*
G04 #@! TO.P,F3Diode1,2,A*
G04 #@! TO.N,Net-(F3Diode1-A)*
X-91072500Y4675000D03*
G04 #@! TD*
D13*
G04 #@! TO.P,EscDiode1,1,K*
G04 #@! TO.N,Row 0*
X-72682500Y-30825000D03*
D14*
G04 #@! TO.P,EscDiode1,2,A*
G04 #@! TO.N,Net-(EscDiode1-A)*
X-80302500Y-30825000D03*
G04 #@! TD*
D13*
G04 #@! TO.P,HDiode1,1,K*
G04 #@! TO.N,Row 3*
X-83452500Y-30825000D03*
D14*
G04 #@! TO.P,HDiode1,2,A*
G04 #@! TO.N,Net-(HDiode1-A)*
X-91072500Y-30825000D03*
G04 #@! TD*
D13*
G04 #@! TO.P,LDiode1,1,K*
G04 #@! TO.N,Row 3*
X-94222500Y11775000D03*
D14*
G04 #@! TO.P,LDiode1,2,A*
G04 #@! TO.N,Net-(LDiode1-A)*
X-101842500Y11775000D03*
G04 #@! TD*
D13*
G04 #@! TO.P,VDiode1,1,K*
G04 #@! TO.N,Column 6*
X-104992500Y1125000D03*
D14*
G04 #@! TO.P,VDiode1,2,A*
G04 #@! TO.N,Net-(VDiode1-A)*
X-112612500Y1125000D03*
G04 #@! TD*
D13*
G04 #@! TO.P,F6Diode1,1,K*
G04 #@! TO.N,Row 0*
X-83452500Y-5975000D03*
D14*
G04 #@! TO.P,F6Diode1,2,A*
G04 #@! TO.N,Net-(F6Diode1-A)*
X-91072500Y-5975000D03*
G04 #@! TD*
D13*
G04 #@! TO.P,KDiode1,1,K*
G04 #@! TO.N,Row 3*
X-94222500Y15325000D03*
D14*
G04 #@! TO.P,KDiode1,2,A*
G04 #@! TO.N,Net-(KDiode1-A)*
X-101842500Y15325000D03*
G04 #@! TD*
D13*
G04 #@! TO.P,TDiode1,1,K*
G04 #@! TO.N,Row 2*
X-104992500Y15325000D03*
D14*
G04 #@! TO.P,TDiode1,2,A*
G04 #@! TO.N,Net-(TDiode1-A)*
X-112612500Y15325000D03*
G04 #@! TD*
D13*
G04 #@! TO.P,MDiode1,1,K*
G04 #@! TO.N,Column 6*
X-94222500Y4675000D03*
D14*
G04 #@! TO.P,MDiode1,2,A*
G04 #@! TO.N,Net-(MDiode1-A)*
X-101842500Y4675000D03*
G04 #@! TD*
D13*
G04 #@! TO.P,F1Diode1,1,K*
G04 #@! TO.N,Row 0*
X-83452500Y11775000D03*
D14*
G04 #@! TO.P,F1Diode1,2,A*
G04 #@! TO.N,Net-(F1Diode1-A)*
X-91072500Y11775000D03*
G04 #@! TD*
D13*
G04 #@! TO.P,FnDiode1,1,K*
G04 #@! TO.N,Row 5*
X-83452500Y-23725000D03*
D14*
G04 #@! TO.P,FnDiode1,2,A*
G04 #@! TO.N,Net-(FnDiode1-A)*
X-91072500Y-23725000D03*
G04 #@! TD*
D13*
G04 #@! TO.P,F7Diode1,1,K*
G04 #@! TO.N,Row 0*
X-83452500Y-9525000D03*
D14*
G04 #@! TO.P,F7Diode1,2,A*
G04 #@! TO.N,Net-(F7Diode1-A)*
X-91072500Y-9525000D03*
G04 #@! TD*
D13*
G04 #@! TO.P,XDiode1,1,K*
G04 #@! TO.N,Column 6*
X-104992500Y-5975000D03*
D14*
G04 #@! TO.P,XDiode1,2,A*
G04 #@! TO.N,Net-(XDiode1-A)*
X-112612500Y-5975000D03*
G04 #@! TD*
D13*
G04 #@! TO.P,WDiode1,1,K*
G04 #@! TO.N,Row 2*
X-104992500Y-2425000D03*
D14*
G04 #@! TO.P,WDiode1,2,A*
G04 #@! TO.N,Net-(WDiode1-A)*
X-112612500Y-2425000D03*
G04 #@! TD*
D13*
G04 #@! TO.P,DDiode1,1,K*
G04 #@! TO.N,Row 3*
X-72682500Y-13075000D03*
D14*
G04 #@! TO.P,DDiode1,2,A*
G04 #@! TO.N,Net-(DDiode1-A)*
X-80302500Y-13075000D03*
G04 #@! TD*
D13*
G04 #@! TO.P,9(Diode1,1,K*
G04 #@! TO.N,Row 1*
X-61912500Y-23725000D03*
D14*
G04 #@! TO.P,9(Diode1,2,A*
G04 #@! TO.N,Net-(9(Diode1-A)*
X-69532500Y-23725000D03*
G04 #@! TD*
D13*
G04 #@! TO.P,3#Diode1,1,K*
G04 #@! TO.N,Row 1*
X-61912500Y-2425000D03*
D14*
G04 #@! TO.P,3#Diode1,2,A*
G04 #@! TO.N,Net-(3#Diode1-A)*
X-69532500Y-2425000D03*
G04 #@! TD*
D13*
G04 #@! TO.P,6^Diode1,1,K*
G04 #@! TO.N,Row 1*
X-61912500Y-13075000D03*
D14*
G04 #@! TO.P,6^Diode1,2,A*
G04 #@! TO.N,Net-(6^Diode1-A)*
X-69532500Y-13075000D03*
G04 #@! TD*
D13*
G04 #@! TO.P,2@Diode1,1,K*
G04 #@! TO.N,Row 1*
X-61912500Y1125000D03*
D14*
G04 #@! TO.P,2@Diode1,2,A*
G04 #@! TO.N,Net-(2@Diode1-A)*
X-69532500Y1125000D03*
G04 #@! TD*
D13*
G04 #@! TO.P,F4Diode1,1,K*
G04 #@! TO.N,Row 0*
X-83452500Y1125000D03*
D14*
G04 #@! TO.P,F4Diode1,2,A*
G04 #@! TO.N,Net-(F4Diode1-A)*
X-91072500Y1125000D03*
G04 #@! TD*
D13*
G04 #@! TO.P,F12Diode1,1,K*
G04 #@! TO.N,Row 0*
X-83452500Y15325000D03*
D14*
G04 #@! TO.P,F12Diode1,2,A*
G04 #@! TO.N,Net-(F12Diode1-A)*
X-91072500Y15325000D03*
G04 #@! TD*
D13*
G04 #@! TO.P,F5Diode1,1,K*
G04 #@! TO.N,Row 0*
X-83452500Y-2425000D03*
D14*
G04 #@! TO.P,F5Diode1,2,A*
G04 #@! TO.N,Net-(F5Diode1-A)*
X-91072500Y-2425000D03*
G04 #@! TD*
D13*
G04 #@! TO.P,8\u002ADiode1,1,K*
G04 #@! TO.N,Row 1*
X-61912500Y-20175000D03*
D14*
G04 #@! TO.P,8\u002ADiode1,2,A*
G04 #@! TO.N,Net-(8\u002ADiode1-A)*
X-69532500Y-20175000D03*
G04 #@! TD*
D13*
G04 #@! TO.P,/?Diode1,1,K*
G04 #@! TO.N,Column 6*
X-61912500Y11775000D03*
D14*
G04 #@! TO.P,/?Diode1,2,A*
G04 #@! TO.N,Net-(/?Diode1-A)*
X-69532500Y11775000D03*
G04 #@! TD*
D13*
G04 #@! TO.P,CmdDiode1,1,K*
G04 #@! TO.N,Row 5*
X-72682500Y-2425000D03*
D14*
G04 #@! TO.P,CmdDiode1,2,A*
G04 #@! TO.N,Net-(CmdDiode1-A)*
X-80302500Y-2425000D03*
G04 #@! TD*
D13*
G04 #@! TO.P,CapsLockDiode1,1,K*
G04 #@! TO.N,Row 3*
X-72682500Y1125000D03*
D14*
G04 #@! TO.P,CapsLockDiode1,2,A*
G04 #@! TO.N,Net-(CapsLockDiode1-A)*
X-80302500Y1125000D03*
G04 #@! TD*
D13*
G04 #@! TO.P,DownDiode1,1,K*
G04 #@! TO.N,Row 5*
X-72682500Y-20175000D03*
D14*
G04 #@! TO.P,DownDiode1,2,A*
G04 #@! TO.N,Net-(DownDiode1-A)*
X-80302500Y-20175000D03*
G04 #@! TD*
D13*
G04 #@! TO.P,LeftDiode1,1,K*
G04 #@! TO.N,Row 5*
X-94222500Y8225000D03*
D14*
G04 #@! TO.P,LeftDiode1,2,A*
G04 #@! TO.N,Net-(LeftDiode1-A)*
X-101842500Y8225000D03*
G04 #@! TD*
D13*
G04 #@! TO.P,F11Diode1,1,K*
G04 #@! TO.N,Row 0*
X-83452500Y18875000D03*
D14*
G04 #@! TO.P,F11Diode1,2,A*
G04 #@! TO.N,Net-(F11Diode1-A)*
X-91072500Y18875000D03*
G04 #@! TD*
D13*
G04 #@! TO.P,UpDiode1,1,K*
G04 #@! TO.N,Row 5*
X-104992500Y4675000D03*
D14*
G04 #@! TO.P,UpDiode1,2,A*
G04 #@! TO.N,Net-(UpDiode1-A)*
X-112612500Y4675000D03*
G04 #@! TD*
D13*
G04 #@! TO.P,DelDiode1,1,K*
G04 #@! TO.N,Row 0*
X-72682500Y-16625000D03*
D14*
G04 #@! TO.P,DelDiode1,2,A*
G04 #@! TO.N,Net-(DelDiode1-A)*
X-80302500Y-16625000D03*
G04 #@! TD*
D13*
G04 #@! TO.P,OptionDiode1,1,K*
G04 #@! TO.N,Row 5*
X-94222500Y-5975000D03*
D14*
G04 #@! TO.P,OptionDiode1,2,A*
G04 #@! TO.N,Net-(OptionDiode1-A)*
X-101842500Y-5975000D03*
G04 #@! TD*
D13*
G04 #@! TO.P,ODiode1,1,K*
G04 #@! TO.N,Row 2*
X-94222500Y-2425000D03*
D14*
G04 #@! TO.P,ODiode1,2,A*
G04 #@! TO.N,Net-(ODiode1-A)*
X-101842500Y-2425000D03*
G04 #@! TD*
D13*
G04 #@! TO.P,TabDiode1,1,K*
G04 #@! TO.N,Row 2*
X-104992500Y11775000D03*
D14*
G04 #@! TO.P,TabDiode1,2,A*
G04 #@! TO.N,Net-(TabDiode1-A)*
X-112612500Y11775000D03*
G04 #@! TD*
D13*
G04 #@! TO.P,ADiode1,1,K*
G04 #@! TO.N,Row 3*
X-72682500Y15325000D03*
D14*
G04 #@! TO.P,ADiode1,2,A*
G04 #@! TO.N,Net-(ADiode1-A)*
X-80302500Y15325000D03*
G04 #@! TD*
D13*
G04 #@! TO.P,4$Diode1,1,K*
G04 #@! TO.N,Row 1*
X-61912500Y-5975000D03*
D14*
G04 #@! TO.P,4$Diode1,2,A*
G04 #@! TO.N,Net-(4$Diode1-A)*
X-69532500Y-5975000D03*
G04 #@! TD*
D13*
G04 #@! TO.P,F2Diode1,1,K*
G04 #@! TO.N,Row 0*
X-83452500Y8225000D03*
D14*
G04 #@! TO.P,F2Diode1,2,A*
G04 #@! TO.N,Net-(F2Diode1-A)*
X-91072500Y8225000D03*
G04 #@! TD*
D13*
G04 #@! TO.P,RDiode1,1,K*
G04 #@! TO.N,Row 2*
X-94222500Y-20175000D03*
D14*
G04 #@! TO.P,RDiode1,2,A*
G04 #@! TO.N,Net-(RDiode1-A)*
X-101842500Y-20175000D03*
G04 #@! TD*
D13*
G04 #@! TO.P,'"Diode1,1,K*
G04 #@! TO.N,Row 3*
X-61912500Y18875000D03*
D14*
G04 #@! TO.P,'"Diode1,2,A*
G04 #@! TO.N,Net-('"Diode1-A)*
X-69532500Y18875000D03*
G04 #@! TD*
D13*
G04 #@! TO.P,YDiode1,1,K*
G04 #@! TO.N,Row 2*
X-104992500Y-9525000D03*
D14*
G04 #@! TO.P,YDiode1,2,A*
G04 #@! TO.N,Net-(YDiode1-A)*
X-112612500Y-9525000D03*
G04 #@! TD*
D13*
G04 #@! TO.P,GDiode1,1,K*
G04 #@! TO.N,Row 3*
X-83452500Y-27275000D03*
D14*
G04 #@! TO.P,GDiode1,2,A*
G04 #@! TO.N,Net-(GDiode1-A)*
X-91072500Y-27275000D03*
G04 #@! TD*
D13*
G04 #@! TO.P,<\u002CDiode1,1,K*
G04 #@! TO.N,Column 6*
X-61912500Y-30825000D03*
D14*
G04 #@! TO.P,<\u002CDiode1,2,A*
G04 #@! TO.N,Net-(<\u002CDiode1-A)*
X-69532500Y-30825000D03*
G04 #@! TD*
D13*
G04 #@! TO.P,ZDiode1,1,K*
G04 #@! TO.N,Column 6*
X-104992500Y-13075000D03*
D14*
G04 #@! TO.P,ZDiode1,2,A*
G04 #@! TO.N,Net-(ZDiode1-A)*
X-112612500Y-13075000D03*
G04 #@! TD*
D13*
G04 #@! TO.P,JDiode1,1,K*
G04 #@! TO.N,Row 3*
X-94222500Y18875000D03*
D14*
G04 #@! TO.P,JDiode1,2,A*
G04 #@! TO.N,Net-(JDiode1-A)*
X-101842500Y18875000D03*
G04 #@! TD*
D13*
G04 #@! TO.P,F8Diode1,1,K*
G04 #@! TO.N,Row 0*
X-83452500Y-13075000D03*
D14*
G04 #@! TO.P,F8Diode1,2,A*
G04 #@! TO.N,Net-(F8Diode1-A)*
X-91072500Y-13075000D03*
G04 #@! TD*
D13*
G04 #@! TO.P,ShiftDiode1,1,K*
G04 #@! TO.N,Column 6*
X-94222500Y-30825000D03*
D14*
G04 #@! TO.P,ShiftDiode1,2,A*
G04 #@! TO.N,Net-(ShiftDiode1-A)*
X-101842500Y-30825000D03*
G04 #@! TD*
D13*
G04 #@! TO.P,7&Diode1,1,K*
G04 #@! TO.N,Row 1*
X-61912500Y-16625000D03*
D14*
G04 #@! TO.P,7&Diode1,2,A*
G04 #@! TO.N,Net-(7&Diode1-A)*
X-69532500Y-16625000D03*
G04 #@! TD*
D13*
G04 #@! TO.P,RightDiode1,1,K*
G04 #@! TO.N,Row 5*
X-94222500Y-23725000D03*
D14*
G04 #@! TO.P,RightDiode1,2,A*
G04 #@! TO.N,Net-(RightDiode1-A)*
X-101842500Y-23725000D03*
G04 #@! TD*
D13*
G04 #@! TO.P,]}Diode1,1,K*
G04 #@! TO.N,Row 2*
X-104992500Y-23725000D03*
D14*
G04 #@! TO.P,]}Diode1,2,A*
G04 #@! TO.N,Net-(]}Diode1-A)*
X-112612500Y-23725000D03*
G04 #@! TD*
D13*
G04 #@! TO.P,FDiode1,1,K*
G04 #@! TO.N,Row 3*
X-83452500Y-20175000D03*
D14*
G04 #@! TO.P,FDiode1,2,A*
G04 #@! TO.N,Net-(FDiode1-A)*
X-91072500Y-20175000D03*
G04 #@! TD*
D13*
G04 #@! TO.P,;:Diode1,1,K*
G04 #@! TO.N,Row 3*
X-61912500Y-27275000D03*
D14*
G04 #@! TO.P,;:Diode1,2,A*
G04 #@! TO.N,Net-(;:Diode1-A)*
X-69532500Y-27275000D03*
G04 #@! TD*
D13*
G04 #@! TO.P,CmdDiode2,1,K*
G04 #@! TO.N,Row 5*
X-72682500Y-5975000D03*
D14*
G04 #@! TO.P,CmdDiode2,2,A*
G04 #@! TO.N,Net-(CmdDiode2-A)*
X-80302500Y-5975000D03*
G04 #@! TD*
D13*
G04 #@! TO.P,OptionDiode2,1,K*
G04 #@! TO.N,Row 5*
X-94222500Y-9525000D03*
D14*
G04 #@! TO.P,OptionDiode2,2,A*
G04 #@! TO.N,Net-(OptionDiode2-A)*
X-101842500Y-9525000D03*
G04 #@! TD*
D13*
G04 #@! TO.P,-_Diode1,1,K*
G04 #@! TO.N,Row 1*
X-61912500Y15325000D03*
D14*
G04 #@! TO.P,-_Diode1,2,A*
G04 #@! TO.N,Net-(-_Diode1-A)*
X-69532500Y15325000D03*
G04 #@! TD*
D13*
G04 #@! TO.P,BDiode1,1,K*
G04 #@! TO.N,Column 6*
X-72682500Y11775000D03*
D14*
G04 #@! TO.P,BDiode1,2,A*
G04 #@! TO.N,Net-(BDiode1-A)*
X-80302500Y11775000D03*
G04 #@! TD*
D13*
G04 #@! TO.P,CDiode1,1,K*
G04 #@! TO.N,Column 6*
X-72682500Y4675000D03*
D14*
G04 #@! TO.P,CDiode1,2,A*
G04 #@! TO.N,Net-(CDiode1-A)*
X-80302500Y4675000D03*
G04 #@! TD*
D13*
G04 #@! TO.P,\u005C|Diode1,1,K*
G04 #@! TO.N,Row 2*
X-104992500Y-20175000D03*
D14*
G04 #@! TO.P,\u005C|Diode1,2,A*
G04 #@! TO.N,Net-(\u005C|Diode1-A)*
X-112612500Y-20175000D03*
G04 #@! TD*
M02*
